<?xml version="1.0" encoding="UTF-8" standalone="no"?>
<!DOCTYPE svg PUBLIC "-//W3C//DTD SVG 1.1//EN" "http://www.w3.org/Graphics/SVG/1.1/DTD/svg11.dtd">
<svg width="100%" height="100%" viewBox="0 0 512 512" version="1.1" xmlns="http://www.w3.org/2000/svg" xmlns:xlink="http://www.w3.org/1999/xlink" xml:space="preserve" xmlns:serif="http://www.serif.com/" style="fill-rule:evenodd;clip-rule:evenodd;stroke-linejoin:round;stroke-miterlimit:2;">
    <g>
        <path d="M511.599,462.34C501.79,432.158 486.698,403.483 473.87,374.81C472.36,371.037 466.324,371.037 464.06,373.3C451.234,386.883 436.897,400.465 428.595,417.065L427.841,417.065C335.783,423.857 246.744,345.38 183.36,288.034C110.167,222.387 43.765,142.402 17.355,46.572C15.846,34.499 14.337,21.671 14.337,8.843C14.337,2.807 6.037,2.807 5.282,8.843L5.282,15.635C2.264,15.635 0,17.898 0,21.671C0.755,29.971 3.018,38.272 4.527,46.572C10.564,251.06 214.298,448.003 413.504,460.83C406.713,472.904 400.678,485.73 393.132,497.804C389.358,503.085 395.396,508.367 400.678,507.613C438.406,502.332 472.362,484.221 507.072,470.64C510.089,469.885 513.107,466.867 511.599,462.34ZM410.486,492.522C415.014,482.713 418.031,472.904 423.313,463.094C424.824,459.32 422.559,456.303 420.295,455.548C420.295,453.285 418.786,451.774 416.522,451.021C236.18,420.838 89.794,297.843 35.465,131.082C70.93,196.73 125.259,254.077 178.833,302.37C218.071,337.836 259.572,369.526 304.846,395.936C340.311,416.31 384.83,435.174 425.577,422.347C423.313,428.384 432.368,431.402 435.387,426.875C445.196,414.047 455.005,401.974 465.569,390.655C476.132,414.047 487.452,437.438 495.751,461.584C467.833,472.149 439.914,485.731 410.486,492.522Z" style="fill:rgb(236,242,255);fill-rule:nonzero;"/>
    </g>
</svg>
