<?xml version="1.0" encoding="UTF-8" standalone="no"?>
<!DOCTYPE svg PUBLIC "-//W3C//DTD SVG 1.1//EN" "http://www.w3.org/Graphics/SVG/1.1/DTD/svg11.dtd">
<svg width="100%" height="100%" viewBox="0 0 512 512" version="1.1" xmlns="http://www.w3.org/2000/svg" xmlns:xlink="http://www.w3.org/1999/xlink" xml:space="preserve" xmlns:serif="http://www.serif.com/" style="fill-rule:evenodd;clip-rule:evenodd;stroke-linejoin:round;stroke-miterlimit:2;">
    <g>
        <path d="M384.001,500.488L122.352,500.488C107.22,500.488 94.953,488.221 94.953,473.089L94.953,91.433C94.953,76.301 107.22,64.034 122.352,64.034L384.001,64.034C399.133,64.034 411.4,76.301 411.4,91.433L411.4,473.089C411.4,488.221 399.133,500.488 384.001,500.488Z" style="fill:rgb(202,180,239);fill-rule:nonzero;"/>
        <path d="M352.962,193.779L153.392,193.779C145.169,193.779 138.503,187.113 138.503,178.89L138.503,124.301C138.503,116.078 145.169,109.412 153.392,109.412L352.962,109.412C361.185,109.412 367.851,116.078 367.851,124.301L367.851,178.89C367.851,187.113 361.185,193.779 352.962,193.779Z" style="fill:rgb(189,244,227);fill-rule:nonzero;"/>
        <g>
            <path d="M190.195,287.83L147.423,287.83C147.423,287.83 147.422,287.83 147.422,287.83C142.529,287.83 138.502,283.803 138.502,278.91C138.502,278.91 138.502,278.909 138.502,278.909L138.502,236.137C138.502,236.137 138.502,236.136 138.502,236.136C138.502,231.243 142.529,227.216 147.422,227.216C147.422,227.216 147.423,227.216 147.423,227.216L190.195,227.216C190.195,227.216 190.196,227.216 190.196,227.216C195.089,227.216 199.116,231.243 199.116,236.136C199.116,236.136 199.116,236.137 199.116,236.137L199.116,278.909C199.116,278.909 199.116,278.91 199.116,278.91C199.116,283.803 195.089,287.83 190.196,287.83C190.196,287.83 190.195,287.83 190.195,287.83ZM190.195,374.054L147.423,374.054C147.423,374.054 147.422,374.054 147.422,374.054C142.529,374.054 138.502,370.027 138.502,365.134C138.502,365.134 138.502,365.133 138.502,365.133L138.502,322.361C138.502,322.361 138.502,322.36 138.502,322.36C138.502,317.467 142.529,313.44 147.422,313.44C147.422,313.44 147.423,313.44 147.423,313.44L190.195,313.44C190.195,313.44 190.196,313.44 190.196,313.44C195.089,313.44 199.116,317.467 199.116,322.36C199.116,322.36 199.116,322.361 199.116,322.361L199.116,365.133C199.116,365.133 199.116,365.134 199.116,365.134C199.116,370.027 195.089,374.054 190.196,374.054C190.196,374.054 190.195,374.054 190.195,374.054ZM190.195,460.278L147.423,460.278C147.423,460.278 147.422,460.278 147.422,460.278C142.529,460.278 138.502,456.251 138.502,451.358C138.502,451.358 138.502,451.357 138.502,451.357L138.502,408.585C138.502,408.585 138.502,408.584 138.502,408.584C138.502,403.691 142.529,399.664 147.422,399.664C147.422,399.664 147.423,399.664 147.423,399.664L190.195,399.664C190.195,399.664 190.196,399.664 190.196,399.664C195.089,399.664 199.116,403.691 199.116,408.584C199.116,408.584 199.116,408.585 199.116,408.585L199.116,451.357C199.116,451.357 199.116,451.358 199.116,451.358C199.116,456.251 195.089,460.278 190.196,460.278C190.196,460.278 190.195,460.278 190.195,460.278ZM274.563,287.83L231.791,287.83C231.791,287.83 231.79,287.83 231.79,287.83C226.897,287.83 222.87,283.803 222.87,278.91C222.87,278.91 222.87,278.909 222.87,278.909L222.87,236.137C222.87,236.137 222.87,236.136 222.87,236.136C222.87,231.243 226.897,227.216 231.79,227.216C231.79,227.216 231.791,227.216 231.791,227.216L274.563,227.216C274.563,227.216 274.564,227.216 274.564,227.216C279.457,227.216 283.484,231.243 283.484,236.136C283.484,236.136 283.484,236.137 283.484,236.137L283.484,278.909C283.483,283.803 279.457,287.829 274.563,287.83ZM274.563,374.054L231.791,374.054C231.791,374.054 231.79,374.054 231.79,374.054C226.897,374.054 222.87,370.027 222.87,365.134C222.87,365.134 222.87,365.133 222.87,365.133L222.87,322.361C222.87,322.361 222.87,322.36 222.87,322.36C222.87,317.467 226.897,313.44 231.79,313.44C231.79,313.44 231.791,313.44 231.791,313.44L274.563,313.44C274.563,313.44 274.564,313.44 274.564,313.44C279.457,313.44 283.484,317.467 283.484,322.36C283.484,322.36 283.484,322.361 283.484,322.361L283.484,365.133C283.483,370.027 279.457,374.053 274.563,374.054ZM274.563,460.278L231.791,460.278C231.791,460.278 231.79,460.278 231.79,460.278C226.897,460.278 222.87,456.251 222.87,451.358C222.87,451.358 222.87,451.357 222.87,451.357L222.87,408.585C222.87,408.585 222.87,408.584 222.87,408.584C222.87,403.691 226.897,399.664 231.79,399.664C231.79,399.664 231.791,399.664 231.791,399.664L274.563,399.664C274.563,399.664 274.564,399.664 274.564,399.664C279.457,399.664 283.484,403.691 283.484,408.584C283.484,408.584 283.484,408.585 283.484,408.585L283.484,451.357C283.483,456.251 279.457,460.277 274.563,460.278ZM358.93,287.83L316.158,287.83C316.158,287.83 316.157,287.83 316.157,287.83C311.264,287.83 307.237,283.803 307.237,278.91C307.237,278.91 307.237,278.909 307.237,278.909L307.237,236.137C307.237,236.137 307.237,236.136 307.237,236.136C307.237,231.243 311.264,227.216 316.157,227.216C316.157,227.216 316.158,227.216 316.158,227.216L358.93,227.216C358.93,227.216 358.931,227.216 358.931,227.216C363.824,227.216 367.851,231.243 367.851,236.136C367.851,236.136 367.851,236.137 367.851,236.137L367.851,278.909C367.851,278.909 367.851,278.91 367.851,278.91C367.851,283.803 363.824,287.83 358.931,287.83C358.931,287.83 358.93,287.83 358.93,287.83Z" style="fill:rgb(161,131,226);fill-rule:nonzero;"/>
        </g>
        <path d="M358.93,313.44L316.158,313.44C316.158,313.44 316.157,313.44 316.157,313.44C311.264,313.44 307.237,317.467 307.237,322.36L307.237,451.356C307.237,456.249 311.264,460.276 316.157,460.276C316.157,460.276 316.158,460.276 316.158,460.276L358.93,460.276C358.93,460.276 358.931,460.276 358.931,460.276C363.824,460.276 367.851,456.249 367.851,451.356L367.851,322.36C367.851,317.467 363.824,313.44 358.931,313.44C358.931,313.44 358.93,313.44 358.93,313.44Z" style="fill:rgb(239,139,189);fill-rule:nonzero;"/>
        <path d="M384.001,64.034L327.505,64.034C339.945,64.034 350.03,74.118 350.03,86.559L350.03,407.447C350.03,419.887 339.945,429.971 327.505,429.971L117.477,429.971C105.037,429.971 94.952,419.887 94.952,407.447L94.952,473.09C94.952,488.222 107.219,500.489 122.351,500.489L384,500.489C399.132,500.489 411.399,488.222 411.399,473.09L411.399,91.433C411.401,76.301 399.134,64.034 384.001,64.034Z" style="fill:rgb(190,135,239);fill-rule:nonzero;"/>
        <path d="M147.423,460.278L190.195,460.278C195.088,460.278 199.115,456.251 199.115,451.358L199.115,429.971L138.502,429.971L138.502,451.358C138.503,456.252 142.529,460.278 147.423,460.278ZM231.791,460.278L274.563,460.278C274.563,460.278 274.564,460.278 274.564,460.278C279.457,460.278 283.484,456.251 283.484,451.358L283.484,429.971L222.87,429.971L222.87,451.358C222.87,456.251 226.897,460.278 231.79,460.278C231.79,460.278 231.791,460.278 231.791,460.278Z" style="fill:rgb(151,98,226);fill-rule:nonzero;"/>
        <path d="M358.93,313.44L350.03,313.44L350.03,407.446C350.03,419.886 339.946,429.97 327.506,429.97L307.238,429.97L307.238,451.357C307.238,456.25 311.265,460.277 316.158,460.277C316.158,460.277 316.159,460.277 316.159,460.277L358.931,460.277C358.931,460.277 358.932,460.277 358.932,460.277C363.825,460.277 367.852,456.25 367.852,451.357L367.852,322.361C367.851,317.467 363.824,313.44 358.93,313.44Z" style="fill:rgb(224,104,189);fill-rule:nonzero;"/>
        <path d="M358.931,227.216C358.931,227.216 350.03,227.216 350.03,227.216L350.03,287.829C350.03,287.829 358.931,287.829 358.931,287.829C363.824,287.829 367.851,283.802 367.851,278.909C367.851,278.909 367.851,278.908 367.851,278.908L367.851,236.136C367.851,231.243 363.824,227.216 358.931,227.216Z" style="fill:rgb(151,98,226);fill-rule:nonzero;"/>
        <path d="M352.962,109.411L350.03,109.411L350.03,193.779L352.962,193.779C361.185,193.779 367.851,187.112 367.851,178.89L367.851,124.301C367.851,116.078 361.185,109.411 352.962,109.411Z" style="fill:rgb(177,183,227);fill-rule:nonzero;"/>
        <g>
            <path d="M384.001,53.98L122.352,53.98C101.7,53.98 84.899,70.781 84.899,91.432L84.899,473.088C84.899,493.74 101.7,510.541 122.352,510.541L384.001,510.541C404.653,510.541 421.454,493.74 421.454,473.088L421.454,91.433C421.454,70.781 404.653,53.98 384.001,53.98ZM401.347,473.089C401.347,482.653 393.566,490.435 384.001,490.435L122.352,490.435C112.788,490.435 105.006,482.653 105.006,473.089L105.006,91.433C105.006,81.869 112.788,74.087 122.352,74.087L384.001,74.087C393.565,74.087 401.347,81.869 401.347,91.433L401.347,473.089Z" style="fill:rgb(68,10,41);fill-rule:nonzero;"/>
            <path d="M352.962,103.38L153.392,103.38C141.856,103.38 132.471,112.765 132.471,124.301L132.471,178.89C132.471,190.426 141.857,199.811 153.392,199.811L352.962,199.811C364.498,199.811 373.883,190.426 373.883,178.89L373.883,124.3C373.883,112.765 364.497,103.38 352.962,103.38ZM361.819,178.89C361.819,183.774 357.846,187.747 352.961,187.747L153.391,187.747C148.507,187.747 144.534,183.774 144.534,178.89L144.534,124.3C144.534,119.416 148.507,115.443 153.391,115.443L352.961,115.443C357.845,115.443 361.819,119.416 361.819,124.3L361.819,178.89ZM190.195,221.184L147.423,221.184C139.178,221.184 132.47,227.892 132.47,236.137L132.47,278.909C132.47,287.154 139.178,293.861 147.423,293.861L190.195,293.861C198.44,293.861 205.147,287.154 205.147,278.909L205.147,236.137C205.148,227.892 198.44,221.184 190.195,221.184ZM193.084,278.909C193.082,280.492 191.779,281.795 190.196,281.797L147.424,281.797C145.84,281.795 144.537,280.493 144.535,278.909L144.535,236.137C144.537,234.553 145.84,233.25 147.424,233.248L190.196,233.248C191.78,233.25 193.082,234.553 193.084,236.137L193.084,278.909ZM190.195,307.409L147.423,307.409C139.178,307.409 132.47,314.116 132.47,322.361L132.47,365.133C132.47,373.378 139.178,380.086 147.423,380.086L190.195,380.086C198.44,380.086 205.147,373.378 205.147,365.133L205.147,322.361C205.148,314.116 198.44,307.409 190.195,307.409ZM193.084,365.133C193.082,366.717 191.78,368.02 190.196,368.022L147.424,368.022C145.84,368.02 144.537,366.717 144.535,365.133L144.535,322.361C144.537,320.777 145.84,319.475 147.424,319.473L190.196,319.473C191.779,319.475 193.082,320.778 193.084,322.361L193.084,365.133ZM190.195,393.632L147.423,393.632C139.178,393.632 132.47,400.34 132.47,408.585L132.47,451.357C132.47,459.602 139.178,466.309 147.423,466.309L190.195,466.309C198.44,466.309 205.147,459.602 205.147,451.357L205.147,408.585C205.148,400.34 198.44,393.632 190.195,393.632ZM193.084,451.357C193.082,452.94 191.779,454.243 190.196,454.245L147.424,454.245C145.84,454.243 144.537,452.941 144.535,451.357L144.535,408.585C144.537,407.001 145.84,405.698 147.424,405.696L190.196,405.696C191.78,405.698 193.082,407.001 193.084,408.585L193.084,451.357ZM274.563,221.184L231.791,221.184C223.546,221.184 216.838,227.892 216.838,236.137L216.838,278.909C216.838,287.154 223.546,293.861 231.791,293.861L274.563,293.861C282.808,293.861 289.515,287.154 289.515,278.909L289.515,236.137C289.515,227.892 282.807,221.184 274.563,221.184ZM277.451,278.909C277.449,280.492 276.146,281.795 274.563,281.797L231.791,281.797C230.207,281.795 228.904,280.493 228.902,278.909L228.902,236.137C228.904,234.553 230.207,233.25 231.791,233.248L274.563,233.248C276.147,233.25 277.449,234.553 277.451,236.137L277.451,278.909ZM274.563,307.409L231.791,307.409C223.546,307.409 216.838,314.116 216.838,322.361L216.838,365.133C216.838,373.378 223.546,380.086 231.791,380.086L274.563,380.086C282.808,380.086 289.515,373.378 289.515,365.133L289.515,322.361C289.515,314.116 282.807,307.409 274.563,307.409ZM277.451,365.133C277.449,366.717 276.147,368.02 274.563,368.022L231.791,368.022C230.207,368.02 228.904,366.717 228.902,365.133L228.902,322.361C228.904,320.777 230.207,319.475 231.791,319.473L274.563,319.473C276.146,319.475 277.449,320.778 277.451,322.361L277.451,365.133ZM274.563,393.632L231.791,393.632C223.546,393.632 216.838,400.34 216.838,408.585L216.838,451.357C216.838,459.602 223.546,466.309 231.791,466.309L274.563,466.309C282.808,466.309 289.515,459.602 289.515,451.357L289.515,408.585C289.515,400.34 282.807,393.632 274.563,393.632ZM277.451,451.357C277.449,452.94 276.146,454.243 274.563,454.245L231.791,454.245C230.207,454.243 228.904,452.941 228.902,451.357L228.902,408.585C228.904,407.001 230.207,405.698 231.791,405.696L274.563,405.696C276.147,405.698 277.449,407.001 277.451,408.585L277.451,451.357ZM358.93,221.184L316.158,221.184C307.913,221.184 301.206,227.892 301.206,236.137L301.206,278.909C301.206,287.154 307.913,293.861 316.158,293.861L358.93,293.861C367.175,293.861 373.883,287.154 373.883,278.909L373.883,236.137C373.883,227.892 367.175,221.184 358.93,221.184ZM361.819,278.909C361.817,280.493 360.514,281.795 358.93,281.797L316.158,281.797C314.575,281.795 313.272,280.492 313.27,278.909L313.27,236.137C313.272,234.553 314.574,233.25 316.158,233.248L358.93,233.248C360.514,233.25 361.817,234.553 361.819,236.137L361.819,278.909ZM358.93,307.409L316.158,307.409C307.913,307.409 301.206,314.116 301.206,322.361L301.206,451.357C301.206,459.602 307.913,466.309 316.158,466.309L358.93,466.309C367.175,466.309 373.883,459.602 373.883,451.357L373.883,322.361C373.883,314.116 367.175,307.409 358.93,307.409ZM361.819,451.357C361.817,452.941 360.514,454.243 358.93,454.245L316.158,454.245C314.575,454.243 313.272,452.94 313.27,451.357L313.27,322.361C313.272,320.778 314.575,319.475 316.158,319.473L358.93,319.473C360.514,319.475 361.817,320.777 361.819,322.361L361.819,451.357Z" style="fill:rgb(68,10,41);fill-rule:nonzero;"/>
            <path d="M329.59,356.702C326.281,356.702 323.558,359.425 323.558,362.734L323.558,374.054C323.558,377.363 326.281,380.086 329.59,380.086C332.899,380.086 335.622,377.363 335.622,374.054L335.622,362.734C335.622,359.425 332.899,356.702 329.59,356.702ZM346.217,393.632C342.908,393.632 340.185,396.355 340.185,399.664L340.185,410.984C340.185,414.293 342.908,417.016 346.217,417.016C349.526,417.016 352.249,414.293 352.249,410.984L352.249,399.664C352.249,396.355 349.526,393.632 346.217,393.632Z" style="fill:rgb(68,10,41);fill-rule:nonzero;"/>
        </g>
        <path d="M249.633,152.379C241.36,152.379 233.087,152.311 224.522,152.175C218.971,152.087 214.541,147.515 214.63,141.964C214.718,136.413 219.246,132.004 224.842,132.072C241.756,132.341 257.512,132.341 274.428,132.072L274.591,132.071C280.069,132.071 284.553,136.467 284.64,141.965C284.727,147.516 280.299,152.089 274.748,152.176C266.18,152.31 257.907,152.379 249.633,152.379ZM184.625,152.176L172.916,152.176C167.364,152.176 162.863,147.675 162.863,142.123C162.863,136.571 167.364,132.07 172.916,132.07L184.625,132.07C190.177,132.07 194.678,136.571 194.678,142.123C194.678,147.675 190.177,152.176 184.625,152.176Z" style="fill:white;fill-rule:nonzero;"/>
        <path d="M512,102.323C512,112.621 503.652,120.969 493.354,120.969C483.056,120.969 474.708,112.621 474.708,102.323C474.708,92.025 483.056,83.677 493.354,83.677C503.652,83.677 512,92.025 512,102.323Z" style="fill:rgb(161,131,226);fill-rule:nonzero;"/>
        <g transform="matrix(0.23005,-0.973179,0.973179,0.23005,17.3438,87.4277)">
            <circle cx="63.905" cy="32.746" r="7.896" style="fill:rgb(161,131,226);"/>
        </g>
        <g>
            <path d="M458.162,3.345L464.496,21.156C464.767,21.919 465.304,22.523 465.982,22.828L481.806,29.957C484.042,30.964 484.042,34.526 481.806,35.533L465.982,42.662C465.304,42.967 464.768,43.572 464.496,44.334L458.162,62.145C457.267,64.661 454.102,64.661 453.208,62.145L446.874,44.334C446.603,43.571 446.066,42.967 445.388,42.662L429.564,35.533C427.328,34.526 427.328,30.964 429.564,29.957L445.388,22.828C446.066,22.523 446.602,21.918 446.874,21.156L453.208,3.345C454.102,0.829 457.267,0.829 458.162,3.345ZM30.275,80.011L36.609,97.822C36.88,98.584 37.417,99.189 38.095,99.494L53.919,106.623C56.154,107.63 56.154,111.192 53.919,112.199L38.095,119.328C37.417,119.633 36.88,120.238 36.609,121L30.275,138.811C29.38,141.327 26.215,141.327 25.32,138.811L18.986,121C18.715,120.237 18.178,119.633 17.5,119.328L1.677,112.2C-0.559,111.193 -0.559,107.631 1.677,106.624L17.501,99.495C18.179,99.19 18.715,98.585 18.987,97.823L25.321,80.012C26.216,77.494 29.38,77.494 30.275,80.011Z" style="fill:rgb(202,180,239);fill-rule:nonzero;"/>
        </g>
    </g>
</svg>
