<svg xmlns="http://www.w3.org/2000/svg" version="1.1" xmlns:xlink="http://www.w3.org/1999/xlink" width="512" height="512" x="0" y="0" viewBox="0 0 64 64" style="enable-background:new 0 0 512 512" xml:space="preserve" class=""><g><g data-name="24-Education"><path d="M62.95 27.93a1.691 1.691 0 0 1-1.7 2.07h-2.5a1.691 1.691 0 0 1-1.7-2.07L60 20Z" style="" fill="#fbb253" data-original="#fbb253" class=""></path><path d="m60 12.34-10.06 3.48L32 22l-17.94-6.18L3 12 32 2l29 10-1 .34z" style="" fill="#555b6b" data-original="#555b6b" class=""></path><path d="M50 16v11s-3.27 5-18 5-18-5-18-5V16l.06-.18L32 22l17.94-6.18Z" style="" fill="#393d48" data-original="#393d48" class=""></path><path d="M25 12a10 10 0 0 1 7.758-9.739L32 2 3 12l11.06 3.82L32 22l.759-.261A10 10 0 0 1 25 12Z" style="" fill="#393d48" data-original="#393d48" class=""></path><path d="M49.94 15.82 32 22l-17.94-6.18L14 16v11a5.115 5.115 0 0 0 1 1 17.069 17.069 0 0 0 6.95 3A44.493 44.493 0 0 0 32 32c1.064 0 2.067-.026 3.015-.074A6.976 6.976 0 0 1 29 25.021v-2.054L32 24l17.94-6.18.06-.02V16Z" style="" fill="#2b2b37" data-original="#2b2b37" class=""></path><path d="m62.95 27.93-.3-.8A2 2 0 0 1 59 26l1-6-2.95 7.93a1.691 1.691 0 0 0 1.7 2.07h2.5a1.691 1.691 0 0 0 1.7-2.07Z" style="" fill="#ed9b52" data-original="#ed9b52" class=""></path><path d="M5 37h2a2.006 2.006 0 0 0-2 2v14a2.006 2.006 0 0 0 2 2H5a4.269 4.269 0 0 1-4-4.5v-9A4.269 4.269 0 0 1 5 37ZM58 37h2a3 3 0 0 0-3 3v12a3 3 0 0 0 3 3h-5a2.006 2.006 0 0 1-2-2V39a2.006 2.006 0 0 1 2-2Z" style="" fill="#fbb253" data-original="#fbb253" class=""></path><path d="M63 40v12a3 3 0 0 1-6 0V40a3 3 0 0 1 6 0Z" style="" fill="#bc9471" data-original="#bc9471" class=""></path><path d="M61 52V40a2.963 2.963 0 0 0-2-2.816A2.987 2.987 0 0 0 57 40v12a2.986 2.986 0 0 0 2 2.817A2.986 2.986 0 0 0 61 52Z" style="" fill="#a37c5e" data-original="#a37c5e" class=""></path><path d="M26.01 49.91 26 50v5H7a2.006 2.006 0 0 1-2-2V39a2.006 2.006 0 0 1 2-2h19v7l.01.09a1.111 1.111 0 0 0-1.01 1.1 1.071 1.071 0 0 0 .5.9 1.078 1.078 0 0 1 0 1.82 1.09 1.09 0 0 0 .51 2ZM38 37h17a2.006 2.006 0 0 0-2 2v14a2.006 2.006 0 0 0 2 2H38v-5l-.01-.09a1.111 1.111 0 0 0 1.01-1.1 1.071 1.071 0 0 0-.5-.9 1.075 1.075 0 0 1 0-1.82 1.09 1.09 0 0 0-.51-2L38 44Z" style="" fill="#fceee0" data-original="#fceee0" class=""></path><path d="M37.99 44.09a1.09 1.09 0 0 1 .51 2 1.075 1.075 0 0 0 0 1.82 1.071 1.071 0 0 1 .5.9 1.111 1.111 0 0 1-1.01 1.1.554.554 0 0 1-.18.02h-.05a1.107 1.107 0 0 0-1.06 1.47 1.058 1.058 0 0 1 .07.38 1.156 1.156 0 0 1-1.86.86 1.173 1.173 0 0 0-1.81.57 1.161 1.161 0 0 1-2.2 0 1.173 1.173 0 0 0-1.81-.57 1.141 1.141 0 0 1-.7.24 1.115 1.115 0 0 1-1.09-1.48.971.971 0 0 0 .07-.37 1.129 1.129 0 0 0-1.18-1.1h-.04a.318.318 0 0 1-.14-.02 1.09 1.09 0 0 1-.51-2 1.078 1.078 0 0 0 0-1.82 1.071 1.071 0 0 1-.5-.9 1.111 1.111 0 0 1 1.01-1.1.554.554 0 0 1 .18-.02h.05a1.107 1.107 0 0 0 1.06-1.47 1.058 1.058 0 0 1-.07-.38 1.156 1.156 0 0 1 1.86-.86 1.173 1.173 0 0 0 1.81-.57 1.161 1.161 0 0 1 2.2 0 1.173 1.173 0 0 0 1.81.57 1.141 1.141 0 0 1 .7-.24 1.115 1.115 0 0 1 1.09 1.48.971.971 0 0 0-.07.37 1.129 1.129 0 0 0 1.18 1.1h.04a.318.318 0 0 1 .14.02ZM34 47a2 2 0 1 0-2 2 2.006 2.006 0 0 0 2-2Z" style="" fill="#2a9bff" data-original="#7d7cda" class="" opacity="1"></path><path d="M38 55v7l-6-3-6 3V50l.01-.09a.318.318 0 0 0 .14.02h.04a1.129 1.129 0 0 1 1.18 1.1.971.971 0 0 1-.07.37 1.115 1.115 0 0 0 1.09 1.48 1.141 1.141 0 0 0 .7-.24 1.173 1.173 0 0 1 1.81.57 1.161 1.161 0 0 0 2.2 0 1.173 1.173 0 0 1 1.81-.57 1.156 1.156 0 0 0 1.86-.86 1.058 1.058 0 0 0-.07-.38 1.107 1.107 0 0 1 1.06-1.47h.05a.554.554 0 0 0 .18-.02L38 50ZM38 37v7l-.01.09a.318.318 0 0 0-.14-.02h-.04a1.129 1.129 0 0 1-1.18-1.1.971.971 0 0 1 .07-.37 1.115 1.115 0 0 0-1.09-1.48 1.141 1.141 0 0 0-.7.24 1.173 1.173 0 0 1-1.81-.57 1.161 1.161 0 0 0-2.2 0 1.173 1.173 0 0 1-1.81.57 1.156 1.156 0 0 0-1.86.86 1.058 1.058 0 0 0 .07.38 1.107 1.107 0 0 1-1.06 1.47h-.05a.554.554 0 0 0-.18.02L26 44v-7Z" style="" fill="#fbb253" data-original="#fbb253" class=""></path><circle cx="32" cy="47" r="2" style="" fill="#d64379" data-original="#d64379" class=""></circle><path d="M5 53V39a2.006 2.006 0 0 1 2-2H6a3 3 0 0 0-3 3v8a1 1 0 0 1-1 1H1v1.5A4.269 4.269 0 0 0 5 55h2a2.006 2.006 0 0 1-2-2ZM55 47v-7a3 3 0 0 1 3-3h-3a2.006 2.006 0 0 0-2 2v14a2.006 2.006 0 0 0 2 2h5a3 3 0 0 1-3-3v-3a2 2 0 0 1-2-2Z" style="" fill="#ed9b52" data-original="#ed9b52" class=""></path><path d="M26.01 44.09 26 44v-7h-3v10a2 2 0 0 1-2 2H5v4a2.006 2.006 0 0 0 2 2h19v-5l.01-.09a1.09 1.09 0 0 1-.51-2 1.078 1.078 0 0 0 0-1.82 1.071 1.071 0 0 1-.5-.9 1.111 1.111 0 0 1 1.01-1.1ZM53 53v-4h-9a2 2 0 0 1-2-2v-6a4 4 0 0 1 4-4h-8v7l-.01.09a1.09 1.09 0 0 1 .51 2 1.075 1.075 0 0 0 0 1.82 1.071 1.071 0 0 1 .5.9 1.111 1.111 0 0 1-1.01 1.1L38 50v5h17a2.006 2.006 0 0 1-2-2Z" style="" fill="#e3d0c2" data-original="#e3d0c2" class=""></path><path d="M30.9 53.21a1.173 1.173 0 0 0-1.81-.57 1.141 1.141 0 0 1-.7.24 1.115 1.115 0 0 1-1.09-1.48.971.971 0 0 0 .07-.37 1.129 1.129 0 0 0-1.18-1.1h-.04a.318.318 0 0 1-.14-.02L26 50v12l6-3v-5a1.114 1.114 0 0 1-1.1-.79ZM26 37v7l.01.09a.554.554 0 0 1 .18-.02h.05a1.107 1.107 0 0 0 1.06-1.47 1.058 1.058 0 0 1-.07-.38 1.156 1.156 0 0 1 1.86-.86 1.173 1.173 0 0 0 1.81-.57A1.114 1.114 0 0 1 32 40v-3Z" style="" fill="#ed9b52" data-original="#ed9b52" class=""></path><path d="m2.674 12.945 29 10a.994.994 0 0 0 .652 0L49 17.2v9.44c-.826.881-4.864 4.36-17 4.36-12.163 0-16.192-3.5-17-4.357V19h-2v8a1.007 1.007 0 0 0 .163.548C13.309 27.771 16.905 33 32 33s18.691-5.229 18.837-5.452A1.007 1.007 0 0 0 51 27V16.506l8-2.759v6.073l-2.915 7.856a2.6 2.6 0 0 0 .465 2.258A2.748 2.748 0 0 0 58.745 31h2.51a2.748 2.748 0 0 0 2.2-1.066 2.635 2.635 0 0 0 .435-2.354L61 19.82v-6.762l.326-.113a1 1 0 0 0 0-1.89l-29-10a1 1 0 0 0-.652 0l-29 10a1 1 0 0 0 0 1.89Zm59.193 15.766a.759.759 0 0 1-.612.289h-2.51a.759.759 0 0 1-.612-.289.6.6 0 0 1-.143-.434L60 22.868l1.978 5.314a.6.6 0 0 1-.111.529ZM32 3.058 57.933 12 32 20.942 6.067 12ZM12 36h2v2h-2z" fill="#000000" opacity="1" data-original="#000000" class=""></path><path d="M60 36H16v2h9v5.417a2.064 2.064 0 0 0-.046 3.508v.15a2.06 2.06 0 0 0 .046 3.5V54H7a1 1 0 0 1-1-1V39a1 1 0 0 1 1-1h3v-2H5a5.274 5.274 0 0 0-5 5.5v9A5.274 5.274 0 0 0 5 56h20v6a1 1 0 0 0 1.447.9L32 60.118l5.553 2.782A1 1 0 0 0 39 62V50.583a2.084 2.084 0 0 0 .9-1.145A2.165 2.165 0 0 0 39 47a.089.089 0 0 1 .05-.075 2.066 2.066 0 0 0 .857-2.363 2.042 2.042 0 0 0-.9-1.139V38h13.177A2.966 2.966 0 0 0 52 39v14a2.966 2.966 0 0 0 .184 1H41v2h19a4 4 0 0 0 4-4V40a4 4 0 0 0-4-4ZM2 50.5v-9a3.466 3.466 0 0 1 2.132-3.333A2.98 2.98 0 0 0 4 39v14a2.98 2.98 0 0 0 .132.833A3.466 3.466 0 0 1 2 50.5Zm26.275-8.338a.173.173 0 0 1 .221 0 2.186 2.186 0 0 0 1.983.314 2.132 2.132 0 0 0 1.373-1.388c.006-.022.026-.086.148-.086s.142.064.148.086a2.132 2.132 0 0 0 1.373 1.388 2.2 2.2 0 0 0 1.985-.314c.088-.068.169-.036.255.092a2.062 2.062 0 0 0 .259 1.924 2.242 2.242 0 0 0 1.821.9.134.134 0 0 1 .154.086c.011.035.014.054-.047.093a2.079 2.079 0 0 0 0 3.494c.061.039.058.058.047.093a.138.138 0 0 1-.154.086 2.218 2.218 0 0 0-1.821.9 2.326 2.326 0 0 0-.3 2.014.175.175 0 0 1-.221 0 2.195 2.195 0 0 0-1.983-.314 2.132 2.132 0 0 0-1.373 1.388c-.006.022-.026.086-.148.086s-.142-.064-.148-.086a2.132 2.132 0 0 0-1.373-1.388 2.2 2.2 0 0 0-1.985.314c-.088.067-.168.037-.255-.092a2.062 2.062 0 0 0-.259-1.924 2.281 2.281 0 0 0-1.821-.9c-.064 0-.13-.007-.154-.086-.011-.035-.014-.054.047-.093a2.079 2.079 0 0 0 0-3.494c-.061-.039-.058-.058-.047-.093a.129.129 0 0 1 .154-.086 2.214 2.214 0 0 0 1.821-.9 2.326 2.326 0 0 0 .3-2.014Zm4.172 15.943a1 1 0 0 0-.894 0L27 60.382v-7.021c.028.023.044.054.073.076a2.166 2.166 0 0 0 2.609.012.183.183 0 0 1 .171-.023.124.124 0 0 1 .086.076 2.167 2.167 0 0 0 4.122 0 .124.124 0 0 1 .086-.076.174.174 0 0 1 .169.023 2.175 2.175 0 0 0 2.611-.012c.029-.022.045-.053.073-.076v7.021ZM37 40.639c-.028-.023-.044-.054-.073-.076a2.171 2.171 0 0 0-2.609-.012.186.186 0 0 1-.171.023.124.124 0 0 1-.086-.076 2.167 2.167 0 0 0-4.122 0 .124.124 0 0 1-.086.076.182.182 0 0 1-.169-.023 2.175 2.175 0 0 0-2.611.012c-.029.022-.045.053-.073.076V38h10ZM55 54a1 1 0 0 1-1-1V39a1 1 0 0 1 1-1h1.556A3.959 3.959 0 0 0 56 40v12a3.959 3.959 0 0 0 .556 2H55Zm7-2a2 2 0 0 1-4 0V40a2 2 0 0 1 4 0Z" fill="#000000" opacity="1" data-original="#000000" class=""></path><path d="M32 50a3 3 0 1 0-3-3 3 3 0 0 0 3 3Zm0-4a1 1 0 1 1-1 1 1 1 0 0 1 1-1Z" fill="#000000" opacity="1" data-original="#000000" class=""></path></g></g></svg>