<?xml version="1.0" encoding="UTF-8"?><svg id="a" xmlns="http://www.w3.org/2000/svg" viewBox="0 0 700.32 507.71"><path d="M663.45,371.65c-50.7,102.23-270.07,190.23-488.07,95.75C49.99,413.06,2.56,282.1,.08,221.53c-1.95-47.63,33.56-98.42,55-120.24C100.64,54.91,343.84-2.86,399.38,.11c78.42-2.2,127.34,65.86,189.07,69.1,43.89,2.31,175.31,100.17,75.01,302.44h-.01Z" style="fill:#adc6ff; fill-rule:evenodd;"/><path d="M173.26,120.89c13.4-6.64,29.4-7.82,43.63-3.24,3.58-6.87,8.84-12.85,15.21-17.27,1.23-.85,2.99-1.62,4.09-.61-.45,7.06-.89,14.14-.47,21.2,.32,5.5,1.17,10.96,1.25,16.47,.22,15.91-6.01,31.33-14.5,44.79,20.37,13.7,35.73,34.7,42.63,58.26-2.88,1.49-78.33,4.11-119.14,.85-.95,.64-1.83-.91-1.94-2.04-1.09-11.5-1.71-23.21,.68-34.51s8.09-22.28,17.51-28.97c-8.74-19.03-5.34-42.38-16.01-60.4-.63-1.07-1.17-2.74-.06-3.3,.41-.21,.9-.14,1.36-.07,7.43,1.26,14.52,4.53,20.3,9.37,1.49,1.25,3.73,.34,5.47-.53h-.01Z" style="fill:#fff; fill-rule:evenodd;"/><path d="M462.37,239.32s7.75-11.69,12.53-17.13c4.37-4.97,6.93-11.49,7.1-18.1-15.1-.6-30.12-3.09-44.6-7.41-2.22-.66-4.5-1.41-6.18-3-3.92-3.71-2.95-10.18-.93-15.19,2.45-6.08,6.02-11.7,10.47-16.51,1.52-1.65,3.17-3.23,4.17-5.24,1-2.01,1.21-4.59-.14-6.38-2.27-3.02-2.74-6.99-2.98-10.76-.24-3.77-.34-7.69-2.05-11.05s-5.6-5.98-9.21-4.88c-.88-1.34,.85-2.88,2.38-3.36,5.75-1.83,12.2-.23,17.24,3.09,5.04,3.32,8.87,8.18,12.15,13.24,1.28,1.98,3.45,4.3,5.54,3.21,14.28-7.42,31.71-8.5,46.81-2.9,2.1,.78,5.32,1.11,5.75-1.09,2.13-10.93,11.26-20.17,22.16-22.43-4.29,3.07-4.55,9.33-3.69,14.53,.86,5.21,2.37,10.75,.23,15.57-1.73,3.89,2.62,7.55,6.15,9.94,5.32,3.61,10.08,8.05,14.05,13.11,3.93,5,7.2,11.43,5.41,17.54-2.35,7.99-11.75,11.15-19.85,13.13-7.9,1.92-15.8,3.85-23.7,5.78-.15,7.71,2.61,15.43,7.59,21.31,4,4.72,9.8,9.58,8.53,15.63,2.66,4.22-22.32,4-74.94-.67v.02Z" style="fill:#fff; fill-rule:evenodd;"/><path d="M481.33,343.54c2.72,1.68,5.74,3.7,8.85,2.95,7.21-1.74,14.92-1.3,21.88,1.24,2.93,1.07,5.59-1.96,7.42-4.49,5.33-7.32,12.3-13.44,20.26-17.77,5.48,9-.07,21.45,4.7,30.85,7.38,14.55,5.42,33.33-4.8,46.04,10.73,10.48,18.02,24.42,20.52,39.21-1.28,.38-66.61,8.48-102.49-1.24-.4-10.42,3.36-20.95,10.27-28.76-10.26-12.08-15.26-28.47-13.5-44.22,.18-1.64,.42-3.39-.31-4.87-3.83-7.75-6.46-16.09-7.79-24.63-.08-.51-.14-1.07,.12-1.51,.36-.58,1.14-.71,1.82-.77,11.48-.94,23.24,1.9,33.04,7.96h0Z" style="fill:#fff; fill-rule:evenodd;"/><path d="M170.6,442.98c1.31-7.82,2.61-15.63,3.92-23.45,.34-2.03,.29-4.74-1.66-5.38-6.1-1.98-11.25-6.7-13.77-12.6-.79-1.86-3.24-2.52-5.18-1.97-1.94,.55-3.5,1.98-4.97,3.36,.84-3.28,3.85-5.89,7.22-6.24,1.14-1.93-.49-4.59-2.66-5.15s-4.45,.42-6.27,1.74c-.14-2.09,2.4-3.11,4.33-3.93,1.93-.82,3.81-3.41,2.16-4.71-.72-.57-1.73-.46-2.64-.34-2.61,.37-5.22,.75-7.83,1.12,.3-2.1,3.03-2.64,5.14-2.8,2.12-.16,4.85-1.19,4.61-3.3-.91-8.13,1.06-16.37,4.35-23.86,2.72-6.21-5.29-12.42-4.76-19.18,.04-.52,.16-1.1,.59-1.41,.5-.37,1.21-.22,1.81-.04,4.12,1.27,7.95,3.51,11.08,6.48,1.52,1.44,3.97,.46,5.88-.4,7.06-3.15,15.32-3.48,22.61-.89,6.58,2.33,12.41-8.92,18.92-6.43-1.66,5.47-3.33,10.95-4.99,16.42-.46,1.51-.89,3.24-.06,4.58,2.81,4.51,4.51,9.71,4.92,15.01,.29,3.73,1.01,8.78,4.74,9.07-1.63,.71-3.42,1.61-3.98,3.29s1.36,3.91,2.82,2.89c1.26-.88,3.29-.14,3.7,1.33-2.15-.21-4.49,.02-6.18,1.38-1.68,1.36-2.35,4.11-.92,5.74,3.13-1.29,6.83-1.12,9.84,.45-1.79,1.31-4.25,.93-6.46,.79-2.22-.13-4.92,.38-5.7,2.46-2.62,6.93-9.05,12.28-16.35,13.59-3.59,.65-4.17,5.51-3.87,9.14,.62,7.63,1.24,15.27,1.87,22.9-1.28,1.21-16.14,2.9-22.26,.3v.04Z" style="fill:#fff; fill-rule:evenodd;"/><path d="M448.29,335.58c11.48-.94,23.24,1.9,33.04,7.96,2.72,1.68,5.74,3.7,8.85,2.95,7.21-1.74,14.92-1.3,21.88,1.24,2.93,1.07,5.59-1.96,7.42-4.49,5.33-7.32,12.3-13.44,20.26-17.77,5.48,9-.07,21.45,4.7,30.85,7.38,14.55,5.42,33.33-4.8,46.04,10.73,10.48,18.02,24.42,20.52,39.21-1.28,.38-2.11-1.29-2.42-2.58-2.75-11.56-8.22-22.46-15.83-31.57-1.78-2.13-4.7-4.35-7.05-2.86-18.69,11.8-42.38,15.36-63.71,9.58-3.52-.95-6.02,3.32-7.15,6.79-2.11,6.47-4.21,12.93-6.32,19.4-.4-10.42,3.36-20.95,10.27-28.76-10.26-12.08-15.26-28.47-13.5-44.22,.18-1.64,.42-3.39-.31-4.87-3.83-7.75-6.46-16.09-7.79-24.63-.08-.51-.14-1.07,.12-1.51,.36-.58,1.14-.71,1.82-.77h0Zm46.58,20.72c-4.06,3.73-7.4,8.22-9.8,13.18-1.42-4.75-.65-10.11,2.05-14.27-3.65,1.36-7.03,3.45-9.88,6.1,0-3.96,2.02-7.86,5.24-10.17-1.39,.04-2.79,.08-4.18,.12,1.45-1.8,3.5-3.12,5.74-3.69-10.27-7.33-23.15-10.92-35.74-9.96,2.22,13.11,7.52,25.7,15.35,36.45-3.35-1.37-6.08-4.16-7.37-7.54-1.43,13.52,2.01,27.5,9.55,38.81,1.4,2.11,2.98,4.15,5.01,5.65,3.38,2.49,7.71,3.25,11.9,3.64,16.73,1.53,33.88-2.03,48.62-10.07,2.83-1.55,5.61-3.28,7.85-5.6,2.97-3.07,4.88-7.03,6.11-11.12,3.22-10.73,1.85-22.76-3.69-32.5-1,2.99-2,5.98-3,8.96-.42,1.26-2.3,2.58-2.66,1.3,4.97-11.78,6.04-25.18,2.99-37.6-11.36,7.54-20.87,17.83-27.5,29.74-.28-2.77,.43-5.64,1.98-7.96-7.17,5.49-13.38,12.23-18.28,19.82-.89-4.36-.99-8.89-.28-13.28h0Z" style="fill:#00160a; fill-rule:evenodd;"/><path d="M462.37,239.32c.48-7.23,7.75-11.69,12.53-17.13,4.37-4.97,6.93-11.49,7.1-18.1-15.1-.6-30.12-3.09-44.6-7.41-2.22-.66-4.5-1.41-6.18-3-3.92-3.71-2.95-10.18-.93-15.19,2.45-6.08,6.02-11.7,10.47-16.51,1.52-1.65,3.17-3.23,4.17-5.24,1-2.01,1.21-4.59-.14-6.38-2.27-3.02-2.74-6.99-2.98-10.76-.24-3.77-.34-7.69-2.05-11.05s-5.6-5.98-9.21-4.88c-.88-1.34,.85-2.88,2.38-3.36,5.75-1.83,12.2-.23,17.24,3.09,5.04,3.32,8.87,8.18,12.15,13.24,1.28,1.98,3.45,4.3,5.54,3.21,14.28-7.42,31.71-8.5,46.81-2.9,2.1,.78,5.32,1.11,5.75-1.09,2.13-10.93,11.26-20.17,22.16-22.43-4.29,3.07-4.55,9.33-3.69,14.53,.86,5.21,2.37,10.75,.23,15.57-1.73,3.89,2.62,7.55,6.15,9.94,5.32,3.61,10.08,8.05,14.05,13.11,3.93,5,7.2,11.43,5.41,17.54-2.35,7.99-11.75,11.15-19.85,13.13-7.9,1.92-15.8,3.85-23.7,5.78-.15,7.71,2.61,15.43,7.59,21.31,4,4.72,9.8,9.58,8.53,15.63-2.7-6.43-7.77-11.52-11.85-17.19-4.07-5.67-7.28-12.76-5.44-19.49-3.61-1.29-7.39,1.29-10.12,3.98s-5.6,5.86-9.43,6.07c-6.3,.35-10.23-7.33-16.39-8.71-.14,4.12-1.22,8.21-3.13,11.86-2.03,3.89-4.95,7.23-7.84,10.53-3.58,4.09-7.17,8.18-10.75,12.27l.02,.03Zm5.87-97.76c-3.83,1.86,2.1,9.14-1.33,11.67-1.76-9.57-6.76-18.51-13.99-25.02-4.69-4.23-10.92-7.56-17.13-6.39,3.63,1.43,5.84,5.2,6.79,8.98s.92,7.74,1.58,11.58c1.16,6.76,4.55,13.13,9.51,17.88-2.26-.03-4.45-1.42-5.43-3.45-6.95,6.25-12.53,14.01-16.25,22.58-1.47,3.38-2.61,7.42-.8,10.62,1.53,2.71,4.7,3.96,7.66,4.92,10.65,3.45,21.72,5.57,32.89,6.3,6.67,.44,13.88,.55,19.21,4.58,1.94,1.47,3.53,3.39,5.64,4.59,2.11,1.2,5.09,1.45,6.73-.34,6.42-6.98,16.18-9.69,25.51-11.4,9.33-1.72,19.06-2.87,27.19-7.75,3.05-1.83,5.94-4.37,6.93-7.79,1.34-4.65-1.16-9.5-3.99-13.43-5.71-7.92-13.13-14.59-21.61-19.41-.37,1.47-1.28,2.79-2.51,3.67-.4-1.66,.33-3.36,.91-4.97,3.6-9.93,1.96-20.9,.27-31.33-11.04,6.37-16.77,20.69-13.18,32.92-2.1,.39-3.1-2.56-2.9-4.69,.2-2.13,.38-4.91-1.6-5.74-15.88-6.66-34.62-6.13-50.1,1.4v.02Z" style="fill:#00160a; fill-rule:evenodd;"/><path d="M175.79,368.62c1.11,1.87,1.23,4.29,.32,6.27-.49,1.05-2.12,1.01-2.95,.2-.82-.81-1.04-2.04-1.2-3.18-.15-1.03-.27-2.13,.12-3.09,.4-.97,1.5-1.73,2.48-1.37,.54,.2,.93,.68,1.23,1.17h0Z" style="fill:#00160a; fill-rule:evenodd;"/><path d="M192.86,442.68c-3.51-8.91-4.68-18.74-3.37-28.23-3.31,3.62-9.42,4.24-13.38,1.36,.95,9.34-1,18.95-5.5,27.18,1.31-7.82,2.61-15.63,3.92-23.45,.34-2.03,.29-4.74-1.66-5.38-6.1-1.98-11.25-6.7-13.77-12.6-.79-1.86-3.24-2.52-5.18-1.97-1.94,.55-3.5,1.98-4.97,3.36,.84-3.28,3.85-5.89,7.22-6.24,1.14-1.93-.49-4.59-2.66-5.15s-4.45,.42-6.27,1.74c-.14-2.09,2.4-3.11,4.33-3.93,1.93-.82,3.81-3.41,2.16-4.71-.72-.57-1.73-.46-2.64-.34-2.61,.37-5.22,.75-7.83,1.12,.3-2.1,3.03-2.64,5.14-2.8,2.12-.16,4.85-1.19,4.61-3.3-.91-8.13,1.06-16.37,4.35-23.86,2.72-6.21-5.29-12.42-4.76-19.18,.04-.52,.16-1.1,.59-1.41,.5-.37,1.21-.22,1.81-.04,4.12,1.27,7.95,3.51,11.08,6.48,1.52,1.44,3.97,.46,5.88-.4,7.06-3.15,15.32-3.48,22.61-.89,6.58,2.33,12.41-8.92,18.92-6.43-1.66,5.47-3.33,10.95-4.99,16.42-.46,1.51-.89,3.24-.06,4.58,2.81,4.51,4.51,9.71,4.92,15.01,.29,3.73,1.01,8.78,4.74,9.07-1.63,.71-3.42,1.61-3.98,3.29s1.36,3.91,2.82,2.89c1.26-.88,3.29-.14,3.7,1.33-2.15-.21-4.49,.02-6.18,1.38-1.68,1.36-2.35,4.11-.92,5.74,3.13-1.29,6.83-1.12,9.84,.45-1.79,1.31-4.25,.93-6.46,.79-2.22-.13-4.92,.38-5.7,2.46-2.62,6.93-9.05,12.28-16.35,13.59-3.59,.65-4.17,5.51-3.87,9.14,.62,7.63,1.24,15.27,1.87,22.9v.03Zm2.89-54.87c-1.15,1.05-3.13,2.15-3.99,.84,4.92-5.28,11.68-8.83,18.82-9.89,1.46-.22,1.78-2.16,1.68-3.63-.51-7.23-2.59-14.35-6.04-20.72-.52,1.34-2.16,2.13-3.53,1.69,4.08-6.14,6.77-13.2,7.8-20.49-6.54,2.71-12.35,7.16-16.67,12.76-.6-2.15,.36-4.64,2.25-5.83-8.62-3.16-18.53-2.64-26.77,1.43,.21,1.34,.43,2.67,.64,4.01-4.04-4.89-9.31-8.77-15.18-11.17,1.91,7.13,4.69,14.03,8.27,20.49-1.55,.34-3.24-1.01-3.26-2.6-3.24,7.06-5.03,14.79-5.21,22.56-.05,2.23,.85,5.26,3.07,5.02,6.07-.63,12.36,1.48,16.82,5.64-4.14-1.2-8.28-2.39-12.43-3.59-1.78-.52-3.83-1-5.39,0s-1.38,4.1,.48,4.14c4.86-1.42,10.35-.47,14.45,2.5-4.8-1.07-9.81-1.14-14.64-.2-1.2,2.9,2.88,5.18,6.03,5.16,3.14-.01,7.08-.35,8.61,2.39-3.85-.2-7.71-.4-11.56-.6,1.06,6.87,6.96,12.7,13.84,13.67,1.31,.19,2.17,1.41,3.15,2.3,3.89,3.56,11.35,1.14,12.4-4.02,8.95-.27,17.48-6.23,20.82-14.54-4.54,.64-9.08,1.29-13.62,1.93,1.06-2.05,3.59-2.84,5.88-3.08,2.3-.24,4.72-.16,6.76-1.25s3.36-3.96,1.9-5.75c-5.67,1.99-11.35,3.99-17.02,5.98,1.89-2.81,4.86-4.88,8.16-5.66,2.3-.54,4.74-.49,6.94-1.35,2.2-.86,4.16-3.13,3.54-5.4-6.27,.4-12.38,3-17.02,7.23l.02,.03Z" style="fill:#00160a; fill-rule:evenodd;"/><path d="M190.07,364.29c-.76-.04-1.68-.19-1.96-.9,1.85-2.1,5.87-1.43,6.95,1.16-1.66-.09-3.32-.17-4.98-.26h0Z" style="fill:#00160a; fill-rule:evenodd;"/><path d="M187.22,403.68c.6,.72,.47,1.84-.09,2.59s-1.45,1.17-2.35,1.41c-1.31,.36-2.86,.35-3.85-.57-1.44-1.33-.75-4.05,1.02-4.89,1.77-.85,4.01-.05,5.27,1.46h0Zm-5.16,.41c-.45,.84,.51,1.87,1.46,1.87s1.77-.63,2.51-1.23c-.97-1.06-2.69-1.32-3.93-.6l-.03-.04h-.01Z" style="fill:#00160a; fill-rule:evenodd;"/><path d="M192.2,374.98c-1.17,.59-2.65-.36-3.09-1.59s-.15-2.6,.19-3.86c.19-.72,.45-1.51,1.1-1.88,.87-.49,2.04,.07,2.54,.94,.51,.86,.53,1.92,.54,2.92,0,1.31-.13,2.89-1.29,3.47h0Z" style="fill:#00160a; fill-rule:evenodd;"/><path d="M171.16,403.74c3.52,.45,7.22-1.25,9.17-4.21s2.04-7.04,.23-10.09c-.96-1.61-2.41-3.62-1.25-5.1,.59-.75,1.63-.94,2.58-.99,1.04-.06,2.14,0,3.01,.58,.87,.57,1.37,1.8,.85,2.7-2.09,3.54-1.77,8.35,.77,11.58,2.54,3.24,7.13,4.69,11.06,3.52,.72-.21,1.9-.14,1.76,.6-.04,.18-.16,.33-.29,.46-2.23,2.3-6.08,1.92-8.95,.5-2.66-1.32-4.95-3.39-6.52-5.92-1.41,2.4-2.86,4.86-5.02,6.62-2.15,1.76-5.19,2.71-7.78,1.67-.71-.28-1.44-1.14-.93-1.7,.31-.34,.84-.28,1.3-.22h0Z" style="fill:#00160a; fill-rule:evenodd;"/><path d="M177.39,363.43c.18,.55-.6,.89-1.18,.95-1.1,.12-2.19,.24-3.29,.36-.85,.09-2.06-.16-1.97-1,1.51-1.59,4.17-1.92,6.02-.75,.18,.11,.35,.25,.42,.45h0Z" style="fill:#00160a; fill-rule:evenodd;"/><path d="M473.2,424.9c-.22-2.08-.17-4.53,1.48-5.82,1.45-1.13,3.51-.86,5.32-.54,2.88,.51,5.75,1.03,8.63,1.54,2.25,.4,4.65,.79,6.74-.13,1.67-.73,3.58,.05,5.4,.07,1.49,.01,2.92-.5,4.32-1,4.29-1.54,8.59-3.08,12.88-4.62,.79-.28,1.67-.57,2.44-.25,1.18,.48,1.44,2,1.53,3.27,.1,1.45,.21,2.9,.31,4.34,.13,1.77,.24,3.61-.45,5.25-.69,1.63-2.47,2.95-4.18,2.51-4.43-1.14-8.94-1.99-13.49-2.53-.91-.11-2.11-.04-2.41,.83-.69,2-3.55,1.68-5.63,1.33-4.78-.81-9.87,.45-13.72,3.39-1.03,.79-2,1.7-3.19,2.22s-2.71,.54-3.66-.35c-.64-.61-.9-1.51-1.11-2.37-.56-2.35-.97-4.73-1.23-7.13h.02Zm21.56-1.67c-5.8-1.1-11.63-2.05-17.48-2.85-.92-.13-1.78,.64-2.09,1.52-.3,.88-.19,1.85-.05,2.77,.29,2.02,.65,4.04,1.07,6.04,.13,.63,.28,1.28,.71,1.76s1.22,.69,1.71,.29c3.17-2.58,6.92-4.43,10.9-5.38,1.19-.29,2.43-.5,3.49-1.13s1.9-1.79,1.74-3.01h0Zm16.51-4.49c-3.09,.85-6.37,1.82-8.44,4.26-.63,.74-.76,2.32,.21,2.28,4.85-.18,9.74,.57,14.3,2.22,.97,.35,2.07-.35,2.52-1.27,.46-.92,.44-2,.42-3.03-.05-1.94-.09-3.89-.14-5.83,0-.31-.05-.68-.33-.82-.19-.09-.41-.04-.61,.02-2.64,.73-5.29,1.46-7.93,2.18h0Zm-15.08,7.2c.14,.46,.33,.92,.69,1.23,.88,.76,2.38,.22,2.97-.79s.53-2.26,.4-3.42c-.16-1.39-2.24-1.85-3.29-.92-1.05,.92-1.16,2.56-.77,3.9h0Z" style="fill:#00160a; fill-rule:evenodd;"/><path d="M530.75,388.67c-2.57-.31-5.22,.09-7.58,1.15-.61,.27-1.2-.63-.94-1.24s.95-.91,1.58-1.13c3.64-1.28,8.27-1.92,10.87,.94-1.11,.76-2.6,.44-3.93,.28h0Z" style="fill:#00160a; fill-rule:evenodd;"/><path d="M502.71,402.29c.06,1.98-1.82,3.6-3.77,3.95-1.95,.35-3.94-.23-5.84-.8-1.65-.5-2.17-2.82-1.3-4.32,.87-1.49,2.64-2.23,4.34-2.51,1.4-.23,2.9-.21,4.19,.39s2.33,1.86,2.38,3.29h0Zm-9.16,.48c.09,.59,.79,.85,1.37,.99,1.13,.28,2.3,.56,3.46,.39,1.15-.17,2.31-.91,2.61-2.04-1.72-1.77-4.78-2.02-6.76-.54-.39,.29-.76,.71-.68,1.19h0Z" style="fill:#00160a; fill-rule:evenodd;"/><path d="M472.99,392.17c-3.43,0-6.85,.01-10.28,.02-.72,0-1.74-.38-1.5-1.06,3.58-1.56,7.73-1.75,11.44-.52,.68,.23,1.42,1.15,.79,1.48-.14,.07-.29,.07-.45,.07h0Z" style="fill:#00160a; fill-rule:evenodd;"/><path d="M510.92,379.12c.2-1.23,.53-2.64,1.66-3.15,1.09-.49,2.42,.21,3.04,1.22,.63,1.02,.73,2.26,.82,3.45-1.55,.14-3.09,.28-4.64,.42-.83,.08-1.02-1.13-.89-1.95h.01Z" style="fill:#00160a; fill-rule:evenodd;"/><path d="M524.34,393.76c-.5-.1-1.01-.21-1.43-.51-.3-.21-.53-.51-.66-.86,3.49-1.47,7.94-.14,10.05,3.01-2.65-.55-5.3-1.1-7.96-1.65h0Z" style="fill:#00160a; fill-rule:evenodd;"/><path d="M517.15,372.47c.89-1.42,3.1-.75,4.44,.25,1.32,.99,2.5,2.17,3.5,3.48-.04,.77-1.25,.6-1.9,.18-2.02-1.3-4.03-2.61-6.05-3.91h.01Z" style="fill:#00160a; fill-rule:evenodd;"/><path d="M468.69,395.91c1.41-.48,2.83-.97,4.24-1.45,.57-.19,1.17-.39,1.75-.25s1.08,.77,.86,1.33c-2.78,1.04-5.59,1.98-8.43,2.82-.45-.39-.36-1.16,.03-1.61,.39-.45,.98-.66,1.54-.85h.01Z" style="fill:#00160a; fill-rule:evenodd;"/><path d="M480.41,378.09c.54,.36,.82,1,1.07,1.6,.33,.8,.67,1.66,.49,2.51-.18,.85-1.13,1.58-1.91,1.2-.88-.43-1.84,1.15-2.71,.69-.41-.22-.49-.76-.52-1.22-.08-1.25-.15-2.57,.45-3.67,.59-1.1,2.1-1.8,3.13-1.11h0Z" style="fill:#00160a; fill-rule:evenodd;"/><path d="M469.63,377.54c1.3-3.2,5.04-5.21,8.42-4.52,.46,.09,1.03,.44,.87,.88-.09,.23-.35,.34-.58,.43-2.9,1.07-5.81,2.14-8.71,3.21h0Z" style="fill:#00160a; fill-rule:evenodd;"/><path d="M486.93,393.72c-.73,.09-1.66,.02-1.93-.66,.49-.39,1.08-.81,1.69-.66,.61,.14,.83,1.21,.22,1.34h.03v-.02Z" style="fill:#00160a; fill-rule:evenodd;"/><path d="M501.54,392.67c.77-.13,1.17-1.21,.68-1.81-.49-.6-1.63-.41-1.9,.32s.46,1.62,1.23,1.49h-.01Z" style="fill:#00160a; fill-rule:evenodd;"/><path d="M484.48,397.88c-1.08-.16-2.46-.86-2.13-1.89,1.19-.68,2.66-.1,4.01,.1s3.18-.54,2.96-1.89c.23,.57,.45,1.14,.68,1.71,1.38-.37,2.66-1.07,3.71-2.04,.59-.55,1.12-1.48,.6-2.09-1.22-1.41,.1-4.06,1.97-3.93s2.81,2.93,1.4,4.16c-.36,.32,0,.9,.38,1.21,2.63,2.11,6.3,2.87,9.56,1.96,1.45-.41,3.31-1,4.24,.19-4.64,3.35-11.69,2.77-15.72-1.3-2.27,3.7-7.36,4.45-11.65,3.83v-.02Z" style="fill:#00160a; fill-rule:evenodd;"/><path d="M506.34,391.52c.45,.2,.52,.93,.12,1.21s-1.06-.02-1.1-.51c.17-.36,.56-.61,.96-.61l.02-.09h0Z" style="fill:#00160a; fill-rule:evenodd;"/><path d="M489.49,392.03c.47,.72,1.84-.18,1.37-.89-.47-.72-1.84,.17-1.37,.89Z" style="fill:#00160a; fill-rule:evenodd;"/><path d="M450.5,178.02c-1.8,.2-3.74,.64-5.34-.22,1.89-1.77,4.7-2.12,7.29-1.99,4.38,.22,8.71,1.55,12.46,3.84-.79,1.45-2.96,.74-4.45,.04-3.08-1.45-6.57-2.03-9.96-1.66h0Z" style="fill:#00160a; fill-rule:evenodd;"/><path d="M513.83,162.96c-.29-1.08-.3-1.97,.69-2.5,1.44-.77,5.98-.7,6.47,.42s-1.38,6.27-4,6.27c-1.05,0-2.87-3.11-3.16-4.19Z" style="fill:#00160a; fill-rule:evenodd;"/><path d="M542.65,175.72c-5.64,.35-11.22,1.58-16.49,3.64-.72,.28-1.83,.39-2-.37,.92-1.54,2.76-2.24,4.49-2.74,3.86-1.13,7.84-1.87,11.85-2.2,.58-.05,1.2-.08,1.71,.2,.51,.29,.8,1.01,.44,1.47h0Z" style="fill:#00160a; fill-rule:evenodd;"/><path d="M543.79,182.04c-4.46,.4-8.92,.8-13.38,1.2-.81,.07-2.03-.47-1.56-1.14,4.59-1.43,9.4-2.13,14.21-2.06,1.19,.02,2.57,.19,3.19,1.2-.63,.61-1.58,.72-2.46,.8h0Z" style="fill:#00160a; fill-rule:evenodd;"/><path d="M478.21,167.52c-.95,1.11-2.86,.79-3.87-.26-1.01-1.05-1.36-2.56-1.66-3.98-.16-.74-.3-1.59,.15-2.21,.46-.65,6.94-.7,7.24-.14,.31,.56,.12,1.03,0,1.46-.21,.79-1.17,4.33-1.85,5.13h0Z" style="fill:#00160a; fill-rule:evenodd;"/><path d="M444.43,185.16c5.62-2.32,11.9-3.02,17.9-2.01,.64,.11,1.35,.28,1.71,.82,.36,.54,.01,1.5-.63,1.41-6.97-.99-14.53-.92-20.46,2.87-.62-.36-.67-1.3-.27-1.9,.4-.6,1.09-.92,1.75-1.19h0Z" style="fill:#00160a; fill-rule:evenodd;"/><path d="M485.72,190.71c-.29-.83,.33-1.85,1.21-1.98,.35,.23,.58,.63,.6,1.04-.27,.64-.99,1.07-1.68,1l-.12-.06h-.01Z" style="fill:#00160a; fill-rule:evenodd;"/><path d="M476.62,154.61c.97,0,2.31,.67,1.88,1.54-4.24,.25-8.42,1.37-12.21,3.27-.56-.06-.82-.8-.61-1.32s.73-.84,1.22-1.11c2.96-1.61,6.34-2.44,9.71-2.39h0Z" style="fill:#00160a; fill-rule:evenodd;"/><path d="M500.26,189.99c.62-.66,1.86-.55,2.35,.21-.48,.92-2.1,.83-2.47-.14l.12-.07Z" style="fill:#00160a; fill-rule:evenodd;"/><path d="M504.55,189.55c.43-.62,1.65-.08,1.47,.65-.18,.37-.58,.62-1,.62-.48-.18-.71-.82-.47-1.27h0Z" style="fill:#00160a; fill-rule:evenodd;"/><path d="M489.98,186.16c-.43,.62-1.65,.08-1.48-.65,.18-.37,.58-.62,1-.62,.48,.18,.71,.82,.47,1.27h.01Z" style="fill:#00160a; fill-rule:evenodd;"/><path d="M482.78,187.86c-.04,.72,.86,1.31,1.51,.98,.65-.33,.7-1.4,.09-1.8-.61-.4-1.57,.09-1.6,.82Z" style="fill:#00160a; fill-rule:evenodd;"/><path d="M501.15,187.41c.62,.46,1.66,0,1.76-.75,.09-.76-.82-1.45-1.53-1.15s-.84,1.43-.23,1.9Z" style="fill:#00160a; fill-rule:evenodd;"/><path d="M512.59,156.78c3.62-2.62,8.64-1.42,12.91-.11,.67,.21,1.51,.82,1.12,1.4-.23,.35-.74,.34-1.15,.29-4.29-.53-8.59-1.05-12.88-1.58h0Z" style="fill:#00160a; fill-rule:evenodd;"/><path d="M496.39,187.41c1.3,4.05,5.99,6.68,10.12,5.68,1.82-.44,3.9-1.43,5.39-.3-2.62,2.19-6.3,3.04-9.61,2.22-3.31-.82-6.17-3.29-7.47-6.44-2.56,3.57-6.63,6.03-10.99,6.64-.65,.09-1.39,.12-1.88-.32-.49-.43-.36-1.47,.29-1.52,3.6-.25,7.08-1.83,9.64-4.37,1.39-1.38,2.53-3.59,1.42-5.2-1.04-1.5-1.87-3.14-2.47-4.86-.22-.64-.39-1.4,.02-1.94,.3-.4,.83-.53,1.32-.65,1.48-.34,3.01-.68,4.5-.4s2.94,1.36,3.16,2.86c.47,3.17-4.44,5.54-3.46,8.59h.02Z" style="fill:#00160a; fill-rule:evenodd;"/><path d="M201.22,176.47c.32-.93,2.06-.61,2.03,.38-.36,.93-2.09,.59-2.07-.41l.05,.03h0Z" style="fill:#00160a; fill-rule:evenodd;"/><path d="M185.51,180.77c-.2-1-2.1-.62-1.9,.38s2.1,.62,1.9-.38Z" style="fill:#00160a; fill-rule:evenodd;"/><path d="M188.21,182.46c.46-.56,1.26-.82,1.96-.61,.23,.28,.3,.68,.18,1.03-.52,.21-1.03,.42-1.55,.63l-.66-.99,.06-.06h.01Z" style="fill:#00160a; fill-rule:evenodd;"/><path d="M188.44,180.1c-.35-.24-.58-.64-.62-1.06,.38-.78,1.71-.79,2.1,0-.36,.51-.88,.9-1.48,1.09v-.02h0Z" style="fill:#00160a; fill-rule:evenodd;"/><path d="M176.31,182.67c-.52,.67-1.68-.2-1.54-1.04s.92-1.38,1.58-1.91c1.41-1.13,2.55-2.6,4.09-3.55s3.74-1.22,5.03,.05c-3.61,1.15-6.85,3.44-9.16,6.44h0Z" style="fill:#00160a; fill-rule:evenodd;"/><path d="M171.9,173.53c2.09-1.96,4.7-3.37,7.48-4.05,.59-.15,1.24-.25,1.8,0,.56,.26,.91,1.02,.54,1.51-3.54,.63-6.88,2.38-9.4,4.95-.46,.47-1.33-.1-1.35-.75s.46-1.21,.94-1.65h0Z" style="fill:#00160a; fill-rule:evenodd;"/><path d="M198.4,177.11c-.06-.48,.76-.22,1.01,.2-.33,.5-.67,1-1,1.5-.7-.22-.73-1.42-.04-1.68l.04-.02h0Z" style="fill:#00160a; fill-rule:evenodd;"/><path d="M219.1,174.5c-3.03-.93-6.06-1.87-9.09-2.8-.71-.22-1.48-.49-1.84-1.14,4.18-.95,8.78,.17,12.05,2.94,.14,.12,.28,.25,.33,.42,.16,.62-.84,.76-1.45,.58h0Z" style="fill:#00160a; fill-rule:evenodd;"/><path d="M199.04,179.95c.34-.4,1.05-.39,1.38,.02,.32,.41,.16,1.11-.31,1.34-.7-.07-1.31-.7-1.35-1.41l.28,.05Z" style="fill:#00160a; fill-rule:evenodd;"/><path d="M216.96,181.07c-3.14-1.1-6.28-2.21-9.42-3.31-.26-.09-.53-.19-.69-.41-.36-.47,.06-1.21,.63-1.39s1.18,.02,1.74,.22c1.69,.59,3.38,1.19,5.08,1.78,1.45,.51,3.23,1.68,2.67,3.11h-.01Z" style="fill:#00160a; fill-rule:evenodd;"/><path d="M628.34,44.67c11.4,4.62,19.16,15.74,22.76,27.5,3.6,11.77,3.63,24.28,3.64,36.59,.04,91.16,.07,182.33,.11,273.49,0,13.34-.1,27.2-5.89,39.21-5.3,11.02-15.35,19.65-27.03,23.25-8.48,2.61-17.51,2.63-26.38,2.63-168.01-.03-336.03-.06-504.04-.09-8.37,0-17.32-.17-24.21-4.93-11.03-7.61-12.12-23.2-12.13-36.61-.03-104.16-.07-208.32-.1-312.48,0-7.74,.03-15.67,2.7-22.94,4.62-12.54,16.61-21.21,29.36-25.2,12.75-4,26.36-4.02,39.72-4,30.24,.03,60.48,.07,90.71,.1,129.07,.14,258.15,.28,387.22,.42,7.97,0,16.16,.06,23.54,3.05h.02ZM347.24,445.16c-.07-66.28-.14-132.56-.21-198.84-95.33,.04-190.67,.08-286,.12-.82,0-1.74,.04-2.3,.64-.53,.56-.56,1.41-.56,2.18-.04,55.62-.09,111.24-.13,166.86,0,2.9,0,5.82,.61,8.65,2.03,9.37,10.57,16.22,19.73,19.06s18.96,2.41,28.54,2.05c37.09-1.38,74.22-1.26,111.34-1.14,43,.14,86,.29,129,.43h-.02Zm2.45-198.56c.06,66.11,.11,132.21,.17,198.32,83.56-.08,167.12-.16,250.68-.23,6.28,0,12.64-.02,18.75-1.48,14.38-3.44,26.27-15.23,30.51-29.39,2.5-8.37,2.5-17.25,2.48-25.98-.11-47.19-.22-94.38-.32-141.57-100.75,.12-201.51,.23-302.26,.35v-.02Zm-.04-202.03c.09,66.28,.17,132.56,.26,198.83,99.84,0,199.67,0,299.51,.02,.83,0,1.79-.06,2.29-.72,.36-.47,.38-1.12,.38-1.71,.01-48.31,.03-96.62,.04-144.93,0-7.13,0-14.35-1.8-21.26-4.89-18.87-24.3-32.83-43.74-31.47-14.41,1.01-28.88,1.02-43.33,1.04-71.2,.07-142.41,.13-213.61,.2h0Zm-2.42,198.58c-.08-66.27-.16-132.54-.24-198.81-82.31-.03-164.63-.06-246.94-.09-19.41,0-37.73,15.27-41.2,34.37-.9,4.98-.9,10.07-.89,15.14,.08,49.81,.17,99.62,.25,149.43,96.34,.4,192.68,.39,289.02-.04Z" style="fill:#fff; fill-rule:evenodd;"/><path d="M196.07,177.12c-.59,1.53,.16,3.31,1.34,4.45,1.72,1.67,4.36,2.3,6.65,1.61,1.65-.5,3.64-1.56,4.86-.34-3.63,3.66-10.52,3.14-13.57-1.01-.95,2.48-3.13,4.46-5.69,5.16-2.56,.71-5.44,.12-7.53-1.52,1.53-1.27,3.81-.28,5.8-.27,2.11,0,4.17-1.28,5.08-3.18s.62-4.31-.71-5.95c-1.36-1.67-2.41-3.58-3.08-5.62-.16-.47-.29-.99-.14-1.46,.31-.97,1.56-1.2,2.57-1.25,2.09-.1,4.17-.16,6.26-.17,1,0,2.22,.13,2.64,1.04,.28,.6,.08,1.3-.17,1.92-.63,1.6-1.55,3.09-2.69,4.38-.61,.69-1.3,1.35-1.63,2.21h.01Z" style="fill:#00160a; fill-rule:evenodd;"/><path d="M213.93,136.34c-3.09-.57-6.34-.23-9.24,.98-.4,.17-.87,.35-1.26,.15-.47-.24-.52-.95-.23-1.4,.29-.44,.81-.68,1.31-.87,5.12-1.97,11.1-1.56,15.92,1.07-1.83,1.28-4.31,.47-6.51,.06h0Z" style="fill:#00160a; fill-rule:evenodd;"/><path d="M212.42,151.94c-.26,.51-.57,1.03-1.08,1.29-.76,.38-1.74,.02-2.26-.65-.52-.67-.64-1.58-.58-2.42,.13-1.73,1.62-3.67,3.26-3.08,1.75,.63,1.51,3.21,.66,4.86h0Z" style="fill:#00160a; fill-rule:evenodd;"/><path d="M182.45,148.98c.18,1.47-.47,3.12-1.81,3.74s-3.26-.22-3.4-1.7c-.05-.51,.1-1.02,.26-1.51,.46-1.43,1.4-3.12,2.9-2.99,1.15,.1,1.91,1.31,2.06,2.46h0Z" style="fill:#00160a; fill-rule:evenodd;"/><path d="M169.36,138.45c-.24-.77,.69-1.35,1.46-1.6,4.53-1.41,9.42-1.64,14.05-.64,.68,.15,1.43,.37,1.77,.98,.34,.61-.18,1.6-.84,1.39-4.55-1.5-9.61-1.41-14.11,.23-.83,.3-2.07,.48-2.33-.36h0Z" style="fill:#00160a; fill-rule:evenodd;"/><path d="M236.18,99.76c-.45,7.06-.89,14.14-.47,21.2,.32,5.5,1.17,10.96,1.25,16.47,.22,15.91-6.01,31.33-14.5,44.79,20.37,13.7,35.73,34.7,42.63,58.26-2.94-1.83-4.2-5.38-5.43-8.62-6.81-17.86-18.79-33.72-34.12-45.14-2.2-1.64-5.93-2.88-7.15-.42-2.75,5.55-6.8,10.45-11.75,14.18-1.79,1.35-3.8,2.69-5.2,4.39,0,.14,.02,.28,.02,.42,0,2.87-2.33,5.2-5.2,5.2-1.95,0-3.65-1.08-4.54-2.67-12.95-5.69-23.48-16.74-28.43-30-9.46,6.56-14.92,17.74-17.01,29.06-2.09,11.33-1.2,22.97-.31,34.45-.95,.64-1.83-.91-1.94-2.04-1.09-11.5-1.71-23.21,.68-34.51s8.09-22.28,17.51-28.97c-8.74-19.03-5.34-42.38-16.01-60.4-.63-1.07-1.17-2.74-.06-3.3,.41-.21,.9-.14,1.36-.07,7.43,1.26,14.52,4.53,20.3,9.37,1.49,1.25,3.73,.34,5.47-.53,13.4-6.64,29.4-7.82,43.63-3.24,3.58-6.87,8.84-12.85,15.21-17.27,1.23-.85,2.99-1.62,4.09-.61h-.03Zm-45.96,92.86c4.59,.4,9.26,.8,13.75-.2,10.28-2.28,17.65-11.38,22.36-20.79,5.39-10.78,8.41-22.75,8.79-34.8-3.32,2.67-6.65,5.35-9.97,8.02-1.97,1.58-4.12,3.53-4.08,6.06,.05,3.59-2.17,7.12-5.44,8.62s-7.39,.88-10.08-1.5c-3.03-2.69-4.75-7.57-8.79-7.92-4.76-.42-7.03,5.69-10.87,8.55-4.88,3.64-12.77,.91-15.21-4.68-.46-1.06-.3-2.95-1.36-3.6-3.39-2.06-7.13-2.14-11.55-1.99,.79,9.62,3.12,19.11,6.87,28.01,1.66,3.94,3.69,7.87,6.96,10.64,5.03,4.25,12.05,5.01,18.61,5.59h.01Zm27.6-72.8c-1.48,2.83-3.97,6.37-6.95,5.23,1.92-1.64,3.57-3.58,4.88-5.74-14.84-4.23-31.27-2.54-44.94,4.61,1.18,1.42,2.62,2.62,4.24,3.52-1.71,1.63-4.35-.37-5.97-2.09-5.51-5.86-13.04-9.78-21-10.93,3.27,5.24,6.29,15.63,9.06,31.15,4.49,1.02,7.51,1.54,9.06,1.57,1.78,.04,3.95-.15,4.73-1.75,2.06-4.23,7.21-6.7,11.79-5.65,4.59,1.05,8.16,5.51,8.17,10.21,2.98-1.95,6.96-2.26,10.2-.79,.34-4.01,3.37-7.64,7.25-8.69s8.33,.55,10.65,3.84c1.01,1.43,3.23,.38,4.57-.75,2.77-2.34,5.54-4.67,8.3-7.01,1.56-1.32,3.27-3.03,2.95-5.04-1.62-9.98-1.82-20.18-.6-30.22-6.85,4.74-12.53,11.16-16.39,18.54h0Zm-7.07,71.83c-6.66,4.52-15.45,3.74-23.44,2.77-4.37-.53-8.88-1.11-12.64-3.4-.77-.47-1.78-1.01-2.5-.45,4.48,5.58,10.27,10.1,16.78,13.09,.97,.44,2.39,.7,2.85-.26,1.05-2.21,4.25-3.02,6.24-1.6,1.61,1.16,3.84,.05,5.44-1.14,3.58-2.67,6.85-5.76,9.72-9.19-.42-.83-1.67-.34-2.44,.18h-.01Zm-37.77-37.49c2.01,3.39,6.59,4.99,10.27,3.58,3.68-1.41,6.03-5.65,5.26-9.51-.76-3.86-4.55-6.9-8.49-6.8-3.94,.1-7.57,3.32-8.13,7.22-.28,1.89,.12,3.87,1.09,5.51h0Zm30.59-5.86c-.47,2.8,.62,5.75,2.61,7.78,1.46,1.49,3.47,2.54,5.55,2.47,3.73-.14,6.44-3.7,7.59-7.25,.3-.93,.54-1.91,.35-2.86-.24-1.24-1.14-2.24-2.08-3.08-2.36-2.11-5.54-3.71-8.63-3-2.77,.64-4.92,3.15-5.39,5.95h0Z" style="fill:#00160a; fill-rule:evenodd;"/><g><rect x="163.33" y="72.39" width="61.04" height="65.03" style="fill:rgba(0,29,50,0);"/><path d="M193.83,112.62c1.93,.02,3.84-.47,6.22-1.55l22.11-10.1c1.46-.67,2.2-1.98,2.2-3.32s-.74-2.63-2.2-3.3l-22.11-10.1c-2.38-1.08-4.29-1.57-6.22-1.55-1.91-.02-3.82,.47-6.22,1.55l-22.09,10.1c-1.46,.67-2.2,1.98-2.2,3.3s.74,2.65,2.2,3.32l22.09,10.1c2.4,1.08,4.31,1.57,6.22,1.55Zm0-3.55c-1.48,0-2.94-.38-4.85-1.26l-20.68-9.41c-.4-.18-.58-.45-.58-.76,0-.29,.18-.56,.58-.74l20.68-9.41c1.91-.88,3.37-1.26,4.85-1.26s2.94,.38,4.87,1.26l20.68,9.41c.38,.18,.58,.45,.58,.74,0,.31-.2,.58-.58,.76l-20.68,9.41c-1.93,.88-3.37,1.26-4.87,1.26Zm-21.75,5.46c0,6.71,8.53,12.39,21.75,12.39s21.78-5.68,21.78-12.39v-11.85h-3.61v11.85c0,4.69-7.09,9-18.16,9s-18.14-4.31-18.14-9v-11.85h-3.61v11.85Zm21.84-14.32c2.42,0,4.76-1.1,4.76-2.56s-2.33-2.49-4.76-2.49-4.78,1.08-4.78,2.49,2.38,2.56,4.78,2.56Zm-13.65,5.93l13.31-7.05-1.23-2.31-15,7.81,2.92,1.55Zm-2.92,22.02h2.92v-22.02l-2.92-1.44v23.46Zm-1.77,.45v5.9c0,1.77,1.14,2.92,2.92,2.92h.61c1.77,0,2.92-1.14,2.92-2.92v-5.9c0-1.77-1.14-2.92-2.92-2.92h-.61c-1.77,0-2.92,1.14-2.92,2.92Z" style="fill:rgba(0,29,50,.85);"/></g><g><rect x="460.98" y="88.44" width="61.04" height="65.03" style="fill:rgba(0,29,50,0);"/><path d="M491.49,128.67c1.93,.02,3.84-.47,6.22-1.55l22.11-10.1c1.46-.67,2.2-1.98,2.2-3.32s-.74-2.63-2.2-3.3l-22.11-10.1c-2.38-1.08-4.29-1.57-6.22-1.55-1.91-.02-3.82,.47-6.22,1.55l-22.09,10.1c-1.46,.67-2.2,1.98-2.2,3.3s.74,2.65,2.2,3.32l22.09,10.1c2.4,1.08,4.31,1.57,6.22,1.55Zm0-3.55c-1.48,0-2.94-.38-4.85-1.26l-20.68-9.41c-.4-.18-.58-.45-.58-.76,0-.29,.18-.56,.58-.74l20.68-9.41c1.91-.88,3.37-1.26,4.85-1.26s2.94,.38,4.87,1.26l20.68,9.41c.38,.18,.58,.45,.58,.74,0,.31-.2,.58-.58,.76l-20.68,9.41c-1.93,.88-3.37,1.26-4.87,1.26Zm-21.75,5.46c0,6.71,8.53,12.39,21.75,12.39s21.78-5.68,21.78-12.39v-11.85h-3.61v11.85c0,4.69-7.09,9-18.16,9s-18.14-4.31-18.14-9v-11.85h-3.61v11.85Zm21.84-14.32c2.42,0,4.76-1.1,4.76-2.56s-2.33-2.49-4.76-2.49-4.78,1.08-4.78,2.49,2.38,2.56,4.78,2.56Zm-13.65,5.93l13.31-7.05-1.23-2.31-15,7.81,2.92,1.55Zm-2.92,22.02h2.92v-22.02l-2.92-1.44v23.46Zm-1.77,.45v5.9c0,1.77,1.14,2.92,2.92,2.92h.61c1.77,0,2.92-1.14,2.92-2.92v-5.9c0-1.77-1.14-2.92-2.92-2.92h-.61c-1.77,0-2.92,1.14-2.92,2.92Z" style="fill:rgba(0,29,50,.85);"/></g><g><rect x="161.55" y="308.34" width="43.75" height="46.62" style="fill:rgba(0,29,50,0);"/><path d="M183.42,337.18c1.38,.02,2.75-.34,4.46-1.11l15.85-7.24c1.05-.48,1.58-1.42,1.58-2.38s-.53-1.88-1.58-2.37l-15.85-7.24c-1.71-.77-3.07-1.13-4.46-1.11-1.37-.02-2.74,.34-4.46,1.11l-15.83,7.24c-1.05,.48-1.58,1.42-1.58,2.37s.53,1.9,1.58,2.38l15.83,7.24c1.72,.77,3.09,1.13,4.46,1.11Zm0-2.54c-1.06,0-2.11-.27-3.48-.9l-14.82-6.74c-.29-.13-.42-.32-.42-.55,0-.21,.13-.4,.42-.53l14.82-6.74c1.37-.63,2.41-.9,3.48-.9s2.11,.27,3.49,.9l14.82,6.74c.27,.13,.42,.32,.42,.53,0,.23-.14,.42-.42,.55l-14.82,6.74c-1.38,.63-2.41,.9-3.49,.9Zm-15.59,3.91c0,4.81,6.12,8.88,15.59,8.88s15.61-4.07,15.61-8.88v-8.5h-2.59v8.5c0,3.36-5.09,6.45-13.02,6.45s-13-3.09-13-6.45v-8.5h-2.59v8.5Zm15.66-10.27c1.74,0,3.41-.79,3.41-1.83s-1.67-1.79-3.41-1.79-3.43,.77-3.43,1.79,1.71,1.83,3.43,1.83Zm-9.78,4.25l9.54-5.05-.89-1.66-10.75,5.6,2.09,1.11Zm-2.09,15.79h2.09v-15.79l-2.09-1.03v16.82Zm-1.27,.32v4.23c0,1.27,.82,2.09,2.09,2.09h.43c1.27,0,2.09-.82,2.09-2.09v-4.23c0-1.27-.82-2.09-2.09-2.09h-.43c-1.27,0-2.09,.82-2.09,2.09Z" style="fill:rgba(0,29,50,.85);"/></g><g><rect x="466.36" y="302.12" width="61.04" height="65.03" style="fill:rgba(0,29,50,0);"/><path d="M496.87,342.35c1.93,.02,3.84-.47,6.22-1.55l22.11-10.1c1.46-.67,2.2-1.98,2.2-3.32s-.74-2.63-2.2-3.3l-22.11-10.1c-2.38-1.08-4.29-1.57-6.22-1.55-1.91-.02-3.82,.47-6.22,1.55l-22.09,10.1c-1.46,.67-2.2,1.98-2.2,3.3s.74,2.65,2.2,3.32l22.09,10.1c2.4,1.08,4.31,1.57,6.22,1.55Zm0-3.55c-1.48,0-2.94-.38-4.85-1.26l-20.68-9.41c-.4-.18-.58-.45-.58-.76,0-.29,.18-.56,.58-.74l20.68-9.41c1.91-.88,3.37-1.26,4.85-1.26s2.94,.38,4.87,1.26l20.68,9.41c.38,.18,.58,.45,.58,.74,0,.31-.2,.58-.58,.76l-20.68,9.41c-1.93,.88-3.37,1.26-4.87,1.26Zm-21.75,5.46c0,6.71,8.53,12.39,21.75,12.39s21.78-5.68,21.78-12.39v-11.85h-3.61v11.85c0,4.69-7.09,9-18.16,9s-18.14-4.31-18.14-9v-11.85h-3.61v11.85Zm21.84-14.32c2.42,0,4.76-1.1,4.76-2.56s-2.33-2.49-4.76-2.49-4.78,1.08-4.78,2.49,2.38,2.56,4.78,2.56Zm-13.65,5.93l13.31-7.05-1.23-2.31-15,7.81,2.92,1.55Zm-2.92,22.02h2.92v-22.02l-2.92-1.44v23.46Zm-1.77,.45v5.9c0,1.77,1.14,2.92,2.92,2.92h.61c1.77,0,2.92-1.14,2.92-2.92v-5.9c0-1.77-1.14-2.92-2.92-2.92h-.61c-1.77,0-2.92,1.14-2.92,2.92Z" style="fill:rgba(0,29,50,.85);"/></g></svg>