<?xml version="1.0" encoding="UTF-8" standalone="no"?><!DOCTYPE svg PUBLIC "-//W3C//DTD SVG 1.1//EN" "http://www.w3.org/Graphics/SVG/1.1/DTD/svg11.dtd"><svg width="100%" height="100%" viewBox="0 0 2918 2116" version="1.1" xmlns="http://www.w3.org/2000/svg" xmlns:xlink="http://www.w3.org/1999/xlink" xml:space="preserve" xmlns:serif="http://www.serif.com/" style="fill-rule:evenodd;clip-rule:evenodd;stroke-linejoin:round;stroke-miterlimit:2;"><path d="M2764.38,1548.54c-211.25,425.958 -1125.29,792.625 -2033.62,398.958c-522.458,-226.417 -720.083,-772.083 -730.417,-1024.46c-8.125,-198.459 139.834,-410.084 229.167,-501c189.833,-193.25 1203.17,-433.959 1434.58,-421.584c326.75,-9.166 530.584,274.417 787.792,287.917c182.875,9.625 730.458,417.375 312.542,1260.17l-0.042,-0Z" style="fill:#adc6ff;"/><path d="M721.917,503.708c55.833,-27.666 122.5,-32.583 181.791,-13.5c14.917,-28.625 36.834,-53.541 63.375,-71.958c5.125,-3.542 12.459,-6.75 17.042,-2.542c-1.875,29.417 -3.708,58.917 -1.958,88.334c1.333,22.916 4.875,45.666 5.208,68.625c0.917,66.291 -25.042,130.541 -60.417,186.625c84.875,57.083 148.875,144.583 177.625,242.75c-12,6.208 -326.375,17.125 -496.416,3.541c-3.959,2.667 -7.625,-3.791 -8.084,-8.5c-4.541,-47.916 -7.125,-96.708 2.834,-143.791c9.958,-47.084 33.708,-92.834 72.958,-120.709c-36.417,-79.291 -22.25,-176.583 -66.708,-251.666c-2.625,-4.459 -4.875,-11.417 -0.25,-13.75c1.708,-0.875 3.75,-0.584 5.666,-0.292c30.959,5.25 60.5,18.875 84.584,39.042c6.208,5.208 15.541,1.416 22.791,-2.209l-0.041,0Z" style="fill:#fff;"/><path d="M1926.54,997.167c-0,-0 32.291,-48.709 52.208,-71.375c18.208,-20.709 28.875,-47.875 29.583,-75.417c-62.916,-2.5 -125.5,-12.875 -185.833,-30.875c-9.25,-2.75 -18.75,-5.875 -25.75,-12.5c-16.333,-15.458 -12.292,-42.417 -3.875,-63.292c10.208,-25.333 25.083,-48.75 43.625,-68.791c6.333,-6.875 13.208,-13.459 17.375,-21.834c4.167,-8.375 5.042,-19.125 -0.583,-26.583c-9.459,-12.583 -11.417,-29.125 -12.417,-44.833c-1,-15.709 -1.417,-32.042 -8.542,-46.042c-7.125,-14 -23.333,-24.917 -38.375,-20.333c-3.666,-5.584 3.542,-12 9.917,-14c23.958,-7.625 50.833,-0.959 71.833,12.875c21,13.833 36.959,34.083 50.625,55.166c5.334,8.25 14.375,17.917 23.084,13.375c59.5,-30.916 132.125,-35.416 195.041,-12.083c8.75,3.25 22.167,4.625 23.959,-4.542c8.875,-45.541 46.916,-84.041 92.333,-93.458c-17.875,12.792 -18.958,38.875 -15.375,60.542c3.583,21.708 9.875,44.791 0.958,64.875c-7.208,16.208 10.917,31.458 25.625,41.416c22.167,15.042 42,33.542 58.542,54.625c16.375,20.834 30,47.625 22.542,73.084c-9.792,33.291 -48.959,46.458 -82.709,54.708c-32.916,8 -65.833,16.042 -98.75,24.083c-0.625,32.125 10.875,64.292 31.625,88.792c16.667,19.667 40.834,39.917 35.542,65.125c11.083,17.583 -93,16.667 -312.25,-2.792l-0,0.084l0.042,-0Z" style="fill:#fff;"/><path d="M2005.54,1431.42c11.333,7 23.916,15.416 36.875,12.291c30.041,-7.25 62.166,-5.416 91.166,5.167c12.209,4.458 23.292,-8.167 30.917,-18.708c22.208,-30.5 51.25,-56 84.417,-74.042c22.833,37.5 -0.292,89.375 19.583,128.542c30.75,60.625 22.583,138.875 -20,191.833c44.708,43.667 75.083,101.75 85.5,163.375c-5.333,1.583 -277.542,35.333 -427.042,-5.167c-1.666,-43.416 14,-87.291 42.792,-119.833c-42.75,-50.333 -63.583,-118.625 -56.25,-184.25c0.75,-6.833 1.75,-14.125 -1.292,-20.292c-15.958,-32.291 -26.916,-67.041 -32.458,-102.625c-0.333,-2.125 -0.583,-4.458 0.5,-6.291c1.5,-2.417 4.75,-2.959 7.583,-3.209c47.834,-3.916 96.834,7.917 137.667,33.167l0.042,0.042Z" style="fill:#fff;"/><path d="M710.833,1845.75c5.459,-32.583 10.875,-65.125 16.334,-97.708c1.416,-8.459 1.208,-19.75 -6.917,-22.417c-25.417,-8.25 -46.875,-27.917 -57.375,-52.5c-3.292,-7.75 -13.5,-10.5 -21.583,-8.208c-8.084,2.291 -14.584,8.25 -20.709,14c3.5,-13.667 16.042,-24.542 30.084,-26c4.75,-8.042 -2.042,-19.125 -11.084,-21.459c-9.041,-2.333 -18.541,1.75 -26.125,7.25c-0.583,-8.708 10,-12.958 18.042,-16.375c8.042,-3.416 15.875,-14.208 9,-19.625c-3,-2.375 -7.208,-1.916 -11,-1.416c-10.875,1.541 -21.75,3.125 -32.625,4.666c1.25,-8.75 12.625,-11 21.417,-11.666c8.833,-0.667 20.208,-4.959 19.208,-13.75c-3.792,-33.875 4.417,-68.209 18.125,-99.417c11.333,-25.875 -22.042,-51.75 -19.833,-79.917c0.166,-2.166 0.666,-4.583 2.458,-5.875c2.083,-1.541 5.042,-0.916 7.542,-0.166c17.166,5.291 33.125,14.625 46.166,27c6.334,6 16.542,1.916 24.5,-1.667c29.417,-13.125 63.834,-14.5 94.209,-3.708c27.416,9.708 51.708,-37.167 78.833,-26.792c-6.917,22.792 -13.875,45.625 -20.792,68.417c-1.916,6.291 -3.708,13.5 -0.25,19.083c11.709,18.792 18.792,40.458 20.5,62.542c1.209,15.541 4.209,36.583 19.75,37.791c-6.791,2.959 -14.25,6.709 -16.583,13.709c-2.333,7 5.667,16.291 11.75,12.041c5.25,-3.666 13.708,-0.583 15.417,5.542c-8.959,-0.875 -18.709,0.083 -25.75,5.75c-7,5.667 -9.792,17.125 -3.834,23.917c13.042,-5.375 28.459,-4.667 41,1.875c-7.458,5.458 -17.708,3.875 -26.916,3.291c-9.25,-0.541 -20.5,1.584 -23.75,10.25c-10.917,28.875 -37.709,51.167 -68.125,56.625c-14.959,2.709 -17.375,22.959 -16.125,38.084c2.583,31.791 5.166,63.625 7.791,95.416c-5.333,5.042 -67.25,12.084 -92.75,1.25l0,0.167Z" style="fill:#fff;"/><path d="M1867.88,1398.25c47.833,-3.917 96.833,7.917 137.667,33.167c11.333,7 23.916,15.416 36.875,12.291c30.041,-7.25 62.166,-5.416 91.166,5.167c12.209,4.458 23.292,-8.167 30.917,-18.708c22.208,-30.5 51.25,-56 84.417,-74.042c22.833,37.5 -0.292,89.375 19.583,128.542c30.75,60.625 22.583,138.875 -20,191.833c44.708,43.667 75.083,101.75 85.5,163.375c-5.333,1.583 -8.792,-5.375 -10.083,-10.75c-11.459,-48.167 -34.25,-93.583 -65.959,-131.542c-7.416,-8.875 -19.583,-18.125 -29.375,-11.916c-77.875,49.166 -176.583,64 -265.458,39.916c-14.667,-3.958 -25.083,13.834 -29.792,28.292c-8.791,26.958 -17.541,53.875 -26.333,80.833c-1.667,-43.416 14,-87.291 42.792,-119.833c-42.75,-50.333 -63.584,-118.625 -56.25,-184.25c0.75,-6.833 1.75,-14.125 -1.292,-20.292c-15.958,-32.291 -26.917,-67.041 -32.458,-102.625c-0.334,-2.125 -0.584,-4.458 0.5,-6.291c1.5,-2.417 4.75,-2.959 7.583,-3.209l0,0.042Zm194.083,86.333c-16.916,15.542 -30.833,34.25 -40.833,54.917c-5.917,-19.792 -2.708,-42.125 8.542,-59.458c-15.209,5.666 -29.292,14.375 -41.167,25.416c0,-16.5 8.417,-32.75 21.833,-42.375c-5.791,0.167 -11.625,0.334 -17.416,0.5c6.041,-7.5 14.583,-13 23.916,-15.375c-42.791,-30.541 -96.458,-45.5 -148.916,-41.5c9.25,54.625 31.333,107.084 63.958,151.875c-13.958,-5.708 -25.333,-17.333 -30.708,-31.416c-5.959,56.333 8.375,114.583 39.791,161.708c5.834,8.792 12.417,17.292 20.875,23.542c14.084,10.375 32.125,13.541 49.584,15.166c69.708,6.375 141.166,-8.458 202.583,-41.958c11.792,-6.458 23.375,-13.667 32.708,-23.333c12.375,-12.792 20.334,-29.292 25.459,-46.334c13.416,-44.708 7.708,-94.833 -15.375,-135.416c-4.167,12.458 -8.334,24.916 -12.5,37.333c-1.75,5.25 -9.584,10.75 -11.084,5.417c20.709,-49.084 25.167,-104.917 12.459,-156.667c-47.334,31.417 -86.959,74.292 -114.584,123.917c-1.166,-11.542 1.792,-23.5 8.25,-33.167c-29.875,22.875 -55.75,50.958 -76.166,82.583c-3.709,-18.166 -4.125,-37.041 -1.167,-55.333l-0.042,-0.042Z" style="fill:#00160a;"/><path d="M1926.54,997.167c2,-30.125 32.291,-48.709 52.208,-71.375c18.208,-20.709 28.875,-47.875 29.583,-75.417c-62.916,-2.5 -125.5,-12.875 -185.833,-30.875c-9.25,-2.75 -18.75,-5.875 -25.75,-12.5c-16.333,-15.458 -12.292,-42.417 -3.875,-63.292c10.208,-25.333 25.083,-48.75 43.625,-68.791c6.333,-6.875 13.208,-13.459 17.375,-21.834c4.167,-8.375 5.042,-19.125 -0.583,-26.583c-9.459,-12.583 -11.417,-29.125 -12.417,-44.833c-1,-15.709 -1.417,-32.042 -8.542,-46.042c-7.125,-14 -23.333,-24.917 -38.375,-20.333c-3.666,-5.584 3.542,-12 9.917,-14c23.958,-7.625 50.833,-0.959 71.833,12.875c21,13.833 36.959,34.083 50.625,55.166c5.334,8.25 14.375,17.917 23.084,13.375c59.5,-30.916 132.125,-35.416 195.041,-12.083c8.75,3.25 22.167,4.625 23.959,-4.542c8.875,-45.541 46.916,-84.041 92.333,-93.458c-17.875,12.792 -18.958,38.875 -15.375,60.542c3.583,21.708 9.875,44.791 0.958,64.875c-7.208,16.208 10.917,31.458 25.625,41.416c22.167,15.042 42,33.542 58.542,54.625c16.375,20.834 30,47.625 22.542,73.084c-9.792,33.291 -48.959,46.458 -82.709,54.708c-32.916,8 -65.833,16.042 -98.75,24.083c-0.625,32.125 10.875,64.292 31.625,88.792c16.667,19.667 40.834,39.917 35.542,65.125c-11.25,-26.792 -32.375,-48 -49.375,-71.625c-16.958,-23.625 -30.333,-53.167 -22.667,-81.208c-15.041,-5.375 -30.791,5.375 -42.166,16.583c-11.375,11.208 -23.334,24.417 -39.292,25.292c-26.25,1.458 -42.625,-30.542 -68.292,-36.292c-0.583,17.167 -5.083,34.208 -13.041,49.417c-8.459,16.208 -20.625,30.125 -32.667,43.875c-14.917,17.041 -29.875,34.083 -44.792,51.125l0.084,0.125Zm24.458,-407.334c-15.958,7.75 8.75,38.084 -5.542,48.625c-7.333,-39.875 -28.166,-77.125 -58.291,-104.25c-19.542,-17.625 -45.5,-31.5 -71.375,-26.625c15.125,5.959 24.333,21.667 28.291,37.417c3.959,15.75 3.834,32.25 6.584,48.25c4.833,28.167 18.958,54.708 39.625,74.5c-9.417,-0.125 -18.542,-5.917 -22.625,-14.375c-28.959,26.042 -52.209,58.375 -67.709,94.083c-6.125,14.084 -10.875,30.917 -3.333,44.25c6.375,11.292 19.583,16.5 31.917,20.5c44.375,14.375 90.5,23.209 137.041,26.25c27.792,1.834 57.834,2.292 80.042,19.084c8.083,6.125 14.708,14.125 23.5,19.125c8.792,5 21.208,6.041 28.042,-1.417c26.75,-29.083 67.416,-40.375 106.291,-47.5c38.875,-7.167 79.417,-11.958 113.292,-32.292c12.708,-7.625 24.75,-18.208 28.875,-32.458c5.583,-19.375 -4.833,-39.583 -16.625,-55.958c-23.792,-33 -54.708,-60.792 -90.042,-80.875c-1.541,6.125 -5.333,11.625 -10.458,15.291c-1.667,-6.916 1.375,-14 3.792,-20.708c15,-41.375 8.166,-87.083 1.125,-130.542c-46,26.542 -69.875,86.209 -54.917,137.167c-8.75,1.625 -12.917,-10.667 -12.083,-19.542c0.833,-8.875 1.583,-20.458 -6.667,-23.916c-66.167,-27.75 -144.25,-25.542 -208.75,5.833l-0,0.083Z" style="fill:#00160a;"/><path d="M732.458,1535.92c4.625,7.791 5.125,17.875 1.334,26.125c-2.042,4.375 -8.834,4.208 -12.292,0.833c-3.417,-3.375 -4.333,-8.5 -5,-13.25c-0.625,-4.292 -1.125,-8.875 0.5,-12.875c1.667,-4.042 6.25,-7.208 10.333,-5.708c2.25,0.833 3.875,2.833 5.125,4.875Z" style="fill:#00160a;"/><path d="M803.583,1844.5c-14.625,-37.125 -19.5,-78.083 -14.041,-117.625c-13.792,15.083 -39.25,17.667 -55.75,5.667c3.958,38.916 -4.167,78.958 -22.917,113.25c5.458,-32.584 10.875,-65.125 16.333,-97.709c1.417,-8.458 1.209,-19.75 -6.916,-22.416c-25.417,-8.25 -46.875,-27.917 -57.375,-52.5c-3.292,-7.75 -13.5,-10.5 -21.584,-8.209c-8.083,2.292 -14.583,8.25 -20.708,14c3.5,-13.666 16.042,-24.541 30.083,-26c4.75,-8.041 -2.041,-19.125 -11.083,-21.458c-9.042,-2.333 -18.542,1.75 -26.125,7.25c-0.583,-8.708 10,-12.958 18.042,-16.375c8.041,-3.417 15.875,-14.208 9,-19.625c-3,-2.375 -7.209,-1.917 -11,-1.417c-10.875,1.542 -21.75,3.125 -32.625,4.667c1.25,-8.75 12.625,-11 21.416,-11.667c8.834,-0.666 20.209,-4.958 19.209,-13.75c-3.792,-33.875 4.416,-68.208 18.125,-99.416c11.333,-25.875 -22.042,-51.75 -19.834,-79.917c0.167,-2.167 0.667,-4.583 2.459,-5.875c2.083,-1.542 5.041,-0.917 7.541,-0.167c17.167,5.292 33.125,14.625 46.167,27c6.333,6 16.542,1.917 24.5,-1.666c29.417,-13.125 63.833,-14.5 94.208,-3.709c27.417,9.709 51.709,-37.166 78.834,-26.791c-6.917,22.791 -13.875,45.625 -20.792,68.416c-1.917,6.292 -3.708,13.5 -0.25,19.084c11.708,18.791 18.792,40.458 20.5,62.541c1.208,15.542 4.208,36.584 19.75,37.792c-6.792,2.958 -14.25,6.708 -16.583,13.708c-2.334,7 5.666,16.292 11.75,12.042c5.25,-3.667 13.708,-0.583 15.416,5.542c-8.958,-0.875 -18.708,0.083 -25.75,5.75c-7,5.666 -9.791,17.125 -3.833,23.916c13.042,-5.375 28.458,-4.666 41,1.875c-7.458,5.459 -17.708,3.875 -26.917,3.292c-9.25,-0.542 -20.5,1.583 -23.75,10.25c-10.916,28.875 -37.708,51.167 -68.125,56.625c-14.958,2.708 -17.375,22.958 -16.125,38.083c2.584,31.792 5.167,63.625 7.792,95.417l0,0.125l-0.042,0Zm12.042,-228.625c-4.792,4.375 -13.042,8.958 -16.625,3.5c20.5,-22 48.667,-36.792 78.417,-41.208c6.083,-0.917 7.416,-9 7,-15.125c-2.125,-30.125 -10.792,-59.792 -25.167,-86.334c-2.167,5.584 -9,8.875 -14.708,7.042c17,-25.583 28.208,-55 32.5,-85.375c-27.25,11.292 -51.459,29.833 -69.459,53.167c-2.5,-8.959 1.5,-19.334 9.375,-24.292c-35.916,-13.167 -77.208,-11 -111.541,5.958c0.875,5.584 1.791,11.125 2.666,16.709c-16.833,-20.375 -38.791,-36.542 -63.25,-46.542c7.959,29.708 19.542,58.458 34.459,85.375c-6.459,1.417 -13.5,-4.208 -13.584,-10.833c-13.5,29.416 -20.958,61.625 -21.708,94c-0.208,9.291 3.542,21.916 12.792,20.916c25.291,-2.625 51.5,6.167 70.083,23.5c-17.25,-5 -34.5,-9.958 -51.792,-14.958c-7.416,-2.167 -15.958,-4.167 -22.458,0c-6.5,4.167 -5.75,17.083 2,17.25c20.25,-5.917 43.125,-1.958 60.208,10.417c-20,-4.459 -40.875,-4.75 -61,-0.834c-5,12.084 12,21.584 25.125,21.5c13.084,-0.041 29.5,-1.458 35.875,9.959c-16.041,-0.834 -32.125,-1.667 -48.166,-2.5c4.416,28.625 29,52.916 57.666,56.958c5.459,0.792 9.042,5.875 13.125,9.583c16.209,14.834 47.292,4.75 51.667,-16.75c37.292,-1.125 72.833,-25.958 86.75,-60.583c-18.917,2.667 -37.833,5.375 -56.75,8.042c4.417,-8.542 14.958,-11.834 24.5,-12.834c9.583,-1 19.667,-0.666 28.167,-5.208c8.5,-4.542 14,-16.5 7.916,-23.958c-23.625,8.291 -47.291,16.625 -70.916,24.916c7.875,-11.708 20.25,-20.333 34,-23.583c9.583,-2.25 19.75,-2.042 28.916,-5.625c9.167,-3.583 17.334,-13.042 14.75,-22.5c-26.125,1.667 -51.583,12.5 -70.916,30.125l0.083,0.125Z" style="fill:#00160a;"/><path d="M791.958,1517.88c-3.166,-0.167 -7,-0.792 -8.166,-3.75c7.708,-8.75 24.458,-5.958 28.958,4.833c-6.917,-0.375 -13.833,-0.708 -20.75,-1.083l-0.042,0Z" style="fill:#00160a;"/><path d="M780.083,1682c2.5,3 1.959,7.667 -0.375,10.792c-2.333,3.125 -6.041,4.875 -9.791,5.875c-5.459,1.5 -11.917,1.458 -16.042,-2.375c-6,-5.542 -3.125,-16.875 4.25,-20.375c7.375,-3.542 16.708,-0.209 21.958,6.083Zm-21.5,1.708c-1.875,3.5 2.125,7.792 6.084,7.792c3.958,0 7.375,-2.625 10.458,-5.125c-4.042,-4.417 -11.208,-5.5 -16.375,-2.5l-0.125,-0.167l-0.042,0Z" style="fill:#00160a;"/><path d="M800.833,1562.42c-4.875,2.458 -11.041,-1.5 -12.875,-6.625c-1.833,-5.125 -0.625,-10.834 0.792,-16.084c0.792,-3 1.875,-6.291 4.583,-7.833c3.625,-2.042 8.5,0.292 10.584,3.917c2.125,3.583 2.208,8 2.25,12.166c-0,5.459 -0.542,12.042 -5.375,14.459l0.041,-0Z" style="fill:#00160a;"/><path d="M713.167,1682.25c14.666,1.875 30.083,-5.208 38.208,-17.542c8.125,-12.333 8.5,-29.333 0.958,-42.041c-4,-6.709 -10.041,-15.084 -5.208,-21.25c2.458,-3.125 6.792,-3.917 10.75,-4.125c4.333,-0.25 8.917,-0 12.542,2.416c3.625,2.375 5.708,7.5 3.541,11.25c-8.708,14.75 -7.375,34.792 3.209,48.25c10.583,13.5 29.708,19.542 46.083,14.667c3,-0.875 7.917,-0.583 7.333,2.5c-0.166,0.75 -0.666,1.375 -1.208,1.917c-9.292,9.583 -25.333,8 -37.292,2.083c-11.083,-5.5 -20.625,-14.125 -27.166,-24.667c-5.875,10 -11.917,20.25 -20.917,27.584c-8.958,7.333 -21.625,11.291 -32.417,6.958c-2.958,-1.167 -6,-4.75 -3.875,-7.083c1.292,-1.417 3.5,-1.167 5.417,-0.917l0.042,0Z" style="fill:#00160a;"/><path d="M739.125,1514.29c0.75,2.291 -2.5,3.708 -4.917,3.958c-4.583,0.5 -9.125,1 -13.708,1.5c-3.542,0.375 -8.583,-0.667 -8.208,-4.167c6.291,-6.625 17.375,-8 25.083,-3.125c0.75,0.459 1.458,1.042 1.75,1.875l0,-0.041Z" style="fill:#00160a;"/><path d="M1971.67,1770.42c-0.917,-8.667 -0.709,-18.875 6.166,-24.25c6.042,-4.709 14.625,-3.584 22.167,-2.25c12,2.125 23.958,4.291 35.958,6.416c9.375,1.667 19.375,3.292 28.084,-0.541c6.958,-3.042 14.916,0.208 22.5,0.291c6.208,0.042 12.166,-2.083 18,-4.166c17.875,-6.417 35.791,-12.834 53.666,-19.25c3.292,-1.167 6.959,-2.375 10.167,-1.042c4.917,2 6,8.333 6.375,13.625c0.417,6.042 0.875,12.083 1.292,18.083c0.541,7.375 1,15.042 -1.875,21.875c-2.875,6.792 -10.292,12.292 -17.417,10.459c-18.458,-4.75 -37.25,-8.292 -56.208,-10.542c-3.792,-0.458 -8.792,-0.167 -10.042,3.458c-2.875,8.334 -14.792,7 -23.458,5.542c-19.917,-3.375 -41.125,1.875 -57.167,14.125c-4.292,3.292 -8.333,7.083 -13.292,9.25c-4.958,2.167 -11.291,2.25 -15.25,-1.458c-2.666,-2.542 -3.75,-6.292 -4.625,-9.875c-2.333,-9.792 -4.041,-19.709 -5.125,-29.709l0.084,0l-0,-0.041Zm89.833,-6.959c-24.167,-4.583 -48.458,-8.541 -72.833,-11.875c-3.834,-0.541 -7.417,2.667 -8.709,6.334c-1.25,3.666 -0.791,7.708 -0.208,11.541c1.208,8.417 2.708,16.834 4.458,25.167c0.542,2.625 1.167,5.333 2.959,7.333c1.791,2 5.083,2.875 7.125,1.209c13.208,-10.75 28.833,-18.459 45.416,-22.417c4.959,-1.208 10.125,-2.083 14.542,-4.708c4.417,-2.625 7.917,-7.459 7.25,-12.542l0,-0.042Zm68.792,-18.708c-12.875,3.542 -26.542,7.583 -35.167,17.75c-2.625,3.083 -3.167,9.667 0.875,9.5c20.208,-0.75 40.583,2.375 59.583,9.25c4.042,1.458 8.625,-1.458 10.5,-5.292c1.917,-3.833 1.834,-8.333 1.75,-12.625c-0.208,-8.083 -0.375,-16.208 -0.583,-24.291c-0,-1.292 -0.208,-2.834 -1.375,-3.417c-0.792,-0.375 -1.708,-0.167 -2.542,0.083c-11,3.042 -22.041,6.084 -33.041,9.084l-0,-0.042Zm-62.834,30c0.584,1.917 1.375,3.833 2.875,5.125c3.667,3.167 9.917,0.917 12.375,-3.292c2.459,-4.208 2.209,-9.416 1.667,-14.25c-0.667,-5.791 -9.333,-7.708 -13.708,-3.833c-4.375,3.833 -4.834,10.667 -3.209,16.25Z" style="fill:#00160a;"/><path d="M2211.46,1619.46c-10.708,-1.291 -21.75,0.375 -31.583,4.792c-2.542,1.125 -5,-2.625 -3.917,-5.167c1.084,-2.541 3.959,-3.791 6.584,-4.708c15.166,-5.333 34.458,-8 45.291,3.917c-4.625,3.166 -10.833,1.833 -16.375,1.166Z" style="fill:#00160a;"/><path d="M2094.62,1676.21c0.25,8.25 -7.583,15 -15.708,16.459c-8.125,1.458 -16.417,-0.959 -24.334,-3.334c-6.875,-2.083 -9.041,-11.75 -5.416,-18c3.625,-6.208 11,-9.291 18.083,-10.458c5.833,-0.958 12.083,-0.875 17.458,1.625c5.375,2.5 9.709,7.75 9.917,13.708Zm-38.167,2c0.375,2.459 3.292,3.542 5.709,4.125c4.708,1.167 9.583,2.334 14.416,1.625c4.792,-0.708 9.625,-3.791 10.875,-8.5c-7.166,-7.375 -19.916,-8.416 -28.166,-2.25c-1.625,1.209 -3.167,2.959 -2.834,4.959l0,0.041Z" style="fill:#00160a;"/><path d="M1970.79,1634.04c-14.292,-0 -28.542,0.041 -42.834,0.083c-3,-0 -7.25,-1.583 -6.25,-4.417c14.917,-6.5 32.209,-7.291 47.667,-2.166c2.833,0.958 5.917,4.791 3.292,6.166c-0.584,0.292 -1.209,0.292 -1.875,0.292l-0,0.042Z" style="fill:#00160a;"/><path d="M2128.83,1579.67c0.834,-5.125 2.209,-11 6.917,-13.125c4.542,-2.042 10.083,0.875 12.667,5.083c2.625,4.25 3.041,9.417 3.416,14.375c-6.458,0.583 -12.875,1.167 -19.333,1.75c-3.458,0.333 -4.25,-4.708 -3.708,-8.125l0.041,0l0,0.042Z" style="fill:#00160a;"/><path d="M2184.75,1640.67c-2.083,-0.417 -4.208,-0.875 -5.958,-2.125c-1.25,-0.875 -2.209,-2.125 -2.75,-3.584c14.541,-6.125 33.083,-0.583 41.875,12.542c-11.042,-2.292 -22.084,-4.583 -33.167,-6.875l0,0.042Z" style="fill:#00160a;"/><path d="M2154.79,1551.96c3.708,-5.916 12.916,-3.125 18.5,1.042c5.5,4.125 10.416,9.042 14.583,14.5c-0.167,3.208 -5.208,2.5 -7.917,0.75c-8.416,-5.417 -16.791,-10.875 -25.208,-16.292l0.042,0Z" style="fill:#00160a;"/><path d="M1952.88,1649.62c5.875,-2 11.792,-4.042 17.667,-6.042c2.375,-0.791 4.875,-1.625 7.291,-1.041c2.417,0.583 4.5,3.208 3.584,5.541c-11.584,4.334 -23.292,8.25 -35.125,11.75c-1.875,-1.625 -1.5,-4.833 0.125,-6.708c1.625,-1.875 4.083,-2.75 6.416,-3.542l0.042,0l0,0.042Z" style="fill:#00160a;"/><path d="M2001.71,1575.38c2.25,1.5 3.417,4.167 4.459,6.667c1.375,3.333 2.791,6.916 2.041,10.458c-0.75,3.542 -4.708,6.583 -7.958,5c-3.667,-1.792 -7.667,4.792 -11.292,2.875c-1.708,-0.917 -2.041,-3.167 -2.166,-5.083c-0.334,-5.209 -0.625,-10.709 1.875,-15.292c2.458,-4.583 8.75,-7.5 13.041,-4.625Z" style="fill:#00160a;"/><path d="M1956.79,1573.08c5.416,-13.333 21,-21.708 35.083,-18.833c1.917,0.375 4.292,1.833 3.625,3.667c-0.375,0.958 -1.458,1.416 -2.417,1.791c-12.083,4.459 -24.208,8.917 -36.291,13.375Z" style="fill:#00160a;"/><path d="M2028.88,1640.5c-3.042,0.375 -6.917,0.083 -8.042,-2.75c2.042,-1.625 4.5,-3.375 7.042,-2.75c2.542,0.583 3.458,5.042 0.917,5.583l0.125,0l-0,-0.083l-0.042,0Z" style="fill:#00160a;"/><path d="M2089.75,1636.12c3.208,-0.542 4.875,-5.042 2.833,-7.542c-2.041,-2.5 -6.791,-1.708 -7.916,1.334c-1.125,3.041 1.916,6.75 5.125,6.208l-0.042,0Z" style="fill:#00160a;"/><path d="M2018.67,1657.83c-4.5,-0.666 -10.25,-3.583 -8.875,-7.875c4.958,-2.833 11.083,-0.416 16.708,0.417c5.625,0.833 13.25,-2.25 12.333,-7.875c0.959,2.375 1.875,4.75 2.834,7.125c5.75,-1.542 11.083,-4.458 15.458,-8.5c2.458,-2.292 4.667,-6.167 2.5,-8.708c-5.083,-5.875 0.417,-16.917 8.208,-16.375c7.792,0.541 11.709,12.208 5.834,17.333c-1.5,1.333 -0,3.75 1.583,5.042c10.958,8.791 26.25,11.958 39.833,8.166c6.042,-1.708 13.792,-4.166 17.667,0.792c-19.333,13.958 -48.708,11.542 -65.5,-5.417c-9.458,15.417 -30.667,18.542 -48.542,15.959l0,-0.084l-0.041,0Z" style="fill:#00160a;"/><path d="M2109.75,1631.33c1.875,0.834 2.167,3.875 0.5,5.042c-1.667,1.167 -4.417,-0.083 -4.583,-2.125c0.708,-1.5 2.333,-2.542 4,-2.542l0.083,-0.375Z" style="fill:#00160a;"/><path d="M2039.54,1633.46c1.958,3 7.666,-0.75 5.708,-3.708c-1.958,-3 -7.667,0.708 -5.708,3.708Z" style="fill:#00160a;"/><path d="M1877.08,741.75c-7.5,0.833 -15.583,2.667 -22.25,-0.917c7.875,-7.375 19.584,-8.833 30.375,-8.291c18.25,0.916 36.292,6.458 51.917,16c-3.292,6.041 -12.333,3.083 -18.542,0.166c-12.833,-6.041 -27.375,-8.458 -41.5,-6.916l0,-0.042Z" style="fill:#00160a;"/><path d="M2140.96,679c-1.208,-4.5 -1.25,-8.208 2.875,-10.417c6,-3.208 24.917,-2.916 26.959,1.75c2.041,4.667 -5.75,26.125 -16.667,26.125c-4.375,0 -11.958,-12.958 -13.167,-17.458Z" style="fill:#00160a;"/><path d="M2261.04,732.167c-23.5,1.458 -46.75,6.583 -68.709,15.166c-3,1.167 -7.625,1.625 -8.333,-1.541c3.833,-6.417 11.5,-9.334 18.708,-11.417c16.084,-4.708 32.667,-7.792 49.375,-9.167c2.417,-0.208 5,-0.333 7.125,0.834c2.125,1.208 3.334,4.208 1.834,6.125Z" style="fill:#00160a;"/><path d="M2265.79,758.5c-18.584,1.667 -37.167,3.333 -55.75,5c-3.375,0.292 -8.459,-1.958 -6.5,-4.75c19.125,-5.958 39.166,-8.875 59.208,-8.583c4.958,0.083 10.708,0.791 13.292,5c-2.625,2.541 -6.584,3 -10.25,3.333Z" style="fill:#00160a;"/><path d="M1992.54,698c-3.959,4.625 -11.917,3.292 -16.125,-1.083c-4.209,-4.375 -5.667,-10.667 -6.917,-16.584c-0.667,-3.083 -1.25,-6.625 0.625,-9.208c1.917,-2.708 28.917,-2.917 30.167,-0.583c1.291,2.333 0.5,4.291 -0,6.083c-0.875,3.292 -4.875,18.042 -7.709,21.375l-0.041,0Z" style="fill:#00160a;"/><path d="M1851.79,771.5c23.416,-9.667 49.583,-12.583 74.583,-8.375c2.667,0.458 5.625,1.167 7.125,3.417c1.5,2.25 0.042,6.25 -2.625,5.875c-29.042,-4.125 -60.542,-3.834 -85.25,11.958c-2.583,-1.5 -2.792,-5.417 -1.125,-7.917c1.667,-2.5 4.542,-3.833 7.292,-4.958Z" style="fill:#00160a;"/><path d="M2023.83,794.625c-1.208,-3.458 1.375,-7.708 5.042,-8.25c1.458,0.958 2.417,2.625 2.5,4.333c-1.125,2.667 -4.125,4.459 -7,4.167l-0.5,-0.25l-0.042,0Z" style="fill:#00160a;"/><path d="M1985.92,644.208c4.041,0 9.625,2.792 7.833,6.417c-17.667,1.042 -35.083,5.708 -50.875,13.625c-2.333,-0.25 -3.417,-3.333 -2.542,-5.5c0.875,-2.167 3.042,-3.5 5.084,-4.625c12.333,-6.708 26.416,-10.167 40.458,-9.958l0.042,0.041Z" style="fill:#00160a;"/><path d="M2084.42,791.625c2.583,-2.75 7.75,-2.292 9.791,0.875c-2,3.833 -8.75,3.458 -10.291,-0.583l0.5,-0.292Z" style="fill:#00160a;"/><path d="M2102.29,789.792c1.791,-2.584 6.875,-0.334 6.125,2.708c-0.75,1.542 -2.417,2.583 -4.167,2.583c-2,-0.75 -2.958,-3.416 -1.958,-5.291Z" style="fill:#00160a;"/><path d="M2041.58,775.667c-1.791,2.583 -6.875,0.333 -6.166,-2.709c0.75,-1.541 2.416,-2.583 4.166,-2.583c2,0.75 2.959,3.417 1.959,5.292l0.041,-0Z" style="fill:#00160a;"/><path d="M2011.58,782.75c-0.166,3 3.584,5.458 6.292,4.083c2.708,-1.375 2.917,-5.833 0.375,-7.5c-2.542,-1.666 -6.542,0.375 -6.667,3.417Z" style="fill:#00160a;"/><path d="M2088.12,780.875c2.583,1.917 6.917,0 7.333,-3.125c0.375,-3.167 -3.416,-6.042 -6.375,-4.792c-2.958,1.25 -3.5,5.959 -0.958,7.917Z" style="fill:#00160a;"/><path d="M2135.79,653.25c15.083,-10.917 36,-5.917 53.791,-0.458c2.792,0.875 6.292,3.416 4.667,5.833c-0.958,1.458 -3.083,1.417 -4.792,1.208c-17.875,-2.208 -35.791,-4.375 -53.666,-6.583Z" style="fill:#00160a;"/><path d="M2068.29,780.875c5.416,16.875 24.958,27.833 42.166,23.667c7.584,-1.834 16.25,-5.959 22.459,-1.25c-10.917,9.125 -26.25,12.666 -40.042,9.25c-13.792,-3.417 -25.708,-13.709 -31.125,-26.834c-10.667,14.875 -27.625,25.125 -45.792,27.667c-2.708,0.375 -5.791,0.5 -7.833,-1.333c-2.042,-1.792 -1.5,-6.125 1.208,-6.334c15,-1.041 29.5,-7.625 40.167,-18.208c5.792,-5.75 10.542,-14.958 5.917,-21.667c-4.334,-6.25 -7.792,-13.083 -10.292,-20.25c-0.917,-2.666 -1.625,-5.833 0.083,-8.083c1.25,-1.667 3.459,-2.208 5.5,-2.708c6.167,-1.417 12.542,-2.834 18.75,-1.667c6.209,1.167 12.25,5.667 13.167,11.917c1.958,13.208 -18.5,23.083 -14.417,35.791l0.084,0l-0,0.042Z" style="fill:#00160a;"/><path d="M838.417,735.292c1.333,-3.875 8.583,-2.542 8.458,1.583c-1.5,3.875 -8.708,2.458 -8.625,-1.708l0.208,0.125l-0.041,-0Z" style="fill:#00160a;"/><path d="M772.958,753.208c-0.833,-4.166 -8.75,-2.583 -7.916,1.584c0.833,4.166 8.75,2.583 7.916,-1.584Z" style="fill:#00160a;"/><path d="M784.208,760.25c1.917,-2.333 5.25,-3.417 8.167,-2.542c0.958,1.167 1.25,2.834 0.75,4.292c-2.167,0.875 -4.292,1.75 -6.458,2.625l-2.75,-4.125l0.25,-0.25l0.041,0Z" style="fill:#00160a;"/><path d="M785.167,750.417c-1.459,-1 -2.417,-2.667 -2.584,-4.417c1.584,-3.25 7.125,-3.292 8.75,0c-1.5,2.125 -3.666,3.75 -6.166,4.542l-0,-0.125Z" style="fill:#00160a;"/><path d="M734.625,761.125c-2.167,2.792 -7,-0.833 -6.417,-4.333c0.584,-3.5 3.834,-5.75 6.584,-7.959c5.875,-4.708 10.625,-10.833 17.041,-14.791c6.417,-3.959 15.584,-5.084 20.959,0.208c-15.042,4.792 -28.542,14.333 -38.167,26.833l0,0.042Z" style="fill:#00160a;"/><path d="M716.25,723.042c8.708,-8.167 19.583,-14.042 31.167,-16.875c2.458,-0.625 5.166,-1.042 7.5,-0c2.333,1.083 3.791,4.25 2.25,6.291c-14.75,2.625 -28.667,9.917 -39.167,20.625c-1.917,1.959 -5.542,-0.416 -5.625,-3.125c-0.083,-2.708 1.917,-5.041 3.917,-6.875l-0.042,-0.041Z" style="fill:#00160a;"/><path d="M826.667,737.958c-0.25,-2 3.166,-0.916 4.208,0.834c-1.375,2.083 -2.792,4.166 -4.167,6.25c-2.916,-0.917 -3.041,-5.917 -0.166,-7l0.166,-0.084l-0.041,0Z" style="fill:#00160a;"/><path d="M912.917,727.083c-12.625,-3.875 -25.25,-7.791 -37.875,-11.666c-2.959,-0.917 -6.167,-2.042 -7.667,-4.75c17.417,-3.959 36.583,0.708 50.208,12.25c0.584,0.5 1.167,1.041 1.375,1.75c0.667,2.583 -3.5,3.166 -6.041,2.416Z" style="fill:#00160a;"/><path d="M829.333,749.792c1.417,-1.667 4.375,-1.625 5.75,0.083c1.334,1.708 0.667,4.625 -1.291,5.583c-2.917,-0.291 -5.459,-2.916 -5.625,-5.875l1.166,0.209Z" style="fill:#00160a;"/><path d="M904,754.458c-13.083,-4.583 -26.167,-9.208 -39.25,-13.791c-1.083,-0.375 -2.208,-0.792 -2.875,-1.709c-1.5,-1.958 0.25,-5.041 2.625,-5.791c2.375,-0.75 4.917,0.083 7.25,0.916c7.042,2.459 14.083,4.959 21.167,7.417c6.041,2.125 13.458,7 11.125,12.958l-0.042,0Z" style="fill:#00160a;"/><path d="M2618.08,186.125c47.5,19.25 79.834,65.583 94.834,114.583c15,49.042 15.125,101.167 15.166,152.459c0.167,379.833 0.292,759.708 0.459,1139.54c-0,55.584 -0.417,113.334 -24.542,163.375c-22.083,45.917 -63.958,81.875 -112.625,96.875c-35.333,10.875 -72.958,10.959 -109.917,10.959c-700.041,-0.125 -1400.12,-0.25 -2100.17,-0.375c-34.875,-0 -72.167,-0.709 -100.875,-20.542c-45.959,-31.708 -50.5,-96.667 -50.542,-152.542c-0.125,-434 -0.292,-868 -0.417,-1302c0,-32.25 0.125,-65.291 11.25,-95.583c19.25,-52.25 69.209,-88.375 122.334,-105c53.125,-16.667 109.833,-16.75 165.5,-16.667c126,0.125 252,0.292 377.958,0.417c537.792,0.583 1075.62,1.167 1613.42,1.75c33.208,-0 67.333,0.25 98.083,12.708l0.083,0l0,0.042Zm-1171.25,1668.71c-0.291,-276.166 -0.583,-552.333 -0.875,-828.5c-397.208,0.167 -794.458,0.334 -1191.67,0.5c-3.417,0 -7.25,0.167 -9.584,2.667c-2.208,2.333 -2.333,5.875 -2.333,9.083c-0.167,231.75 -0.375,463.5 -0.542,695.25c0,12.084 0,24.25 2.542,36.042c8.458,39.042 44.042,67.583 82.208,79.417c38.167,11.833 79,10.041 118.917,8.541c154.542,-5.75 309.25,-5.25 463.917,-4.75c179.166,0.584 358.333,1.209 537.5,1.792l-0.084,0l0,-0.042Zm10.209,-827.333c0.25,275.458 0.458,550.875 0.708,826.333c348.167,-0.333 696.333,-0.666 1044.5,-0.958c26.167,0 52.667,-0.083 78.125,-6.167c59.917,-14.333 109.458,-63.458 127.125,-122.458c10.417,-34.875 10.417,-71.875 10.333,-108.25c-0.458,-196.625 -0.916,-393.25 -1.333,-589.875c-419.792,0.5 -839.625,0.958 -1259.42,1.458l0,-0.083l-0.041,0Zm-0.167,-841.792c0.375,276.167 0.708,552.334 1.083,828.459c416,-0 831.959,-0 1247.96,0.083c3.458,0 7.458,-0.25 9.541,-3c1.5,-1.958 1.584,-4.667 1.584,-7.125c0.041,-201.292 0.125,-402.583 0.166,-603.875c0,-29.708 0,-59.792 -7.5,-88.583c-20.375,-78.625 -101.25,-136.792 -182.25,-131.125c-60.041,4.208 -120.333,4.25 -180.541,4.333c-296.667,0.292 -593.375,0.542 -890.042,0.833Zm-10.083,827.417c-0.334,-276.125 -0.667,-552.25 -1,-828.375c-342.959,-0.125 -685.959,-0.25 -1028.92,-0.375c-80.875,0 -157.208,63.625 -171.667,143.208c-3.75,20.75 -3.75,41.959 -3.708,63.084c0.333,207.541 0.708,415.083 1.042,622.625c401.416,1.666 802.833,1.625 1204.25,-0.167Z" style="fill:#1c3751;"/><path d="M816.958,738c-2.458,6.375 0.667,13.792 5.584,18.542c7.166,6.958 18.166,9.583 27.708,6.708c6.875,-2.083 15.167,-6.5 20.25,-1.417c-15.125,15.25 -43.833,13.084 -56.542,-4.208c-3.958,10.333 -13.041,18.583 -23.708,21.5c-10.667,2.958 -22.667,0.5 -31.375,-6.333c6.375,-5.292 15.875,-1.167 24.167,-1.125c8.791,-0 17.375,-5.334 21.166,-13.25c3.792,-7.917 2.584,-17.959 -2.958,-24.792c-5.667,-6.958 -10.042,-14.917 -12.833,-23.417c-0.667,-1.958 -1.209,-4.125 -0.584,-6.083c1.292,-4.042 6.5,-5 10.709,-5.208c8.708,-0.417 17.375,-0.667 26.083,-0.709c4.167,0 9.25,0.542 11,4.334c1.167,2.5 0.333,5.416 -0.708,8c-2.625,6.666 -6.459,12.875 -11.209,18.25c-2.541,2.875 -5.416,5.625 -6.791,9.208l0.041,0Z" style="fill:#00160a;"/><path d="M891.375,568.083c-12.875,-2.375 -26.417,-0.958 -38.5,4.084c-1.667,0.708 -3.625,1.458 -5.25,0.625c-1.958,-1 -2.167,-3.959 -0.958,-5.834c1.208,-1.833 3.375,-2.833 5.458,-3.625c21.333,-8.208 46.25,-6.5 66.333,4.459c-7.625,5.333 -17.958,1.958 -27.125,0.25l0.042,0.041Z" style="fill:#00160a;"/><path d="M885.083,633.083c-1.083,2.125 -2.375,4.292 -4.5,5.375c-3.166,1.584 -7.25,0.084 -9.416,-2.708c-2.167,-2.792 -2.667,-6.583 -2.417,-10.083c0.542,-7.209 6.75,-15.292 13.583,-12.834c7.292,2.625 6.292,13.375 2.75,20.25Z" style="fill:#00160a;"/><path d="M760.208,620.75c0.75,6.125 -1.958,13 -7.541,15.583c-5.584,2.584 -13.584,-0.916 -14.167,-7.083c-0.208,-2.125 0.417,-4.25 1.083,-6.292c1.917,-5.958 5.834,-13 12.084,-12.458c4.791,0.417 7.958,5.458 8.583,10.25l-0.042,0Z" style="fill:#00160a;"/><path d="M705.667,576.875c-1,-3.208 2.875,-5.625 6.083,-6.667c18.875,-5.875 39.25,-6.833 58.542,-2.666c2.833,0.625 5.958,1.541 7.375,4.083c1.416,2.542 -0.75,6.667 -3.5,5.792c-18.959,-6.25 -40.042,-5.875 -58.792,0.958c-3.458,1.25 -8.625,2 -9.708,-1.5Z" style="fill:#00160a;"/><path d="M984.083,415.667c-1.875,29.416 -3.708,58.916 -1.958,88.333c1.333,22.917 4.875,45.667 5.208,68.625c0.917,66.292 -25.041,130.542 -60.416,186.625c84.875,57.083 148.875,144.583 177.625,242.75c-12.25,-7.625 -17.5,-22.417 -22.625,-35.917c-28.375,-74.416 -78.292,-140.5 -142.167,-188.083c-9.167,-6.833 -24.708,-12 -29.792,-1.75c-11.458,23.125 -28.333,43.542 -48.958,59.083c-7.458,5.625 -15.833,11.209 -21.667,18.292c0,0.583 0.084,1.167 0.084,1.75c-0,11.958 -9.709,21.667 -21.667,21.667c-8.125,-0 -15.208,-4.5 -18.917,-11.125c-53.958,-23.709 -97.833,-69.75 -118.458,-125c-39.417,27.333 -62.167,73.916 -70.875,121.083c-8.708,47.208 -5,95.708 -1.292,143.542c-3.958,2.666 -7.625,-3.792 -8.083,-8.5c-4.542,-47.917 -7.125,-96.709 2.833,-143.792c9.959,-47.083 33.709,-92.833 72.959,-120.708c-36.417,-79.292 -22.25,-176.584 -66.709,-251.667c-2.625,-4.458 -4.875,-11.417 -0.25,-13.75c1.709,-0.875 3.75,-0.583 5.667,-0.292c30.958,5.25 60.5,18.875 84.583,39.042c6.209,5.208 15.542,1.417 22.792,-2.208c55.833,-27.667 122.5,-32.584 181.792,-13.5c14.916,-28.625 36.833,-53.542 63.375,-71.959c5.125,-3.541 12.458,-6.75 17.041,-2.541l-0.125,-0Zm-191.5,386.916c19.125,1.667 38.584,3.334 57.292,-0.833c42.833,-9.5 73.542,-47.417 93.167,-86.625c22.458,-44.917 35.041,-94.792 36.625,-145c-13.834,11.125 -27.709,22.292 -41.542,33.417c-8.208,6.583 -17.167,14.708 -17,25.25c0.208,14.958 -9.042,29.666 -22.667,35.916c-13.625,6.25 -30.791,3.667 -42,-6.25c-12.625,-11.208 -19.791,-31.541 -36.625,-33c-19.833,-1.75 -29.291,23.709 -45.291,35.625c-20.334,15.167 -53.209,3.792 -63.375,-19.5c-1.917,-4.416 -1.25,-12.291 -5.667,-15c-14.125,-8.583 -29.708,-8.916 -48.125,-8.291c3.292,40.083 13,79.625 28.625,116.708c6.917,16.417 15.375,32.792 29,44.333c20.958,17.709 50.208,20.875 77.542,23.292l0.041,0l0,-0.042Zm115,-303.333c-6.166,11.792 -16.541,26.542 -28.958,21.792c8,-6.834 14.875,-14.917 20.333,-23.917c-61.833,-17.625 -130.291,-10.583 -187.25,19.208c4.917,5.917 10.917,10.917 17.667,14.667c-7.125,6.792 -18.125,-1.542 -24.875,-8.708c-22.958,-24.417 -54.333,-40.75 -87.5,-45.542c13.625,21.833 26.208,65.125 37.75,129.792c18.708,4.25 31.292,6.416 37.75,6.541c7.417,0.167 16.458,-0.625 19.708,-7.291c8.584,-17.625 30.042,-27.917 49.125,-23.542c19.125,4.375 34,22.958 34.042,42.542c12.417,-8.125 29,-9.417 42.5,-3.292c1.417,-16.708 14.042,-31.833 30.208,-36.208c16.167,-4.375 34.709,2.291 44.375,16c4.209,5.958 13.459,1.583 19.042,-3.125c11.542,-9.75 23.083,-19.459 34.583,-29.209c6.5,-5.5 13.625,-12.625 12.292,-21c-6.75,-41.583 -7.583,-84.083 -2.5,-125.916c-28.542,19.75 -52.208,46.5 -68.292,77.25l0,-0.042Zm-29.458,299.292c-27.75,18.833 -64.375,15.583 -97.667,11.541c-18.208,-2.208 -37,-4.625 -52.666,-14.166c-3.209,-1.959 -7.417,-4.209 -10.417,-1.875c18.667,23.25 42.792,42.083 69.917,54.541c4.041,1.834 9.958,2.917 11.875,-1.083c4.375,-9.208 17.708,-12.583 26,-6.667c6.708,4.834 16,0.209 22.666,-4.75c14.917,-11.125 28.542,-24 40.5,-38.291c-1.75,-3.459 -6.958,-1.417 -10.166,0.75l-0.042,-0Zm-157.375,-156.209c8.375,14.125 27.458,20.792 42.792,14.917c15.333,-5.875 25.125,-23.542 21.916,-39.625c-3.166,-16.083 -18.958,-28.75 -35.375,-28.333c-16.416,0.416 -31.541,13.833 -33.875,30.083c-1.166,7.875 0.5,16.125 4.542,22.958Zm127.458,-24.416c-1.958,11.666 2.584,23.958 10.875,32.416c6.084,6.209 14.459,10.584 23.125,10.292c15.542,-0.583 26.834,-15.417 31.625,-30.208c1.25,-3.875 2.25,-7.959 1.459,-11.917c-1,-5.167 -4.75,-9.333 -8.667,-12.833c-9.833,-8.792 -23.083,-15.459 -35.958,-12.5c-11.542,2.666 -20.5,13.125 -22.459,24.791l0,-0.041Z" style="fill:#00160a;"/><g><rect x="680.542" y="301.625" width="254.333" height="270.958" style="fill:#001d32;fill-opacity:0;"/><path d="M807.625,469.25c8.042,0.083 16,-1.958 25.917,-6.458l92.125,-42.084c6.083,-2.791 9.166,-8.25 9.166,-13.833c0,-5.583 -3.083,-10.958 -9.166,-13.75l-92.125,-42.083c-9.917,-4.5 -17.875,-6.542 -25.917,-6.459c-7.958,-0.083 -15.917,1.959 -25.917,6.459l-92.041,42.083c-6.084,2.792 -9.167,8.25 -9.167,13.75c0,5.5 3.083,11.042 9.167,13.833l92.041,42.084c10,4.5 17.959,6.541 25.917,6.458Zm0,-14.792c-6.167,0 -12.25,-1.583 -20.208,-5.25l-86.167,-39.208c-1.667,-0.75 -2.417,-1.875 -2.417,-3.167c0,-1.208 0.75,-2.333 2.417,-3.083l86.167,-39.208c7.958,-3.667 14.041,-5.25 20.208,-5.25c6.167,-0 12.25,1.583 20.292,5.25l86.166,39.208c1.584,0.75 2.417,1.875 2.417,3.083c0,1.292 -0.833,2.417 -2.417,3.167l-86.166,39.208c-8.042,3.667 -14.042,5.25 -20.292,5.25Zm-90.625,22.75c0,27.959 35.542,51.625 90.625,51.625c55.083,0 90.75,-23.666 90.75,-51.625l0,-49.375l-15.042,0l0,49.375c0,19.542 -29.541,37.5 -75.666,37.5c-46.125,0 -75.584,-17.958 -75.584,-37.5l0,-49.375l-15.041,0l-0,49.375l-0.042,0Zm91,-59.666c10.083,-0 19.833,-4.584 19.833,-10.667c0,-6.083 -9.708,-10.375 -19.833,-10.375c-10.125,0 -19.917,4.5 -19.917,10.375c0,5.875 9.917,10.667 19.917,10.667Zm-56.875,24.708l55.458,-29.375l-5.125,-9.625l-62.5,32.542l12.167,6.458Zm-12.167,91.75l12.167,0l0,-91.75l-12.167,-6l0,97.75Zm-7.375,1.875l0,24.583c0,7.375 4.75,12.167 12.167,12.167l2.542,0c7.375,0 12.166,-4.75 12.166,-12.167l0,-24.583c0,-7.375 -4.75,-12.167 -12.166,-12.167l-2.542,0c-7.375,0 -12.167,4.75 -12.167,12.167Z" style="fill:#001d32;fill-opacity:0.85;fill-rule:nonzero;"/></g><g><rect x="1920.75" y="368.5" width="254.333" height="270.958" style="fill:#001d32;fill-opacity:0;"/><path d="M2047.88,536.125c8.042,0.083 16,-1.958 25.917,-6.458l92.125,-42.084c6.083,-2.791 9.166,-8.25 9.166,-13.833c0,-5.583 -3.083,-10.958 -9.166,-13.75l-92.125,-42.083c-9.917,-4.5 -17.875,-6.542 -25.917,-6.459c-7.958,-0.083 -15.917,1.959 -25.917,6.459l-92.041,42.083c-6.084,2.792 -9.167,8.25 -9.167,13.75c0,5.5 3.083,11.042 9.167,13.833l92.041,42.084c10,4.5 17.959,6.541 25.917,6.458Zm0,-14.792c-6.167,0 -12.25,-1.583 -20.208,-5.25l-86.167,-39.208c-1.667,-0.75 -2.417,-1.875 -2.417,-3.167c0,-1.208 0.75,-2.333 2.417,-3.083l86.167,-39.208c7.958,-3.667 14.041,-5.25 20.208,-5.25c6.167,-0 12.25,1.583 20.292,5.25l86.166,39.208c1.584,0.75 2.417,1.875 2.417,3.083c0,1.292 -0.833,2.417 -2.417,3.167l-86.166,39.208c-8.042,3.667 -14.042,5.25 -20.292,5.25Zm-90.625,22.75c0,27.959 35.542,51.625 90.625,51.625c55.083,0 90.75,-23.666 90.75,-51.625l0,-49.375l-15.042,0l0,49.375c0,19.542 -29.541,37.5 -75.666,37.5c-46.125,0 -75.584,-17.958 -75.584,-37.5l0,-49.375l-15.041,0l-0,49.375l-0.042,0Zm91,-59.666c10.083,-0 19.833,-4.584 19.833,-10.667c0,-6.083 -9.708,-10.375 -19.833,-10.375c-10.125,0 -19.917,4.5 -19.917,10.375c0,5.875 9.917,10.667 19.917,10.667Zm-56.875,24.708l55.458,-29.375l-5.125,-9.625l-62.5,32.542l12.167,6.458Zm-12.167,91.75l12.167,0l0,-91.75l-12.167,-6l0,97.75Zm-7.375,1.875l0,24.583c0,7.375 4.75,12.167 12.167,12.167l2.542,0c7.375,0 12.166,-4.75 12.166,-12.167l0,-24.583c0,-7.375 -4.75,-12.167 -12.166,-12.167l-2.542,0c-7.375,0 -12.167,4.75 -12.167,12.167Z" style="fill:#001d32;fill-opacity:0.85;fill-rule:nonzero;"/></g><g><rect x="673.125" y="1284.75" width="182.292" height="194.25" style="fill:#001d32;fill-opacity:0;"/><path d="M764.25,1404.92c5.75,0.083 11.458,-1.417 18.583,-4.625l66.042,-30.167c4.375,-2 6.583,-5.917 6.583,-9.917c0,-4 -2.208,-7.833 -6.583,-9.875l-66.042,-30.166c-7.125,-3.209 -12.791,-4.709 -18.583,-4.625c-5.708,-0.084 -11.417,1.416 -18.583,4.625l-65.959,30.166c-4.375,2 -6.583,5.917 -6.583,9.875c-0,3.959 2.208,7.917 6.583,9.917l65.959,30.167c7.166,3.208 12.875,4.708 18.583,4.625Zm-0,-10.584c-4.417,0 -8.792,-1.125 -14.5,-3.75l-61.75,-28.083c-1.208,-0.542 -1.75,-1.333 -1.75,-2.292c0,-0.875 0.542,-1.666 1.75,-2.208l61.75,-28.083c5.708,-2.625 10.042,-3.75 14.5,-3.75c4.458,-0 8.792,1.125 14.542,3.75l61.75,28.083c1.125,0.542 1.75,1.333 1.75,2.208c-0,0.959 -0.584,1.75 -1.75,2.292l-61.75,28.083c-5.75,2.625 -10.042,3.75 -14.542,3.75Zm-64.958,16.292c-0,20.042 25.5,37 64.958,37c39.458,0 65.042,-16.958 65.042,-37l-0,-35.417l-10.792,0l-0,35.417c-0,14 -21.208,26.875 -54.25,26.875c-33.042,0 -54.167,-12.875 -54.167,-26.875l0,-35.417l-10.791,0l-0,35.417Zm65.25,-42.792c7.25,0 14.208,-3.291 14.208,-7.625c0,-4.333 -6.958,-7.458 -14.208,-7.458c-7.25,0 -14.292,3.208 -14.292,7.458c0,4.25 7.125,7.625 14.292,7.625Zm-40.75,17.709l39.75,-21.042l-3.709,-6.917l-44.791,23.334l8.708,4.625l0.042,-0Zm-8.709,65.791l8.709,0l-0,-65.791l-8.709,-4.292l0,70.083Zm-5.291,1.334l-0,17.625c-0,5.291 3.416,8.708 8.708,8.708l1.792,-0c5.291,-0 8.708,-3.417 8.708,-8.708l0,-17.625c0,-5.292 -3.417,-8.709 -8.708,-8.709l-1.792,0c-5.292,0 -8.708,3.417 -8.708,8.709Z" style="fill:#001d32;fill-opacity:0.85;fill-rule:nonzero;"/></g><g><rect x="1943.17" y="1258.83" width="254.333" height="270.958" style="fill:#001d32;fill-opacity:0;"/><path d="M2070.29,1426.46c8.041,0.084 16,-1.958 25.916,-6.458l92.125,-42.083c6.084,-2.792 9.167,-8.25 9.167,-13.834c0,-5.583 -3.083,-10.958 -9.167,-13.75l-92.125,-42.083c-9.916,-4.5 -17.875,-6.542 -25.916,-6.458c-7.959,-0.084 -15.917,1.958 -25.917,6.458l-92.042,42.083c-6.083,2.792 -9.166,8.25 -9.166,13.75c-0,5.5 3.083,11.042 9.166,13.834l92.042,42.083c10,4.5 17.958,6.542 25.917,6.458Zm-0,-14.791c-6.167,-0 -12.25,-1.584 -20.209,-5.25l-86.166,-39.209c-1.667,-0.75 -2.417,-1.875 -2.417,-3.166c-0,-1.209 0.75,-2.334 2.417,-3.084l86.166,-39.208c7.959,-3.667 14.042,-5.25 20.209,-5.25c6.166,0 12.25,1.583 20.291,5.25l86.167,39.208c1.583,0.75 2.417,1.875 2.417,3.084c-0,1.291 -0.834,2.416 -2.417,3.166l-86.167,39.209c-8.041,3.666 -14.041,5.25 -20.291,5.25Zm-90.625,22.75c-0,27.958 35.541,51.625 90.625,51.625c55.083,-0 90.75,-23.667 90.75,-51.625l-0,-49.375l-15.042,-0l0,49.375c0,19.541 -29.542,37.5 -75.667,37.5c-46.125,-0 -75.583,-17.959 -75.583,-37.5l0,-49.375l-15.042,-0l0,49.375l-0.041,-0Zm91,-59.667c10.083,-0 19.833,-4.583 19.833,-10.667c-0,-6.083 -9.708,-10.375 -19.833,-10.375c-10.125,0 -19.917,4.5 -19.917,10.375c-0,5.875 9.917,10.667 19.917,10.667Zm-56.875,24.708l55.458,-29.375l-5.125,-9.625l-62.5,32.542l12.167,6.458Zm-12.167,91.75l12.167,0l-0,-91.75l-12.167,-6l-0,97.75Zm-7.375,1.875l-0,24.584c-0,7.375 4.75,12.166 12.167,12.166l2.541,0c7.375,0 12.167,-4.75 12.167,-12.166l0,-24.584c0,-7.375 -4.75,-12.166 -12.167,-12.166l-2.541,-0c-7.375,-0 -12.167,4.75 -12.167,12.166Z" style="fill:#001d32;fill-opacity:0.85;fill-rule:nonzero;"/></g></svg>