<?xml version="1.0" encoding="UTF-8"?><svg id="b" xmlns="http://www.w3.org/2000/svg" xmlns:xlink="http://www.w3.org/1999/xlink" viewBox="0 0 512 512"><defs><clipPath id="d"><rect width="512" height="512" style="fill:none;"/></clipPath></defs><g id="c"><g style="clip-path:url(#d);"><g><path d="M443.86,375.54v-24.23c0-3.77,3.06-6.83,6.83-6.83h47.04c4.77,0,8.07,4.76,6.4,9.23l-7.29,19.43c-.58,1.55-.58,3.25,0,4.8l7.29,19.43c1.67,4.47-1.63,9.23-6.4,9.23h-47.04c-3.77,0-6.83-3.06-6.83-6.83v-24.23Z" style="fill:#fec165;"/><path d="M68.14,375.54v-24.23c0-3.77-3.06-6.83-6.83-6.83H14.27c-4.77,0-8.07,4.76-6.4,9.23l7.29,19.43c.58,1.55,.58,3.25,0,4.8l-7.29,19.43c-1.67,4.47,1.63,9.23,6.4,9.23H61.31c3.77,0,6.83-3.06,6.83-6.83v-24.23Z" style="fill:#fec165;"/><path d="M504.13,397.36c1.67,4.47-1.63,9.23-6.4,9.23h-23.53c4.77,0,8.07-4.76,6.4-9.23l-7.29-19.42c-.58-1.55-.58-3.25,0-4.8l7.29-19.43c1.67-4.47-1.63-9.23-6.4-9.23h23.53c4.77,0,8.07,4.76,6.4,9.23l-7.29,19.43c-.58,1.55-.58,3.25,0,4.8l7.29,19.42Z" style="fill:#fdb541;"/><path d="M68.14,351.31v48.45c0,3.77-3.06,6.83-6.83,6.83h-23.53c3.77,0,6.83-3.06,6.83-6.83v-48.45c0-3.77-3.06-6.83-6.83-6.83h23.53c3.77,0,6.83,3.06,6.83,6.83" style="fill:#fdb541;"/><path d="M443.86,375.54v-24.23c0-3.77,3.06-6.83,6.83-6.83h47.04c4.77,0,8.07,4.76,6.4,9.23l-7.29,19.43c-.58,1.55-.58,3.25,0,4.8l7.29,19.43c1.67,4.47-1.63,9.23-6.4,9.23h-47.04c-3.77,0-6.83-3.06-6.83-6.83v-24.23Z" style="fill:none; stroke:#000; stroke-linecap:round; stroke-linejoin:round; stroke-width:15px;"/><path d="M68.14,375.54v-24.23c0-3.77-3.06-6.83-6.83-6.83H14.27c-4.77,0-8.07,4.76-6.4,9.23l7.29,19.43c.58,1.55,.58,3.25,0,4.8l-7.29,19.43c-1.67,4.47,1.63,9.23,6.4,9.23H61.31c3.77,0,6.83-3.06,6.83-6.83v-24.23Z" style="fill:none; stroke:#000; stroke-linecap:round; stroke-linejoin:round; stroke-width:15px;"/><path d="M211.86,21.57c-37.04,5.36-89.38,14.34-124.44,26.23-4.01,1.36-6.69,5.13-6.69,9.36V326.29c0,42.17,20,82.44,55.29,109.9,27.61,21.49,66.75,43.78,119.98,57.42,53.23-13.64,92.37-35.93,119.98-57.42,35.29-27.46,55.29-67.73,55.29-109.9V57.17c0-4.23-2.68-8.01-6.69-9.36-35.06-11.89-87.39-20.87-124.44-26.23-29.28-4.24-59.01-4.24-88.29,0" style="fill:#adc6ff;"/><path d="M431.27,57.17V326.29c0,42.17-20,82.44-55.29,109.9-20.31,15.81-46.86,32.05-80.67,44.97,24.49-11.65,44.55-24.97,60.67-38,35.29-28.52,55.29-70.35,55.29-114.15V49.47c0-2.4-.8-4.66-2.18-6.44,5.44,1.53,10.63,3.12,15.49,4.77,4.01,1.36,6.69,5.14,6.69,9.37" style="fill:#adc6ff;"/><path d="M431.27,97.07V57.17c0-4.23-2.68-8.01-6.69-9.36-35.06-11.89-87.39-20.87-124.44-26.23-29.28-4.24-59.01-4.24-88.29,0-37.04,5.36-89.38,14.34-124.43,26.23-4.01,1.36-6.69,5.13-6.69,9.36V326.29c0,42.17,20,82.44,55.29,109.9,27.61,21.49,66.75,43.78,119.98,57.42,53.23-13.64,92.37-35.93,119.98-57.42,35.29-27.46,55.28-67.73,55.28-109.9V132.17" style="fill:none; stroke:#000; stroke-linecap:round; stroke-linejoin:round; stroke-width:15px;"/><path d="M220.08,57.58c-31.09,4.5-75.41,12.13-103.9,22.26-1.68,.6-2.81,2.19-2.81,3.97v237.04c0,34.31,16.27,67.09,44.99,89.43,22.47,17.49,54.32,35.63,97.64,46.73,43.32-11.1,75.17-29.24,97.64-46.73,28.72-22.35,44.99-55.12,44.99-89.43V83.81c0-1.79-1.12-3.38-2.81-3.97-28.48-10.13-72.81-17.76-103.9-22.26-23.82-3.45-48.02-3.45-71.85,0" style="fill:#f9f7f8;"/><path d="M398.63,83.81v237.04c0,34.32-16.28,67.09-44.99,89.43-19.47,15.15-45.98,30.8-80.89,41.92,25.26-10.57,45.33-23.47,60.89-36.05,28.71-23.19,44.99-57.21,44.99-92.83V77.26c0-1.19-.47-2.3-1.25-3.1,6.62,1.79,12.84,3.69,18.44,5.68,1.68,.6,2.81,2.19,2.81,3.97" style="fill:#efedef;"/><path d="M220.08,57.58c-31.09,4.5-75.41,12.13-103.9,22.26-1.68,.6-2.81,2.19-2.81,3.97v237.04c0,34.31,16.27,67.09,44.99,89.43,22.47,17.49,54.32,35.63,97.64,46.73,43.32-11.1,75.17-29.24,97.64-46.73,28.72-22.35,44.99-55.12,44.99-89.43V83.81c0-1.79-1.12-3.38-2.81-3.97-28.48-10.13-72.81-17.76-103.9-22.26-23.82-3.45-48.02-3.45-71.85,0Z" style="fill:none; stroke:#000; stroke-linecap:round; stroke-linejoin:round; stroke-width:15px;"/><path d="M459.77,368.2H52.23c-3.4,0-6.15-2.75-6.15-6.15h0v-76.52c0-3.4,2.75-6.15,6.15-6.15H459.77c3.4,0,6.15,2.75,6.15,6.15v76.52c0,3.4-2.76,6.15-6.15,6.15" style="fill:#fddba6;"/><path d="M465.92,285.53v76.51c0,3.4-2.75,6.16-6.15,6.16h-20c3.4,0,6.15-2.76,6.15-6.16v-76.51c0-3.4-2.75-6.16-6.15-6.16h20c3.4,0,6.15,2.76,6.15,6.16" style="fill:#fece85;"/><path d="M178.92,368.2H52.23c-3.4,0-6.15-2.75-6.15-6.15v-76.52c0-3.4,2.75-6.15,6.15-6.15H459.77c3.4,0,6.15,2.75,6.15,6.15v76.52c0,3.4-2.76,6.15-6.15,6.15H213.82" style="fill:none; stroke:#000; stroke-linecap:round; stroke-linejoin:round; stroke-width:15px;"/><path d="M208.18,302.71v42.11c.47,.08,14.76,0,14.76,0" style="fill:none; stroke:#000; stroke-linecap:round; stroke-linejoin:round; stroke-width:15px;"/><path d="M256.99,302.71v42.11c.47,.08,14.76,0,14.76,0" style="fill:none; stroke:#000; stroke-linecap:round; stroke-linejoin:round; stroke-width:15px;"/><path d="M319.52,303.1h-17.6v41.76h17.6" style="fill:none; stroke:#000; stroke-linecap:round; stroke-linejoin:round; stroke-width:15px;"/><path d="M318.23,323.98h-16.3" style="fill:none; stroke:#000; stroke-linecap:round; stroke-linejoin:round; stroke-width:15px;"/><path d="M434.75,303.1h-17.6v41.76h17.6" style="fill:none; stroke:#000; stroke-linecap:round; stroke-linejoin:round; stroke-width:15px;"/><path d="M433.45,323.98h-16.3" style="fill:none; stroke:#000; stroke-linecap:round; stroke-linejoin:round; stroke-width:15px;"/><path d="M381.6,306.31c-3.48-2.35-7.58-3.61-11.78-3.6-11.64,0-21.07,9.44-21.07,21.08s9.44,21.07,21.07,21.07,18.19-9.44,18.19-21.07h-12.61" style="fill:none; stroke:#000; stroke-linecap:round; stroke-linejoin:round; stroke-width:15px;"/><path d="M110.11,306.31c-3.48-2.35-7.58-3.61-11.78-3.6-11.64,0-21.07,9.44-21.07,21.08s9.44,21.07,21.07,21.07c4.73,0,8.61-1.56,11.57-4.19,.61-.54,1.18-1.13,1.71-1.76" style="fill:none; stroke:#000; stroke-linecap:round; stroke-linejoin:round; stroke-width:15px;"/><path d="M179.99,323.79c0,11.64-9.44,21.07-21.07,21.07s-21.07-9.43-21.07-21.07,9.44-21.07,21.07-21.07,21.07,9.43,21.07,21.07Z" style="fill:none; stroke:#000; stroke-linecap:round; stroke-linejoin:round; stroke-width:15px;"/><path d="M249.85,159.39h-64.17v53.45c0,3.51,2.28,6.6,5.63,7.64,5.49,1.69,13.15,4.06,14.25,4.38,30.89,9.04,74,9.41,104.1-5.52,2.69-1.33,4.35-4.12,4.35-7.12v-52.83h-64.17Z" style="fill:#8d9ca8;"/><path d="M314.02,159.39v52.83c0,3-1.66,5.79-4.35,7.12-5.24,2.6-10.87,4.73-16.76,6.44,.73-1.24,1.11-2.65,1.11-4.08v-62.31h20Z" style="fill:#7a8d98;"/><path d="M249.85,159.39h-64.17v53.45c0,3.51,2.28,6.6,5.63,7.64,5.49,1.69,13.15,4.06,14.25,4.38,30.89,9.04,74,9.41,104.1-5.52,2.69-1.33,4.35-4.12,4.35-7.12v-52.83h-64.17Z" style="fill:none; stroke:#000; stroke-linecap:round; stroke-linejoin:round; stroke-width:15px;"/><path d="M245.99,100.69l-102.83,43.51c-1.57,.66-1.57,2.88,0,3.54l102.83,43.51c2.47,1.05,5.26,1.05,7.73,0l102.83-43.51c1.57-.66,1.57-2.88,0-3.54l-102.83-43.51c-2.47-1.04-5.26-1.04-7.73,0" style="fill:#596c76;"/><path d="M356.55,147.74l-102.83,43.5c-2.47,1.05-5.26,1.05-7.73,0l-15.52-6.57,87.31-36.93c1.56-.66,1.56-2.88,0-3.54l-87.31-36.94,15.52-6.57c2.47-1.04,5.26-1.04,7.73,0l102.83,43.51c1.56,.66,1.56,2.88,0,3.54" style="fill:#465a61;"/><path d="M245.99,100.69l-102.83,43.51c-1.57,.66-1.57,2.88,0,3.54l102.83,43.51c2.47,1.05,5.26,1.05,7.73,0l102.83-43.51c1.57-.66,1.57-2.88,0-3.54l-102.83-43.51c-2.47-1.04-5.26-1.04-7.73,0Z" style="fill:none; stroke:#000; stroke-linecap:round; stroke-linejoin:round; stroke-width:15px;"/><path d="M256.17,146.09h101.55v49.2" style="fill:none; stroke:#000; stroke-linecap:round; stroke-linejoin:round; stroke-width:15px;"/><path d="M357.72,234.45c-6.79,0-12.29-5.5-12.29-12.29v-14.58c0-6.79,5.5-12.29,12.29-12.29s12.29,5.5,12.29,12.29v14.58c0,6.79-5.5,12.29-12.29,12.29" style="fill:#596c76;"/><path d="M357.72,234.45h0c-6.79,0-12.29-5.5-12.29-12.29v-14.58c0-6.79,5.5-12.29,12.29-12.29s12.29,5.5,12.29,12.29v14.58c0,6.79-5.5,12.29-12.29,12.29Z" style="fill:none; stroke:#000; stroke-linecap:round; stroke-linejoin:round; stroke-width:15px;"/></g></g></g></svg>