<?xml version="1.0" encoding="UTF-8"?><svg id="a" xmlns="http://www.w3.org/2000/svg" xmlns:xlink="http://www.w3.org/1999/xlink" viewBox="0 0 512 512"><defs><clipPath id="c"><rect width="512" height="512" style="fill:none;"/></clipPath></defs><g id="b"><g style="clip-path:url(#c);"><g id="d"><path id="e" d="M392.19,163.28v107.2c0,6.58-3.53,12.62-9.26,15.85-17.73,10.04-60.72,29.52-126.92,29.52s-109.21-19.49-126.94-29.52c-5.72-3.23-9.25-9.28-9.25-15.85v-107.2H392.19Z" style="fill:#557983;"/><path id="f" d="M392.19,163.28v58.92l-129.33,38.11c-4.47,1.32-9.24,1.32-13.71,0l-129.32-38.1v-58.93H392.19Z" style="fill:#47666b;"/><path id="g" d="M392.19,163.28v107.2c0,6.58-3.53,12.62-9.26,15.85-5.79,3.28-14.27,7.57-25.39,11.85,3.59-3.43,5.62-8.18,5.62-13.14v-121.76h29.03Z" style="fill:#47666b;"/><path id="h" d="M392.18,163.28v107.2c0,6.57-3.53,12.62-9.25,15.85-17.73,10.03-60.72,29.52-126.93,29.52s-109.21-19.49-126.94-29.52c-5.72-3.23-9.25-9.29-9.25-15.85v-107.2H392.18Z" style="fill:none; stroke:#000; stroke-linecap:round; stroke-linejoin:round; stroke-width:15px;"/><path id="i" d="M249.14,81.77L12.72,151.44c-6.96,2.05-6.96,11.92,0,13.97l236.42,69.66c4.48,1.32,9.24,1.32,13.72,0l236.42-69.67c6.97-2.05,6.97-11.92,0-13.97l-236.42-69.66c-4.48-1.32-9.24-1.32-13.72,0" style="fill:#698d97;"/><path id="j" d="M499.28,165.4l-236.42,69.67c-4.47,1.32-9.24,1.32-13.71,0l-39.13-11.53,266.98-78.67,22.29,6.56c6.97,2.06,6.97,11.92,0,13.97" style="fill:#557983;"/><path id="k" d="M183.32,215.67l65.82,19.4c4.48,1.32,9.24,1.32,13.72,0l236.42-69.67c6.96-2.05,6.96-11.92,0-13.97l-67.95-20.02" style="fill:none; stroke:#000; stroke-linecap:round; stroke-linejoin:round; stroke-width:15px;"/><path id="l" d="M398.81,121.83l-135.95-40.06c-4.48-1.32-9.24-1.32-13.72,0L12.72,151.44c-6.96,2.05-6.96,11.92,0,13.97l138.67,40.86" style="fill:none; stroke:#000; stroke-linecap:round; stroke-linejoin:round; stroke-width:15px;"/><path id="m" d="M469.62,242.66v-68.52l-207.5-17.1" style="fill:none; stroke:#000; stroke-linecap:round; stroke-linejoin:round; stroke-width:15px;"/><path id="n" d="M493.01,266.96c0,12.92-10.47,23.39-23.39,23.39s-23.39-10.47-23.39-23.39,10.47-23.39,23.39-23.39,23.39,10.47,23.39,23.39" style="fill:#fcdd45;"/><path id="o" d="M493,266.97c0,12.91-10.47,23.38-23.38,23.38-5.03,0-9.71-1.59-13.52-4.31,9.16-1.52,16.15-9.49,16.15-19.08s-6.99-17.57-16.15-19.09c3.95-2.81,8.67-4.32,13.52-4.31,12.91,0,23.38,10.47,23.38,23.4" style="fill:#f8c52d;"/><path id="p" d="M458.41,363.19c-6.75,0-12.21-5.51-12.14-12.27,.31-29.37,2.86-60.57,23.34-60.57s23.03,31.2,23.34,60.57c.07,6.75-5.38,12.27-12.14,12.27h-22.41Z" style="fill:#f8c52d;"/><path id="q" d="M492.97,350.92c.06,6.76-5.39,12.27-12.15,12.27h-22.41c-.16,0-.31,0-.46-.01,6.54-.24,11.75-5.66,11.67-12.26-.24-22.46-1.78-46-11.67-55.82,3.03-3.02,6.86-4.74,11.67-4.74,20.48,0,23.03,31.2,23.35,60.56" style="fill:#e7b729;"/><path id="r" d="M493.01,266.96c0,12.92-10.47,23.39-23.39,23.39s-23.39-10.47-23.39-23.39,10.47-23.39,23.39-23.39,23.39,10.47,23.39,23.39Z" style="fill:none; stroke:#000; stroke-linecap:round; stroke-linejoin:round; stroke-width:15px;"/><path id="s" d="M458.41,363.19c-6.75,0-12.21-5.51-12.14-12.27,.31-29.37,2.86-60.57,23.34-60.57s23.03,31.2,23.34,60.57c.07,6.75-5.38,12.27-12.14,12.27h-22.41Z" style="fill:none; stroke:#000; stroke-linecap:round; stroke-linejoin:round; stroke-width:15px;"/><path id="t" d="M392.18,241.9c-19.02,13.18-65.15,38.8-136.18,38.8s-117.16-25.62-136.19-38.8" style="fill:none; stroke:#000; stroke-linecap:round; stroke-linejoin:round; stroke-width:15px;"/><path id="u" d="M333.89,430.65c11.98,3.66,27.04-10.88,33.63-32.47,6.59-21.59,2.22-42.06-9.76-45.71L68.53,264.15l-23.87,78.18,289.24,88.32Z" style="fill:#31a7fb;"/><path id="v" d="M243.94,360.45c-6.59,21.59-21.65,36.12-33.63,32.47l-165.66-50.58,23.87-78.18,165.66,50.58c11.97,3.66,16.35,24.12,9.76,45.71" style="fill:#1c96f9;"/><path id="w" d="M222.9,354.02c-6.59,21.59-21.65,36.12-33.63,32.47l-144.62-44.16,23.87-78.18,144.62,44.16c11.97,3.66,16.35,24.12,9.76,45.71" style="fill:#64b9fc;"/><path id="x" d="M367.52,398.19c-6.59,21.58-21.65,36.12-33.63,32.47l-26.5-8.09c11.99,3.66,27.04-10.88,33.63-32.47,6.59-21.59,2.23-42.06-9.76-45.72l26.5,8.09c11.98,3.66,16.35,24.12,9.76,45.72" style="fill:#1c96f9;"/><path id="y" d="M333.89,430.65c11.98,3.66,27.04-10.88,33.63-32.47,6.59-21.59,2.22-42.06-9.76-45.71L68.53,264.15l-23.87,78.18,289.24,88.32Z" style="fill:none; stroke:#000; stroke-linecap:round; stroke-linejoin:round; stroke-width:15px;"/><path id="z" d="M78.28,309.87c-6.59,21.59-21.65,36.12-33.63,32.47-11.98-3.66-16.35-24.12-9.76-45.71,6.59-21.59,21.65-36.12,33.63-32.46,11.98,3.66,16.35,24.13,9.76,45.71" style="fill:#1785f8;"/><path id="aa" d="M78.28,309.87c-6.59,21.58-21.64,36.13-33.63,32.47-3.95-1.21-7.07-4.24-9.25-8.54,8.55-4.78,16.77-16.08,21.19-30.55,4.42-14.47,3.92-28.43-.51-37.17,4.21-2.35,8.49-3.12,12.44-1.92,11.99,3.66,16.35,24.12,9.76,45.72" style="fill:#1576f7;"/><path id="ab" d="M81.32,292.23c.49-14.15-4.19-25.45-12.8-28.08-11.98-3.66-27.04,10.88-33.63,32.47-6.59,21.59-2.22,42.06,9.76,45.71,9.06,2.77,19.87-4.87,27.46-18.09" style="fill:none; stroke:#000; stroke-linecap:round; stroke-linejoin:round; stroke-width:15px;"/><path id="ac" d="M213.14,308.31c11.97,3.66,16.35,24.12,9.76,45.71-6.59,21.59-21.65,36.12-33.63,32.47" style="fill:none; stroke:#000; stroke-linecap:round; stroke-linejoin:round; stroke-width:15px;"/></g></g></g></svg>