<?xml version="1.0" encoding="UTF-8" standalone="no"?>
<!DOCTYPE svg PUBLIC "-//W3C//DTD SVG 1.1//EN" "http://www.w3.org/Graphics/SVG/1.1/DTD/svg11.dtd">
<svg width="100%" height="100%" viewBox="0 0 524 491" version="1.1" xmlns="http://www.w3.org/2000/svg" xmlns:xlink="http://www.w3.org/1999/xlink" xml:space="preserve" xmlns:serif="http://www.serif.com/" style="fill-rule:evenodd;clip-rule:evenodd;stroke-linejoin:round;stroke-miterlimit:2;">
    <path d="M37.077,234.537C37.077,234.537 14.848,215.548 46.034,149.983C77.22,84.419 140.378,98.789 180.748,73C240.397,34.896 215.948,5.076 290.325,0.27C383.971,-5.782 389.275,92.017 436.127,92.017C439.209,92.017 512.167,62.702 522.846,142.954C528.224,183.37 436.127,245.002 436.127,245.002C436.127,245.002 397.797,279.745 395.693,296.902C386.865,368.852 405.274,451.26 198.971,489.197C172.29,494.104 127.987,476.356 103.544,443.572C84.396,417.887 7.582,436.11 0.412,351.669C-3.202,309.108 37.077,234.537 37.077,234.537Z" style="fill:rgb(173,198,255);"/>
    <path d="M174.686,177.491C175.382,177.08 176.279,177.312 176.689,178.007L178.345,180.801C184.92,191.832 187.55,195.415 190.346,197.034C192.643,198.365 195.018,197.952 199.367,195.402L199.947,195.053C202.682,193.349 215.196,184.753 220.034,181.666C220.715,181.232 221.62,181.431 222.054,182.113C222.489,182.794 222.289,183.698 221.608,184.132L220.863,184.612C215.471,188.107 203.359,196.425 201.215,197.707C195.951,200.855 192.538,201.562 189.118,199.699L188.879,199.565C185.205,197.436 182.346,193.352 174.17,179.494C173.759,178.798 173.991,177.901 174.686,177.491Z" style="fill:white;fill-rule:nonzero;"/>
    <path d="M198.374,194.398C199.175,194.291 199.911,194.853 200.018,195.654C200.516,199.375 201.709,203.106 203.604,206.851C203.968,207.572 203.68,208.452 202.959,208.816C202.238,209.181 201.358,208.892 200.993,208.171C198.955,204.141 197.661,200.097 197.119,196.042C197.011,195.241 197.574,194.505 198.374,194.398Z" style="fill:white;fill-rule:nonzero;"/>
    <path d="M368.778,283.737C368.542,284.334 368.025,285.161 367.425,285.943L367.942,286.48L368.542,287.119L368.676,287.247C368.734,287.299 368.78,287.33 368.813,287.339C369.007,287.367 369.142,287.546 369.116,287.741C369.088,287.932 368.91,288.07 368.716,288.042C368.54,288.038 367.902,287.789 367.141,287.171C367.003,287.059 366.866,286.93 366.726,286.789C366.288,287.278 365.844,287.699 365.461,287.96C364.898,288.349 364.41,288.38 364.177,288.222C363.947,288.069 363.727,287.554 364.1,286.513C364.159,286.324 364.36,286.225 364.546,286.284C364.732,286.343 364.834,286.541 364.776,286.729C364.719,286.922 364.711,287.099 364.71,287.24L364.927,287.093C365.003,287.038 365.081,286.977 365.153,286.904C365.415,286.647 365.706,286.334 365.999,285.996C365.535,285.456 365.062,284.823 364.679,284.092C364.493,283.735 364.344,283.357 364.203,282.959C364.105,282.737 364.206,282.476 364.429,282.377C364.651,282.279 364.912,282.381 365.01,282.603C365.436,283.496 365.981,284.266 366.518,284.925L366.697,285.14C367.187,284.499 367.607,283.851 367.798,283.357C367.904,283.088 368.209,282.954 368.479,283.057C368.751,283.164 368.885,283.468 368.778,283.737Z" style="fill:white;"/>
    <path d="M151.137,99.21L150.245,99.049C145.267,98.123 141.449,96.987 134.318,94.515C133.501,94.231 133.068,93.338 133.351,92.521C133.635,91.703 134.527,91.27 135.345,91.553L137.122,92.165C143.378,94.3 146.887,95.278 151.681,96.124C167.81,98.968 179.887,90.687 180.875,74.894C180.929,74.03 181.673,73.373 182.537,73.427C183.401,73.482 184.057,74.226 184.003,75.089C182.892,92.851 169.019,102.363 151.137,99.21Z" style="fill:rgb(0,22,10);"/>
    <path d="M191.44,116.123L192.339,118.123L194.391,118.712C194.502,118.744 194.566,118.86 194.534,118.97C194.524,119.005 194.506,119.036 194.481,119.061L192.922,120.613L193.009,122.846C193.014,122.961 192.924,123.058 192.809,123.063C192.77,123.064 192.731,123.055 192.697,123.035L190.933,122.03C190.877,121.999 190.811,121.994 190.752,122.018L188.865,122.767C188.758,122.81 188.636,122.758 188.593,122.65C188.579,122.614 188.575,122.574 188.582,122.536L188.979,120.337L187.652,118.583C187.582,118.491 187.6,118.36 187.692,118.291C187.721,118.269 187.754,118.255 187.789,118.25L189.903,117.953L191.072,116.098C191.134,116 191.263,115.971 191.36,116.032C191.395,116.054 191.423,116.086 191.44,116.123Z" style="fill:rgb(0,22,10);"/>
    <path d="M397.589,65.858C398.395,65.801 399.095,66.407 399.152,67.213C399.21,68.019 398.603,68.719 397.797,68.776C392.025,69.188 387.492,71.425 385.479,76.958C385.357,77.291 385.257,77.612 385.176,77.918L385.121,78.128L385.21,77.943C387.745,72.766 392.635,69.169 398.302,68.256L398.673,68.2C399.473,68.089 400.212,68.647 400.324,69.447C400.435,70.247 399.877,70.986 399.077,71.098C393.813,71.832 389.309,75.331 387.345,80.35L387.218,80.687C386.284,83.251 384.043,84.482 382.601,82.286C381.721,80.948 381.779,78.57 382.73,75.957C385.142,69.33 390.676,66.351 397.589,65.858Z" style="fill:white;fill-rule:nonzero;"/>
    <path d="M390.927,54.961C391.733,54.904 392.432,55.51 392.49,56.316C392.547,57.122 391.941,57.822 391.135,57.879C381.954,58.534 373.903,64.497 370.699,73.298C369.75,75.907 369.573,78.138 369.913,79.268L369.954,79.394L370.019,79.3C370.183,79.053 370.366,78.697 370.547,78.235L370.624,78.031C374.007,68.735 382.211,62.224 391.834,60.881C392.634,60.769 393.373,61.327 393.485,62.127C393.596,62.927 393.038,63.667 392.238,63.778C383.821,64.953 376.626,70.571 373.527,78.62L373.373,79.032C372.118,82.479 369.404,83.969 367.67,81.329C366.481,79.52 366.564,76.105 367.95,72.298C371.552,62.402 380.605,55.698 390.927,54.961Z" style="fill:white;fill-rule:nonzero;"/>
    <path d="M381.948,40.432C382.754,40.374 383.454,40.981 383.511,41.787C383.569,42.592 382.962,43.292 382.156,43.35C369.061,44.284 357.578,52.789 353.009,65.342C351.454,69.614 351.324,73.235 352.174,74.74L352.251,74.867C352.377,75.058 352.334,75.064 352.367,75.038L352.386,75.025C352.816,74.789 353.385,73.984 353.904,72.65L354.007,72.376C358.673,59.554 369.987,50.576 383.258,48.723C384.058,48.611 384.798,49.169 384.909,49.969C385.021,50.77 384.463,51.509 383.663,51.62C371.612,53.302 361.319,61.369 356.926,72.919L356.756,73.376C355.132,77.837 351.876,79.624 349.806,76.474C348.263,74.125 348.375,69.52 350.26,64.341C355.227,50.694 367.712,41.447 381.948,40.432Z" style="fill:white;fill-rule:nonzero;"/>
    <path d="M365.92,26.777C366.713,26.622 367.481,27.138 367.636,27.931C367.792,28.724 367.275,29.492 366.482,29.648C354.627,31.969 345.093,41.024 342.328,53.001C341.392,57.055 341.675,60.351 342.594,61.608L342.716,61.766L342.725,61.788L342.742,61.775C343.071,61.478 343.455,60.72 343.754,59.544L343.816,59.286C346.66,46.968 356.051,37.433 368.047,34.231C368.827,34.023 369.629,34.486 369.837,35.267C370.045,36.047 369.582,36.849 368.801,37.057C357.994,39.942 349.503,48.451 346.778,59.477L346.666,59.944C345.664,64.289 342.784,66.363 340.451,63.612C338.744,61.601 338.326,57.333 339.478,52.343C342.505,39.232 352.942,29.318 365.92,26.777Z" style="fill:white;fill-rule:nonzero;"/>
    <path d="M203.777,207.173L204.622,206.866C212.602,204.002 219.336,202.739 221.046,204.479C222.546,206.005 223.883,208.769 225.15,212.823C225.391,213.594 224.962,214.414 224.19,214.655C223.419,214.896 222.599,214.466 222.358,213.695C221.262,210.19 220.144,207.83 219.086,206.664L219.043,206.618L219.005,206.62C218.805,206.579 218.505,206.558 218.122,206.566C217.279,206.582 216.127,206.731 214.751,207.003C211.921,207.564 208.343,208.607 204.79,209.918C198.849,212.109 193.9,214.684 191.166,217.01C190.163,217.864 188.33,215.485 190.094,214.123C193.267,211.671 198.079,209.275 203.777,207.173Z" style="fill:white;fill-rule:nonzero;"/>
    <path d="M199.762,179.541C199.762,184.42 204.921,189.702 206.019,190.003C206.798,190.216 193.374,198.963 193.374,198.963C188.524,199.601 185.675,195.501 185.675,189.393C185.675,188.586 199.762,178.733 199.762,179.541Z" style="fill:white;fill-rule:nonzero;"/>
    <path d="M183.933,182.105C185.632,181.775 186.786,180.359 186.511,178.943C186.236,177.527 184.635,176.647 182.936,176.977C181.237,177.307 180.082,178.723 180.357,180.139C180.633,181.555 182.233,182.435 183.933,182.105Z" style="fill:rgb(255,182,29);"/>
    <path d="M357.072,18.666C357.868,18.527 358.626,19.06 358.764,19.856C358.903,20.652 358.37,21.409 357.574,21.548C353.789,22.207 349.972,24.498 346.037,28.142C340.927,32.874 337.552,39.412 335.691,48.13C334.191,55.154 335.575,63.93 339.494,71.645C343.953,80.423 351.841,82.592 361.038,84.272C370.48,85.996 373.089,84.931 382.011,81.76L382.832,81.461C384.051,81 389.752,78.769 391.123,78.354C394.007,77.482 395.975,77.555 397.402,79.076C397.954,79.665 397.925,80.59 397.336,81.143C396.784,81.661 395.936,81.668 395.376,81.181L395.268,81.077C394.847,80.629 393.977,80.577 392.226,81.079L391.97,81.155C390.651,81.553 384.469,83.98 383.668,84.272C374.032,87.789 370.764,89.022 360.513,87.15C350.354,85.294 341.735,82.516 336.886,72.97C332.671,64.673 331.186,55.217 332.83,47.519C334.816,38.215 338.494,31.139 344.049,25.996C348.398,21.969 352.73,19.422 357.072,18.666Z" style="fill:white;fill-rule:nonzero;"/>
    <path d="M425.882,135.052C417.543,134.626 410.977,141.066 410.908,149.711C410.85,156.995 414.953,162.993 420.589,164.155C422.868,164.624 427.244,164.059 430.489,162.239C435.417,159.596 439.184,154.163 439.66,149.533C440.434,141.99 434.328,135.484 425.882,135.052Z" style="fill:white;fill-rule:nonzero;"/>
    <path d="M274.783,133.529C277.446,138.908 281.582,151.334 279.793,151.274C274.824,151.108 268.176,143.471 263.526,133.146L263.159,132.315C259.099,122.94 256.668,117.05 259.491,115.922C262.412,114.755 269.286,122.426 274.783,133.529Z" style="fill:white;fill-rule:nonzero;"/>
    <path d="M259.491,115.805C262.412,114.638 269.387,121.959 274.884,133.061C277.547,138.441 279.354,143.601 279.826,147.302C279.826,147.302 270.831,128.349 265.344,121.407C263.237,118.74 259.491,115.805 259.491,115.805Z" style="fill:rgb(231,234,238);"/>
    <path d="M257.959,163.537C258.173,162.758 258.978,162.3 259.757,162.515C260.536,162.729 260.994,163.534 260.78,164.313C260.504,165.315 256.63,167.943 248.176,173.154L242.84,176.419C232.306,182.832 225.277,186.936 224.398,186.936C218.582,186.936 213.341,181.449 209.515,172.792C206.174,165.233 204.44,156.235 205.223,150.338C205.467,148.498 211.599,143.734 221.066,137.351L222.422,136.442C230.798,130.863 237.957,126.724 240.547,126.202C241.339,126.042 242.111,126.554 242.27,127.346C242.37,127.842 219.284,147.302 217.028,160.218C215.501,168.963 221.274,183.869 224.14,184.004L224.398,184.01C224.166,184.01 224.24,183.956 224.267,183.94L224.531,183.804C224.725,183.703 224.956,183.578 225.222,183.432L226.439,182.751C226.904,182.488 227.423,182.19 227.991,181.863L229.442,181.019C232.214,179.401 235.672,177.341 239.199,175.207L242.554,173.167C246.633,170.675 250.319,168.377 253.089,166.592L254.516,165.665C255.4,165.085 256.147,164.584 256.744,164.168L256.96,164.016C257.29,163.784 257.563,163.584 257.777,163.42C257.777,163.42 258.017,163.325 257.959,163.537Z" style="fill:white;fill-rule:nonzero;"/>
    <path d="M260.859,134.347C257.325,126.499 255.763,119.307 256.947,114.952C254.808,115.632 252.134,116.853 249.48,118.376C245.952,120.4 243.153,122.662 243.088,123.153C242.406,128.286 245.023,138.273 249.372,147.176C254.024,156.699 259.559,162.816 263.843,162.816C264.253,162.816 265.427,162.574 266.603,162.163C268.277,161.579 269.845,160.727 271.13,159.611C271.768,159.056 272.429,158.429 273.12,157.729L273.952,156.869C274.442,156.35 274.949,155.791 275.739,154.906L276.84,153.677L276.887,153.625C271.376,151.611 265.612,144.512 261.3,135.306L260.859,134.347ZM240.188,122.768C240.643,119.343 253.463,111.941 259.314,111.463C259.559,111.309 259.821,111.176 260.1,111.065C265.167,109.04 272.888,117.713 279.081,129.916L279.506,130.763C282.301,136.409 284.208,141.857 284.728,145.932C285.349,150.801 283.939,154.03 280.242,154.195C280.143,154.579 279.893,154.9 279.56,155.093L279.503,155.122L279.359,155.266C279.214,155.415 279.043,155.6 278.78,155.893L276.963,157.922C276.303,158.648 275.836,159.141 275.202,159.783C274.462,160.534 273.748,161.211 273.048,161.819C270.217,164.279 266.03,165.742 263.843,165.742C262.683,165.742 261.51,165.472 260.335,164.957C259.079,166.267 255.215,168.815 248.176,173.154L242.84,176.419C232.306,182.832 225.278,186.936 224.399,186.936C222.407,186.936 220.482,186.292 218.659,185.098C218.642,185.11 218.625,185.121 218.608,185.132L217.863,185.612C215.271,187.292 211.127,190.086 207.284,192.677L207.283,192.678L207.044,192.839C207.541,196.391 208.672,199.953 210.442,203.527C216.724,201.584 221.7,200.928 223.136,202.389C224.636,203.915 225.973,206.679 227.24,210.733C227.481,211.504 227.051,212.325 226.28,212.566C225.509,212.807 224.689,212.377 224.448,211.606C223.352,208.1 222.234,205.741 221.176,204.574L221.133,204.528L221.095,204.53C220.895,204.49 220.595,204.469 220.212,204.476C219.369,204.493 218.217,204.641 216.841,204.914C214.011,205.475 210.433,206.518 206.88,207.828C198.758,210.824 192.49,214.537 191.202,217.35C190.825,218.174 190.873,219.379 191.324,221.224L191.407,221.556C191.475,221.818 191.546,222.077 191.638,222.405L192.166,224.274L192.189,224.358C192.204,224.415 192.219,224.475 192.237,224.545C192.44,225.327 191.971,226.125 191.189,226.328C190.407,226.531 189.609,226.062 189.406,225.28L189.146,224.334L188.714,222.807C188.664,222.626 188.62,222.46 188.576,222.29C187.89,219.648 187.78,217.796 188.542,216.132C189.833,213.312 193.873,210.39 199.499,207.734L198.275,204.573L197.973,203.774C197.51,202.528 196.971,200.838 196.64,199.605C192.245,201.974 189.184,202.37 186.118,200.699L185.879,200.565C185.273,200.214 184.688,199.809 184.099,199.316L166.956,209.729C167.115,210.072 167.276,210.418 167.439,210.767C168.208,212.417 166.851,213.585 164.77,214.493L164.546,214.589C162.757,215.33 161.144,215.5 160.183,214.445C156.196,210.069 151.976,199.603 154.246,197.209C154.682,196.749 155.833,196.065 158.01,194.924L158.183,194.833C158.227,194.803 158.274,194.774 158.323,194.747L174.348,186.065C174.384,186.046 174.422,186.027 174.459,186.011C173.469,184.374 172.384,182.552 171.185,180.519C171.002,180.224 170.935,179.88 170.981,179.549C171.01,179.338 171.086,179.132 171.206,178.949C171.273,178.847 171.352,178.753 171.444,178.67C174.738,175.545 179.228,172.287 184.859,168.779L185.542,168.356C187.979,166.853 192.922,164.034 197.122,161.639C200.379,159.781 203.189,158.179 204.035,157.643L204.24,157.507C204.546,157.283 204.91,157.196 205.26,157.233C204.982,154.696 204.957,152.339 205.223,150.338C205.468,148.498 211.599,143.734 221.067,137.351L222.423,136.442C230.358,131.156 237.201,127.164 240.101,126.314C240.024,125.004 240.049,123.811 240.188,122.768ZM240.422,129.28C237.58,130.319 230.465,134.543 222.702,139.777L221.459,140.62C217.965,143.004 214.737,145.328 212.299,147.223L211.622,147.754C210.534,148.616 209.653,149.359 209.015,149.955C208.695,150.254 208.442,150.509 208.264,150.713L208.14,150.86C208.113,150.888 208.105,150.877 208.116,150.785L208.123,150.724C208.12,150.747 208.117,150.768 208.116,150.785L208.077,151.099C206.67,163.443 215.596,183.602 224.14,184.004L224.341,184.009C224.358,184.01 224.377,184.01 224.399,184.01L224.341,184.009C224.179,184 224.243,183.954 224.268,183.94L224.532,183.804C224.726,183.703 224.956,183.578 225.222,183.432L226.439,182.751C226.905,182.488 227.424,182.19 227.991,181.863L229.443,181.019C232.214,179.401 235.672,177.341 239.2,175.207L242.554,173.167C246.634,170.675 250.319,168.377 253.089,166.592L254.516,165.665C255.4,165.085 256.147,164.584 256.744,164.168L256.961,164.016C257.277,163.793 257.542,163.6 257.751,163.44C253.984,160.675 250.274,155.569 246.98,148.941L246.743,148.46C243.569,141.962 241.274,134.926 240.422,129.28ZM205.663,160.069C204.608,160.734 201.495,162.511 198.031,164.489C193.926,166.833 189.328,169.459 187.077,170.846C181.761,174.124 177.474,177.162 174.291,180.023L175.345,181.801C179.958,189.54 182.629,193.613 184.778,195.914C184.064,194.221 183.694,192.072 183.694,189.378C183.694,189.253 183.71,189.133 183.739,189.018C183.597,188.458 183.797,187.842 184.291,187.479L185.288,186.739C185.885,186.287 186.868,185.535 187.986,184.681C190.433,182.812 193.524,180.45 194.627,179.66C198.095,177.175 200.652,175.781 202.98,175.297C204.092,175.066 204.956,175.723 205.207,176.742L205.247,176.928C205.306,177.231 205.317,177.529 205.315,178.18L205.314,178.387C205.302,180.821 205.544,182.225 206.574,183.848C207.28,184.958 208.316,185.971 209.76,186.878C209.912,186.973 210.039,187.091 210.142,187.225C212.472,185.66 214.654,184.205 216.264,183.162C213.727,180.706 211.442,177.151 209.515,172.792C207.721,168.731 206.39,164.256 205.663,160.069ZM281.826,146.302C281.354,142.601 279.547,137.441 276.884,132.061C271.387,120.959 264.106,112.614 261.186,113.781C258.362,114.909 259.099,122.94 263.16,132.315L263.526,133.146C268.177,143.471 274.824,151.108 279.793,151.274C281.582,151.334 282.281,149.873 281.826,146.302ZM175.97,188.484C178.508,192.587 180.362,195.297 181.977,197.182L165.725,207.053C164.061,203.404 162.571,200.007 161.126,196.556L175.741,188.638C175.824,188.593 175.9,188.541 175.97,188.484ZM207.637,204.45C206.06,201.188 204.97,197.918 204.371,194.64C202.271,196.053 200.444,197.277 199.269,198.04C199.47,199.049 200.218,201.444 200.863,203.147L202.063,206.237L202.177,206.539C203.357,206.041 204.59,205.555 205.867,205.084L206.712,204.777C207.022,204.665 207.33,204.556 207.637,204.45ZM207.584,188.946C206.086,187.908 204.937,186.726 204.105,185.416C202.758,183.296 202.405,181.486 202.389,178.751L202.388,178.506L202.182,178.584C200.698,179.159 198.929,180.201 196.705,181.771L196.33,182.038C195.271,182.796 192.258,185.099 189.827,186.956L189.827,186.957C188.476,187.989 187.305,188.884 186.75,189.299L186.62,189.396C186.623,194.262 187.837,196.495 190.096,197.578L190.277,197.661C190.816,197.899 191.2,198.019 192.298,198.32C192.319,198.326 192.341,198.332 192.362,198.339C193.502,197.956 194.807,197.316 196.367,196.402L196.947,196.053C198.235,195.251 201.692,192.92 205.494,190.355C206.183,189.891 206.883,189.419 207.584,188.946ZM158.541,197.955L158.765,198.488C160.319,202.172 161.933,205.82 163.765,209.798L164.478,211.342C164.244,211.499 163.937,211.665 163.599,211.813C163.115,212.024 162.622,212.173 162.252,212.223L162.134,212.235L161.956,212.021C160.571,210.317 158.964,207.42 157.803,204.54C157.185,203.006 156.744,201.599 156.545,200.518C156.465,200.077 156.427,199.707 156.43,199.426L156.439,199.241C156.442,199.197 156.442,199.173 156.431,199.17L156.475,199.14C156.722,198.97 157.354,198.6 158.292,198.09L158.541,197.955ZM178.718,194.732C178.153,194.156 177.226,194.147 176.65,194.712C175.635,195.707 174.214,196.634 171.731,198.012L169.204,199.415C168.537,199.795 167.99,200.123 167.495,200.444C167.082,200.712 166.712,200.971 166.38,201.228C165.741,201.722 165.623,202.64 166.117,203.28C166.611,203.919 167.529,204.037 168.169,203.543C168.432,203.339 168.737,203.125 169.087,202.898C169.41,202.688 169.766,202.471 170.177,202.231L170.982,201.77L173.549,200.348C176.015,198.964 177.5,197.976 178.698,196.801C179.275,196.235 179.284,195.309 178.718,194.732Z" style="fill:rgb(0,22,10);"/>
    <path d="M146,343.27C153.315,384.051 180.729,414.709 215.712,421.937C222.133,423.264 233.253,423.438 244.767,421.948C259.602,420.028 274.04,415.624 286.737,408.486C321.618,389.739 348.085,351.479 351.516,317.987C354.529,288.567 343.29,261.389 322.944,242C322.944,242 259.028,273.393 227.653,291.237C200.351,306.764 146,343.27 146,343.27Z" style="fill:white;fill-rule:nonzero;"/>
    <path d="M294.851,221.658C281.74,215.19 265.315,210.08 249.208,209.257C190.135,206.236 143.676,253.427 143.191,314.295C143.191,314.295 209.123,272.3 243.375,252.038C260.416,241.958 294.851,221.658 294.851,221.658Z" style="fill:white;fill-rule:nonzero;"/>
    <path d="M416.355,190.637C416.156,200.807 405.395,217.733 388.096,236.887C375.565,250.762 360.984,264.174 348.758,273.212L347.997,273.769L348.502,276.015C351.475,289.045 355.356,303.21 353.89,317.495C350.331,352.166 323.212,391.281 287.375,410.5C274.305,417.832 259.448,422.354 244.208,424.322L242.755,424.502C231.392,425.84 220.518,425.618 213.873,424.248C188.08,418.93 166.243,400.9 153.041,374.806C152.997,374.718 152.962,374.628 152.937,374.537C151.199,375.528 148.86,376.636 147.792,376.999L144.866,377.987C113.334,388.593 82.073,397.466 69.303,391.928C64.441,389.82 62.779,385.766 64.813,380.318C66.789,375.025 72.267,368.203 81.459,359.714L81.964,359.249C90.673,351.265 110.015,336.676 139.989,315.481L139.996,315.092C141.459,252.29 190.241,204.415 251.559,208.323C270.314,209.518 285.25,216.183 292.71,220.276L295.991,218.515C326.761,202.062 351.45,190.497 370.287,183.575C401.266,172.191 416.586,177.514 416.355,190.637ZM371.296,190.321C336.656,203.05 281.912,231.679 205.691,277.73L203.374,279.131C144.023,315.06 104.722,342.356 83.94,361.406L82.916,362.351L81.945,363.262C66.345,378.001 63.58,386.258 70.467,389.245C82.256,394.357 113.914,385.738 144.918,375.569L147.792,374.621C150.557,373.705 152.391,373.179 153.526,372.937C153.575,372.901 153.629,372.869 153.686,372.84C154.074,372.644 154.508,372.637 154.883,372.784C154.964,372.8 155.017,372.825 155.045,372.86C155.297,372.997 155.512,373.209 155.651,373.485C168.468,398.817 189.587,414.254 214.464,419.383C220.922,420.714 231.816,420.909 243.153,419.507L243.834,419.421C258.723,417.498 273.224,415.084 285.968,407.935C320.988,389.154 347.522,350.883 350.98,317.196C352.458,302.799 350.572,288.667 345.558,275.514C345.144,275.804 344.733,276.087 344.326,276.365C343.556,276.89 343.844,276.04 345.188,273.814C345.259,273.524 345.42,273.26 345.65,273.061L346.064,272.405C346.209,272.177 346.361,271.939 346.521,271.691L348.255,270.229C364.594,256.409 377.151,244.642 385.925,234.926L386.927,233.811C403.161,215.644 413.253,199.597 413.419,190.583C413.602,180.695 400.556,179.569 371.296,190.321ZM224.418,375.301C228.342,387.296 222.405,395.011 211.954,395.41C202.297,395.778 193.503,389.693 193.951,381.046C194.339,373.573 199.456,365.584 205.756,362.65C213.375,359.102 220.525,363.406 224.418,375.301ZM207.299,365.965C202.258,368.312 197.922,375.082 197.603,381.236C197.286,387.364 204.06,392.052 211.814,391.756C219.921,391.446 224.083,386.039 220.942,376.438C217.672,366.443 212.699,363.45 207.299,365.965ZM304.211,350.859C309.219,360.321 307.908,369.617 300.208,373.784L299.992,373.897L299.881,374.009C289.555,384.233 276.655,385.474 268.244,378.063L267.955,377.804C258.266,368.928 260.574,353.678 275.993,341.723C285.915,334.03 298.036,339.189 304.211,350.859ZM277.913,344.2C263.915,355.053 261.948,368.05 270.072,375.493C275.899,380.83 284.509,381.126 292.55,375.945L292.707,375.84L292.648,375.828C292.092,375.681 291.645,375.232 291.518,374.647L291.493,374.498C291.391,373.638 292.006,372.859 292.865,372.757C294.831,372.524 296.537,372.049 297.984,371.37L298.182,371.274L298.421,371.026C299.365,370.032 300.286,368.952 301.179,367.783L301.476,367.39C301.811,366.941 302.34,366.723 302.86,366.765L302.9,366.77L302.921,366.731C304.798,363.02 304.354,357.992 301.605,352.64L301.441,352.325C296.071,342.177 286.033,337.905 277.913,344.2ZM371.123,231.725C370.317,234.586 367.866,238.514 364.108,243.164C357.557,251.271 347.716,260.708 339.114,267.16L341.022,265.062C341.003,265.045 340.987,265.022 340.974,264.997L340.315,263.787C336.01,255.93 331.215,248.18 323.465,241.862C303.404,250.133 280.401,261.44 259.445,273.262L252.575,277.144C201.99,305.799 175.376,322.955 146.916,344.044C147.991,348.881 149.344,353.602 150.965,358.176C151.22,358.894 147.896,361.58 147.287,361.249C141.61,365.053 132.72,367.816 127.658,367.959C122.725,368.099 119.875,366.102 121.344,362.121C122.572,358.79 127.198,354.04 135.524,347.673L136.473,346.953L138.392,345.511C169.727,322.052 200.748,303.014 258.007,270.714L260.404,269.369C299.676,247.447 345.153,227.698 365.983,225.876C370.265,225.501 372.207,227.871 371.123,231.725ZM143.106,346.882L136.541,351.836C130.684,356.277 126.461,359.561 124.181,361.668L124.013,361.824C121.229,364.435 124.38,365.126 127.575,365.035C132.415,364.898 139.828,361.228 146.103,357.888C144.944,354.295 143.943,350.622 143.106,346.882ZM245.799,331C246.582,331.199 247.056,331.994 246.857,332.777C246.658,333.56 245.863,334.034 245.08,333.835C241.146,332.837 238.823,333.22 238.069,334.279C237.569,334.982 237.846,336.18 238.781,336.945C239.512,337.543 240.485,337.829 241.154,337.683C241.736,337.556 242.063,337.107 242.063,335.984C242.063,335.176 242.717,334.521 243.525,334.521C244.333,334.521 244.988,335.176 244.988,335.984C244.988,338.427 243.766,340.108 241.777,340.541C240.177,340.889 238.314,340.342 236.929,339.209C234.884,337.537 234.216,334.648 235.685,332.583C237.296,330.319 240.826,329.737 245.799,331ZM181.548,325.63C183.804,326.306 184.775,328.038 185.081,330.637L185.112,330.918L185.149,331.346C185.154,331.417 185.159,331.49 185.164,331.569L185.241,333.053L185.264,333.388C185.276,333.535 185.289,333.655 185.304,333.762L185.343,333.986L185.367,334.084L185.408,334.12C185.859,334.562 185.979,335.255 185.687,335.828L185.612,335.957C185.174,336.636 184.269,336.832 183.59,336.394C182.656,335.791 182.444,335.171 182.331,333.392L182.238,331.651C182.227,331.493 182.215,331.357 182.2,331.203C182.034,329.499 181.619,328.705 180.708,328.432C178.153,327.667 176.687,328.449 176.223,330.156C175.809,331.678 176.407,333.277 177.456,333.721L177.721,333.82C178.406,334.113 178.769,334.884 178.538,335.609C178.293,336.378 177.47,336.803 176.7,336.558C173.915,335.67 172.592,332.361 173.4,329.389C174.302,326.071 177.439,324.399 181.548,325.63ZM287.076,303.233C291.127,308.927 290.374,316.173 283.875,319.452C283.154,319.815 282.274,319.526 281.91,318.805C281.546,318.083 281.836,317.204 282.557,316.84C287.262,314.466 287.799,309.297 284.692,304.928C281.674,300.685 277.472,300.218 274.584,304.803C271.523,309.665 271.746,312.519 273.95,313.804C275.699,314.824 278.517,314.61 279.291,313.776L279.366,313.684C279.835,313.026 280.748,312.872 281.406,313.341C282.064,313.809 282.218,314.722 281.749,315.38C280.123,317.665 275.483,318.084 272.476,316.331C268.626,314.086 268.258,309.36 272.109,303.245C276.232,296.696 282.958,297.443 287.076,303.233ZM226.432,294.846C227.193,294.846 227.817,295.426 227.888,296.167L227.895,296.308C227.895,296.566 228.134,296.854 228.993,297.483L229.805,298.066C230.69,298.712 231.117,299.112 231.521,299.75C232.443,301.208 232.966,302.693 232.966,304.439C232.966,308.909 226.25,314.989 218.92,317.695C210.132,320.938 202.933,318.533 200.974,309.516C200.802,308.726 201.303,307.948 202.093,307.776C202.882,307.604 203.661,308.105 203.833,308.895C205.353,315.893 210.602,317.646 217.907,314.95C224.214,312.622 230.04,307.348 230.04,304.439C230.04,303.314 229.698,302.341 229.048,301.314L228.96,301.19C228.811,301.002 228.578,300.798 228.159,300.488L227.194,299.792C225.591,298.61 224.97,297.812 224.97,296.308C224.97,295.501 225.624,294.846 226.432,294.846ZM233.298,213.773L232.375,213.877C182.462,219.88 145.019,259.801 142.977,313.372L148.332,309.604C163.704,298.814 181.546,286.489 201.859,272.629L205.817,270.236C217.634,263.107 228.933,256.398 239.718,250.104C239.521,249.759 239.466,249.335 239.6,248.928C240.354,246.626 241.051,245.079 242.328,243.53C246.324,238.682 251.799,236.314 255.678,239.358C256.06,239.658 256.253,240.109 256.237,240.56L259.683,238.594C270.534,232.417 280.802,226.712 290.492,221.472L286.707,220.395C281.094,218.815 274.111,216.941 267.155,215.499C267.219,220.127 263.754,223.824 257.998,226.366C253.104,228.527 246.728,229.69 242.194,229.42C233.712,228.914 228.938,221.474 233.298,213.773ZM320.854,277.295C324.433,287.075 321.48,295.967 312.542,295.909C299.808,295.826 287.373,284.707 289.383,274.747C290.28,270.303 293.621,266.372 299.43,264.41C308.707,261.278 317.21,267.34 320.854,277.295ZM300.366,267.182C295.565,268.803 292.945,271.886 292.251,275.325C290.655,283.231 301.482,292.912 312.561,292.984C318.908,293.025 321.09,286.453 318.106,278.301C314.949,269.674 307.89,264.641 300.366,267.182ZM192.811,232.555L192.915,232.706L193.619,233.826C193.964,234.394 194.273,234.952 194.567,235.553C197.806,242.176 197.722,250.859 192.24,262.912C189.757,268.372 183.43,275.71 177.904,280.089C170.85,285.681 165.582,286.951 159.295,286.261L157.429,286.041L157.202,286.021C157.077,286.011 156.997,286.011 156.91,286.014L156.782,286.019C156.685,286.024 156.651,286.019 156.645,286.006L156.645,285.996L156.598,286.072C156.174,286.68 155.35,286.88 154.688,286.512C153.982,286.119 153.728,285.229 154.121,284.523C154.646,283.578 155.525,283.15 156.643,283.097C156.94,283.083 157.253,283.093 157.626,283.124L158.062,283.166L159.269,283.313C164.995,284.007 169.552,282.977 176.087,277.797C181.277,273.684 187.309,266.688 189.577,261.701C194.708,250.422 194.783,242.653 191.939,236.838C191.749,236.451 191.552,236.083 191.338,235.714L191.032,235.202L190.418,234.232C189.989,233.548 190.196,232.645 190.88,232.216C191.522,231.813 192.355,231.97 192.811,232.555ZM366.238,228.79C356.887,229.608 342.229,234.227 325.33,241.098L325.824,241.535C330.527,245.754 340.016,255.76 342.986,262.897L345.944,259.616C353.244,251.497 358.54,245.4 361.832,241.325L362.499,240.49C365.646,236.496 367.68,233.159 368.307,230.932L368.396,230.594C368.786,228.987 368.334,228.607 366.238,228.79ZM226.182,233.542C229.822,235.302 231.3,239.22 228.905,242.772C228.453,243.442 227.544,243.619 226.874,243.168C226.204,242.716 226.027,241.807 226.479,241.137C227.796,239.183 227.053,237.212 224.908,236.175C222.65,235.083 220.175,235.711 218.898,238.095C217.721,240.292 217.64,243.266 218.58,245.213C219.405,246.923 220.605,247.251 222.437,245.872C223.083,245.386 224,245.515 224.485,246.161C224.971,246.806 224.842,247.723 224.197,248.209C220.858,250.722 217.554,249.82 215.945,246.484C214.596,243.688 214.704,239.729 216.319,236.714C218.38,232.867 222.581,231.801 226.182,233.542ZM244.585,245.391C243.903,246.218 243.416,247.091 242.964,248.212C246.733,246.022 250.438,243.882 254.08,241.794L253.974,241.732L253.872,241.659C251.639,239.907 247.702,241.609 244.585,245.391ZM238.347,213.326L237.068,213.416L236.982,213.524C231.926,219.914 233.873,225.101 240.779,225.837C245.738,226.366 258.903,222.687 260.448,221.395C261.952,220.137 263.854,217.245 264.147,214.902C259.679,214.061 255.308,213.444 251.409,213.244C247.425,213.041 243.496,213.046 239.633,213.25L238.347,213.326Z" style="fill:rgb(0,22,10);"/>
    <path d="M370.409,190.683C401.388,179.3 400.678,182.677 371.418,193.429C336.778,206.159 206.021,285.919 206.021,285.919C146.669,321.848 142.229,316.302 199.757,281.34L203.303,279.189C203.971,278.785 269.467,237.448 316.267,215.333C321.534,212.844 366.882,191.98 370.409,190.683Z" style="fill:white;fill-rule:nonzero;"/>
    <path d="M423.899,134.01C414.3,133.519 406.807,140.979 406.729,150.739C406.664,158.917 411.355,165.86 418.077,167.246C419.848,167.611 424.956,167.611 429.387,165.125L429.754,164.923C435.341,161.76 439.14,155.742 439.649,150.791C440.55,142.014 433.498,134.501 423.899,134.01ZM408.819,150.756C408.819,150.693 408.82,150.63 408.821,150.567C408.881,150.548 408.94,150.523 408.997,150.492C416.523,146.438 421.169,143.348 423.024,141.117C424.249,139.644 424.846,137.983 424.798,136.178C426.062,136.318 427.266,136.595 428.395,136.992C428.389,137.046 428.386,137.102 428.388,137.158C428.48,139.756 427.787,141.832 426.315,143.449C424.623,145.307 422.574,147.076 420.243,148.743C417.752,150.526 415.077,152.1 412.401,153.448C411.777,153.763 411.183,154.049 410.626,154.308L409.818,154.674C409.702,154.725 409.595,154.772 409.496,154.815L409.256,154.916C408.96,153.599 408.807,152.203 408.819,150.756ZM409.843,156.936C410.505,158.771 411.463,160.397 412.65,161.721L413.274,161.362C423.095,155.676 429.193,151.209 431.5,148.058C433.833,144.872 434.665,142.426 434.143,140.762C434.131,140.723 434.121,140.684 434.114,140.644C433.086,139.565 431.862,138.638 430.483,137.905C430.424,140.667 429.551,142.999 427.86,144.856C426.062,146.832 423.902,148.694 421.459,150.443C418.873,152.294 416.107,153.921 413.341,155.314C412.535,155.721 411.775,156.083 411.077,156.4L410.262,156.761L409.843,156.936ZM417.665,164.989C416.431,164.62 415.282,164.015 414.247,163.213C424.357,157.366 430.649,152.758 433.186,149.293C434.76,147.143 435.767,145.21 436.176,143.485C436.684,144.435 437.069,145.448 437.316,146.505C437.263,146.613 437.228,146.732 437.215,146.858C436.96,149.301 435.701,151.725 433.399,154.14C431.19,156.457 426.422,159.8 419.136,164.123L417.665,164.989ZM421.197,165.327C423.44,165.185 426.183,164.527 428.399,163.284C432.522,161.073 435.832,156.91 437.082,152.898C436.478,153.804 435.754,154.698 434.912,155.582C432.643,157.961 428.083,161.196 421.197,165.327ZM409.426,147.88L409.055,148.082C410.241,141.178 415.757,136.223 422.703,136.08C422.777,137.437 422.355,138.654 421.417,139.781C419.902,141.604 415.881,144.332 409.426,147.88Z" style="fill:rgb(0,22,10);"/>
    <path d="M499.325,113.99C499.521,114.012 499.656,114.188 499.634,114.382C499.633,114.667 499.45,114.821 499.203,114.921C498.981,115.011 498.626,114.976 498.419,115.004C496.156,115.179 494.378,113.514 493.596,111.368C492.844,109.307 493.044,106.842 494.408,105.322C494.565,105.143 494.837,105.125 495.017,105.282C495.196,105.439 496.214,105.712 496.057,105.891C494.932,107.204 494.17,108.001 495.232,111.118C496.293,114.235 499.18,113.973 499.325,113.99Z" style="fill:rgb(231,234,238);"/>
    <path d="M139.07,136.306C138.475,135.898 137.663,136.049 137.254,136.644C136.846,137.238 136.997,138.051 137.592,138.46C138.245,138.908 138.822,139.322 139.332,139.707C138.783,140.143 138.235,140.644 137.665,141.213L136.51,142.386C136.003,142.898 136.006,143.725 136.518,144.233C137.031,144.741 137.858,144.737 138.365,144.225L139.751,142.824C140.315,142.275 140.844,141.816 141.375,141.434C142.556,142.604 142.916,143.463 142.935,144.316L142.935,144.535L142.942,144.669C143.009,145.327 143.565,145.841 144.241,145.841C144.962,145.841 145.547,145.256 145.547,144.535L145.547,144.278C145.522,142.948 145.053,141.683 143.789,140.237C144.624,139.988 145.564,139.849 146.705,139.789C147.426,139.751 147.979,139.137 147.941,138.417C147.904,137.696 147.289,137.143 146.569,137.181C144.588,137.284 143.049,137.614 141.678,138.242C141.105,137.773 140.457,137.282 139.724,136.762L139.07,136.306Z" style="fill:rgb(0,22,10);"/>
    <path d="M334.757,422.475L335.663,422.48C340.727,422.527 344.683,422.983 352.135,424.179C352.99,424.316 353.571,425.12 353.434,425.975C353.297,426.83 352.493,427.411 351.638,427.274L349.196,426.89C343.03,425.943 339.477,425.61 334.757,425.61C318.379,425.61 307.924,435.862 309.693,451.587C309.79,452.447 309.171,453.222 308.311,453.319C307.451,453.416 306.675,452.797 306.578,451.937C304.588,434.252 316.599,422.475 334.757,422.475ZM347.442,428.803L347.289,428.669C347.141,428.542 346.914,428.56 346.79,428.708C346.66,428.857 346.68,429.08 346.828,429.207L346.985,429.341C347.133,429.468 347.355,429.451 347.484,429.302C347.609,429.154 347.594,428.93 347.442,428.803ZM319.042,432.081C318.48,431.629 317.658,431.719 317.206,432.281C315.382,434.551 314.052,436.763 313.223,438.922C312.416,441.022 312.141,444.551 312.351,449.596L312.401,450.662C312.439,451.382 313.053,451.935 313.774,451.898C314.494,451.86 315.047,451.245 315.009,450.525C314.732,445.254 314.968,441.663 315.661,439.859C316.387,437.97 317.579,435.987 319.242,433.917C319.694,433.355 319.605,432.533 319.042,432.081ZM333.295,427.76C333.936,427.428 334.724,427.679 335.056,428.319C335.387,428.959 335.137,429.748 334.497,430.079C331.844,431.453 329.819,433.757 328.406,437.041C326.891,440.566 325.651,443.711 324.687,446.475C324.449,447.156 323.705,447.515 323.023,447.278C322.342,447.04 321.983,446.296 322.221,445.615C323.207,442.788 324.469,439.587 326.007,436.01C327.648,432.192 330.082,429.425 333.295,427.76ZM340.888,427.691C340.413,427.149 339.587,427.094 339.045,427.57C336.865,429.48 335.19,431.217 334.018,432.792C332.854,434.356 331.491,436.695 329.914,439.825C329.589,440.469 329.848,441.254 330.492,441.579C331.136,441.903 331.922,441.644 332.246,441C333.762,437.994 335.056,435.772 336.113,434.351C337.162,432.942 338.714,431.332 340.766,429.534C341.309,429.059 341.363,428.234 340.888,427.691ZM336.12,442.44C335.577,442.915 334.752,442.861 334.277,442.318C333.801,441.776 333.856,440.951 334.398,440.475C336.45,438.678 338.002,437.068 339.051,435.658C340.109,434.237 341.403,432.016 342.918,429.009C343.243,428.365 344.028,428.106 344.672,428.431C345.316,428.756 345.575,429.541 345.251,430.185C343.673,433.314 342.31,435.653 341.147,437.218C339.974,438.793 338.3,440.53 336.12,442.44ZM326.232,428.825C325.638,428.415 324.825,428.564 324.415,429.157C321.495,433.386 319.631,436.545 318.807,438.691C317.979,440.844 317.408,443.748 317.076,447.417C317.011,448.135 317.541,448.77 318.259,448.835C318.977,448.9 319.612,448.37 319.677,447.652C319.989,444.203 320.517,441.523 321.245,439.627C321.923,437.861 323.505,435.136 325.978,431.498L326.564,430.642C326.974,430.048 326.825,429.235 326.232,428.825Z" style="fill:rgb(0,22,10);"/>
    <path d="M301.44,421.123L302.339,423.123L304.391,423.712C304.502,423.744 304.566,423.86 304.534,423.97C304.524,424.005 304.506,424.036 304.481,424.061L302.922,425.613L303.009,427.846C303.014,427.961 302.924,428.058 302.809,428.063C302.77,428.064 302.731,428.055 302.697,428.035L300.933,427.03C300.877,426.999 300.811,426.994 300.752,427.018L298.865,427.767C298.758,427.81 298.636,427.758 298.593,427.65C298.579,427.614 298.575,427.574 298.582,427.536L298.979,425.337L297.652,423.583C297.582,423.491 297.6,423.36 297.692,423.291C297.721,423.269 297.754,423.255 297.789,423.25L299.903,422.953L301.072,421.098C301.134,421 301.263,420.971 301.36,421.032C301.395,421.054 301.423,421.086 301.44,421.123Z" style="fill:rgb(0,22,10);"/>
    <path d="M374.11,141.137C374.591,141.564 375.19,142.332 375.72,143.164L376.402,142.861L377.208,142.516C377.37,142.442 377.474,142.384 377.506,142.337C377.599,142.164 377.814,142.098 377.988,142.19C378.158,142.282 378.227,142.496 378.134,142.669C378.071,142.833 377.618,143.347 376.777,143.851C376.625,143.942 376.456,144.027 376.276,144.109C376.586,144.689 376.829,145.25 376.944,145.699C377.116,146.361 376.979,146.831 376.751,146.996C376.528,147.159 375.969,147.189 375.118,146.483C374.961,146.363 374.937,146.141 375.056,145.986C375.175,145.831 375.396,145.803 375.553,145.922C375.715,146.042 375.878,146.109 376.011,146.158L375.946,145.905C375.921,145.814 375.89,145.72 375.846,145.627C375.694,145.294 375.5,144.913 375.282,144.521C374.617,144.773 373.859,145.001 373.041,145.111C372.643,145.164 372.236,145.175 371.814,145.171C371.572,145.187 371.361,145.003 371.345,144.76C371.329,144.517 371.513,144.307 371.756,144.291C372.74,144.196 373.65,143.947 374.453,143.668L374.716,143.573C374.282,142.894 373.816,142.277 373.417,141.929C373.201,141.737 373.179,141.404 373.368,141.186C373.563,140.967 373.894,140.946 374.11,141.137Z" style="fill:rgb(0,22,10);"/>
    <path d="M86.554,317.942C85.188,318.031 83.022,318.38 81.252,319.082C79.737,319.683 79.737,336.033 84.915,337.337C90.063,339.054 95.693,336.781 95.02,328.031C95.008,327.848 94.86,327.351 94.69,326.78C94.442,325.945 94.146,324.953 94.164,324.566C94.234,323.192 93.873,322.033 92.92,321.306C91.894,319.13 89.882,317.727 86.554,317.942ZM85.813,333.357C83.279,331.463 83.368,322.626 86.26,322.036C88.06,323.42 89.703,325.417 90.257,329.266C89.637,331.386 88.328,332.613 87.183,333.685C87.061,333.8 86.94,333.913 86.822,334.025C86.495,333.839 86.159,333.612 85.813,333.357Z" style="fill:white;"/>
    <path d="M82.736,328.205C82.506,326.831 82.663,325.292 83.354,323.649C83.668,322.905 84.492,322.299 85.522,321.892C86.728,321.416 88.202,321.18 89.131,321.119C91.396,320.973 92.765,321.921 93.463,323.393C94.111,323.884 94.356,324.668 94.308,325.597C94.288,326.038 94.87,327.636 94.89,327.941C95.345,333.858 91.513,335.397 88.01,334.238C86.68,334.914 85.396,335.026 84.43,334.308C83.563,333.667 82.898,332.314 82.745,329.929C82.705,329.314 82.702,328.739 82.736,328.205ZM88.949,324.308C86.939,324.703 86.855,330.505 88.611,331.742C88.85,331.909 89.083,332.057 89.31,332.178C90.158,331.413 90.791,330.795 91.15,329.529C91.509,328.264 90.196,325.212 88.949,324.308Z" style="fill:rgb(255,182,29);"/>
    <path d="M219.898,473.115C219.303,472.706 218.49,472.857 218.082,473.452C217.674,474.047 217.825,474.86 218.419,475.268C219.073,475.716 219.65,476.13 220.159,476.515C219.61,476.952 219.062,477.452 218.493,478.021L217.338,479.194C216.83,479.707 216.834,480.534 217.346,481.041C217.858,481.549 218.685,481.545 219.193,481.033L220.579,479.633C221.143,479.083 221.671,478.624 222.203,478.242C223.384,479.413 223.743,480.271 223.763,481.125L223.763,481.344L223.769,481.477C223.836,482.136 224.392,482.649 225.069,482.649C225.79,482.649 226.374,482.065 226.374,481.344L226.374,481.087C226.35,479.756 225.88,478.491 224.616,477.045C225.451,476.796 226.392,476.657 227.533,476.597C228.253,476.56 228.807,475.945 228.769,475.225C228.731,474.505 228.117,473.951 227.397,473.989C225.416,474.092 223.877,474.423 222.505,475.05C221.933,474.582 221.284,474.091 220.551,473.571L219.898,473.115Z" style="fill:rgb(0,22,10);"/>
    <path d="M219.898,473.115C219.303,472.706 218.49,472.857 218.082,473.452C217.674,474.047 217.825,474.86 218.419,475.268C219.073,475.716 219.65,476.13 220.159,476.515C219.61,476.952 219.062,477.452 218.493,478.021L217.338,479.194C216.83,479.707 216.834,480.534 217.346,481.041C217.858,481.549 218.685,481.545 219.193,481.033L220.579,479.633C221.143,479.083 221.671,478.624 222.203,478.242C223.384,479.413 223.743,480.271 223.763,481.125L223.763,481.344L223.769,481.477C223.836,482.136 224.392,482.649 225.069,482.649C225.79,482.649 226.374,482.065 226.374,481.344L226.374,481.087C226.35,479.756 225.88,478.491 224.616,477.045C225.451,476.796 226.392,476.657 227.533,476.597C228.253,476.56 228.807,475.945 228.769,475.225C228.731,474.505 228.117,473.951 227.397,473.989C225.416,474.092 223.877,474.423 222.505,475.05C221.933,474.582 221.284,474.091 220.551,473.571L219.898,473.115Z" style="fill:rgb(0,22,10);"/>
    <path d="M264.531,437.336L265.431,439.336L267.483,439.925C267.594,439.957 267.658,440.073 267.626,440.183C267.616,440.218 267.598,440.249 267.573,440.274L266.014,441.826L266.101,444.059C266.106,444.174 266.016,444.271 265.901,444.276C265.862,444.277 265.823,444.268 265.789,444.248L264.024,443.243C263.969,443.212 263.903,443.207 263.844,443.231L261.957,443.98C261.849,444.023 261.728,443.971 261.685,443.863C261.671,443.827 261.667,443.787 261.674,443.749L262.071,441.55L260.744,439.796C260.674,439.704 260.692,439.573 260.784,439.504C260.812,439.482 260.846,439.468 260.881,439.463L262.995,439.166L264.164,437.311C264.226,437.213 264.355,437.184 264.452,437.245C264.487,437.267 264.514,437.299 264.531,437.336Z" style="fill:rgb(0,22,10);"/>
    <path d="M151.312,423.595L152.841,425.166L154.971,425.018C155.086,425.01 155.186,425.097 155.194,425.212C155.196,425.247 155.189,425.283 155.174,425.315L154.24,427.306L155.086,429.375C155.13,429.481 155.079,429.603 154.972,429.647C154.936,429.662 154.896,429.666 154.858,429.66L152.856,429.319C152.793,429.308 152.729,429.327 152.682,429.369L151.165,430.719C151.078,430.795 150.946,430.788 150.87,430.701C150.844,430.672 150.826,430.636 150.82,430.598L150.441,428.396L148.594,427.202C148.497,427.139 148.469,427.01 148.532,426.913C148.551,426.883 148.578,426.859 148.609,426.842L150.493,425.839L150.958,423.696C150.982,423.583 151.093,423.512 151.206,423.536C151.246,423.545 151.283,423.565 151.312,423.595Z" style="fill:rgb(0,22,10);"/>
    <path d="M127.424,280.379L128.324,282.379L130.376,282.968C130.487,283 130.551,283.115 130.519,283.226C130.509,283.261 130.491,283.292 130.466,283.317L128.907,284.868L128.994,287.102C128.999,287.217 128.909,287.314 128.794,287.319C128.755,287.32 128.716,287.311 128.682,287.291L126.917,286.286C126.862,286.255 126.796,286.25 126.737,286.274L124.85,287.023C124.742,287.066 124.621,287.013 124.578,286.906C124.564,286.87 124.56,286.83 124.567,286.792L124.964,284.593L123.637,282.839C123.567,282.747 123.585,282.616 123.677,282.547C123.705,282.525 123.739,282.511 123.774,282.506L125.888,282.209L127.057,280.353C127.119,280.256 127.248,280.227 127.345,280.288C127.38,280.31 127.408,280.342 127.424,280.379Z" style="fill:rgb(0,22,10);"/>
    <path d="M127.215,282.371L127.598,283.22L128.469,283.471C128.516,283.484 128.543,283.533 128.53,283.58C128.526,283.595 128.518,283.608 128.507,283.619L127.845,284.278L127.882,285.226C127.884,285.275 127.846,285.317 127.797,285.319C127.78,285.319 127.764,285.315 127.75,285.307L127,284.88C126.977,284.867 126.948,284.865 126.923,284.875L126.122,285.193C126.076,285.211 126.024,285.189 126.006,285.143C126,285.128 125.999,285.111 126.002,285.095L126.17,284.161L125.606,283.416C125.577,283.377 125.584,283.321 125.624,283.292C125.636,283.283 125.65,283.277 125.665,283.275L126.563,283.148L127.059,282.36C127.085,282.319 127.14,282.306 127.182,282.332C127.196,282.342 127.208,282.355 127.215,282.371Z" style="fill:rgb(231,234,238);"/>
    <path d="M20.44,368.123L21.34,370.123L23.391,370.712C23.502,370.744 23.566,370.86 23.534,370.97C23.524,371.005 23.506,371.036 23.481,371.061L21.922,372.613L22.009,374.846C22.014,374.961 21.924,375.058 21.809,375.063C21.77,375.064 21.731,375.055 21.697,375.035L19.933,374.03C19.878,373.999 19.811,373.994 19.752,374.018L17.865,374.767C17.758,374.81 17.636,374.758 17.594,374.65C17.579,374.614 17.575,374.574 17.582,374.536L17.979,372.337L16.652,370.583C16.582,370.491 16.6,370.36 16.692,370.291C16.721,370.269 16.754,370.255 16.789,370.25L18.903,369.953L20.072,368.098C20.134,368 20.263,367.971 20.36,368.032C20.395,368.054 20.423,368.086 20.44,368.123Z" style="fill:rgb(0,22,10);"/>
    <path d="M110.861,188.545L111.515,189.001C112.248,189.522 114.987,192.103 115.56,192.571C116.929,191.943 118.469,191.612 120.45,191.509C121.17,191.471 121.784,192.025 121.822,192.745C121.86,193.465 121.306,194.08 120.586,194.117C119.445,194.177 118.504,194.316 117.668,194.565C118.934,196.012 119.403,197.277 119.427,198.607L119.427,198.863C119.427,199.585 118.843,200.169 118.121,200.169C117.445,200.169 116.889,199.656 116.822,198.997L116.815,198.863L116.815,198.645C116.796,197.791 116.437,196.933 115.256,195.763C114.724,196.144 114.196,196.603 113.632,197.153L112.246,198.553C111.738,199.065 110.911,199.069 110.399,198.561C109.887,198.054 109.883,197.227 110.391,196.714L111.546,195.541C112.115,194.972 112.663,194.472 113.212,194.035C112.248,191.836 108.637,189.477 109.045,188.882C109.453,188.288 110.266,188.137 110.861,188.545Z" style="fill:rgb(0,22,10);"/>
    <path d="M362.836,339.161L364.615,340.443L366.686,339.928C366.798,339.9 366.912,339.968 366.939,340.08C366.948,340.114 366.948,340.151 366.938,340.185L366.364,342.308L367.557,344.198C367.618,344.296 367.589,344.425 367.491,344.486C367.458,344.507 367.42,344.518 367.381,344.519L365.35,344.531C365.287,344.531 365.227,344.56 365.188,344.61L363.928,346.203C363.856,346.293 363.725,346.309 363.635,346.237C363.604,346.213 363.581,346.181 363.568,346.144L362.812,344.041L360.786,343.186C360.679,343.141 360.629,343.018 360.674,342.912C360.688,342.879 360.71,342.851 360.738,342.829L362.42,341.514L362.505,339.323C362.509,339.207 362.606,339.118 362.722,339.122C362.763,339.124 362.802,339.137 362.836,339.161Z" style="fill:rgb(0,22,10);"/>
    <path d="M383.275,257.311L383.814,259.437L385.732,260.373C385.836,260.424 385.879,260.549 385.828,260.652C385.812,260.684 385.789,260.712 385.76,260.732L383.955,261.99L383.653,264.204C383.638,264.318 383.532,264.398 383.418,264.383C383.379,264.377 383.343,264.361 383.313,264.337L381.75,263.04C381.701,263 381.636,262.984 381.574,262.997L379.585,263.407C379.472,263.431 379.362,263.358 379.338,263.245C379.331,263.207 379.334,263.167 379.347,263.13L380.12,261.033L379.117,259.076C379.065,258.973 379.105,258.847 379.208,258.795C379.24,258.779 379.275,258.771 379.31,258.772L381.444,258.846L382.917,257.222C382.995,257.137 383.127,257.13 383.213,257.208C383.243,257.235 383.265,257.271 383.275,257.311Z" style="fill:rgb(0,22,10);"/>
    <path d="M336.73,171.757L337.269,173.883L339.187,174.819C339.291,174.869 339.334,174.994 339.284,175.098C339.268,175.13 339.244,175.158 339.215,175.178L337.411,176.435L337.109,178.65C337.093,178.764 336.988,178.844 336.874,178.829C336.835,178.823 336.799,178.807 336.769,178.782L335.205,177.486C335.156,177.446 335.092,177.43 335.03,177.442L333.041,177.853C332.928,177.876 332.817,177.804 332.794,177.691C332.786,177.652 332.789,177.613 332.803,177.576L333.576,175.479L332.573,173.522C332.52,173.419 332.561,173.293 332.664,173.241C332.695,173.224 332.73,173.216 332.766,173.218L334.899,173.292L336.373,171.668C336.451,171.582 336.583,171.576 336.668,171.653C336.699,171.681 336.72,171.717 336.73,171.757Z" style="fill:rgb(0,22,10);"/>
    <path d="M474.236,192.586L475.03,192.515C475.926,192.442 476.74,192.401 477.48,192.392C478.125,191.03 479.092,189.788 480.543,188.435C481.07,187.943 481.897,187.972 482.388,188.5C482.88,189.028 482.851,189.854 482.324,190.346C481.488,191.125 480.856,191.837 480.377,192.564C482.276,192.859 483.448,193.527 484.322,194.53L484.487,194.726C484.95,195.279 484.878,196.103 484.326,196.566C483.808,197.001 483.052,196.965 482.577,196.503L482.486,196.405L482.345,196.238C481.782,195.596 480.955,195.17 479.298,195.032C479.136,195.666 479.026,196.358 478.947,197.141L478.786,199.105C478.726,199.824 478.095,200.358 477.376,200.298C476.658,200.239 476.123,199.607 476.183,198.889L476.314,197.248C476.384,196.445 476.482,195.71 476.622,195.023C475.985,195.055 475.277,195.109 474.487,195.186C473.77,195.255 473.131,194.729 473.062,194.011C472.992,193.294 473.518,192.655 474.236,192.586Z" style="fill:rgb(0,22,10);"/>
    <path d="M368.778,282.737C368.542,283.334 368.025,284.161 367.425,284.943L367.942,285.48L368.542,286.119L368.676,286.247C368.734,286.299 368.78,286.33 368.813,286.339C369.007,286.367 369.142,286.546 369.116,286.741C369.088,286.932 368.91,287.07 368.716,287.042C368.54,287.038 367.902,286.789 367.141,286.171C367.003,286.059 366.866,285.93 366.726,285.789C366.288,286.278 365.844,286.699 365.461,286.96C364.898,287.349 364.41,287.38 364.177,287.222C363.947,287.069 363.727,286.554 364.1,285.513C364.159,285.324 364.36,285.225 364.546,285.284C364.732,285.343 364.834,285.541 364.776,285.729C364.719,285.922 364.711,286.099 364.71,286.24L364.927,286.093C365.003,286.038 365.081,285.977 365.153,285.904C365.415,285.647 365.706,285.334 365.999,284.996C365.535,284.456 365.062,283.823 364.679,283.092C364.493,282.735 364.344,282.357 364.203,281.959C364.105,281.737 364.206,281.476 364.429,281.377C364.651,281.279 364.912,281.381 365.01,281.603C365.436,282.496 365.981,283.266 366.518,283.925L366.697,284.14C367.187,283.499 367.607,282.851 367.798,282.357C367.904,282.088 368.209,281.954 368.479,282.057C368.751,282.164 368.885,282.468 368.778,282.737Z" style="fill:rgb(231,234,238);"/>
    <path d="M356.027,16.576C356.823,16.438 357.581,16.97 357.719,17.766C357.858,18.562 357.325,19.32 356.529,19.458C352.744,20.117 348.189,22.38 344.253,26.024C339.143,30.756 335.373,37.434 333.512,46.152C332.013,53.176 333.391,62.423 337.31,70.138C341.769,78.916 348.936,84.884 358.133,86.564C367.575,88.288 375.563,87.217 384.485,84.046L385.306,83.747C385.566,83.649 386.031,83.469 386.615,83.244L386.616,83.243C388.765,82.415 392.519,80.966 393.597,80.64C396.481,79.768 398.449,79.841 399.875,81.361C400.428,81.95 400.399,82.876 399.81,83.429C399.257,83.947 398.409,83.954 397.85,83.467L397.742,83.363C397.321,82.915 396.451,82.863 394.7,83.365L394.443,83.44C393.493,83.728 390.017,85.068 387.849,85.904L387.849,85.904L387.848,85.904C387.009,86.228 386.366,86.476 386.142,86.558C376.506,90.075 367.859,91.314 357.608,89.441C347.449,87.586 339.551,81.01 334.702,71.463C330.487,63.167 329.008,53.239 330.651,45.541C332.638,36.237 336.711,29.021 342.266,23.878C346.614,19.851 351.685,17.333 356.027,16.576ZM365.92,23.642C366.712,23.487 367.481,24.004 367.636,24.797C367.791,25.59 367.275,26.358 366.482,26.513C354.627,28.835 345.093,37.89 342.328,49.867C341.392,53.92 341.675,57.216 342.594,58.474L342.715,58.631L342.725,58.653L342.742,58.64C343.071,58.343 343.455,57.585 343.754,56.41L343.816,56.152C346.66,43.834 356.051,34.299 368.046,31.097C368.827,30.888 369.629,31.352 369.837,32.133C370.045,32.913 369.581,33.715 368.801,33.923C357.994,36.808 349.503,45.316 346.778,56.343L346.666,56.81C345.663,61.154 342.784,63.228 340.451,60.478C338.744,58.467 338.326,54.199 339.478,49.209C342.505,36.097 352.942,26.184 365.92,23.642ZM383.511,39.697C383.454,38.891 382.754,38.285 381.948,38.342C367.712,39.358 355.227,48.604 350.26,62.252C348.375,67.43 348.263,72.035 349.806,74.384C351.876,77.534 355.132,75.747 356.756,71.287L356.926,70.829C361.319,59.279 371.613,51.213 383.663,49.531C384.463,49.419 385.021,48.68 384.909,47.88C384.798,47.08 384.059,46.522 383.259,46.634C369.988,48.486 358.673,57.465 354.007,70.286L353.904,70.56C353.385,71.895 352.817,72.699 352.386,72.935L352.367,72.948C352.364,72.951 352.361,72.953 352.359,72.955C352.356,72.958 352.354,72.96 352.353,72.959C352.35,72.959 352.349,72.955 352.344,72.945C352.335,72.924 352.315,72.874 352.251,72.778L352.174,72.65C351.325,71.145 351.454,67.524 353.009,63.252C357.578,50.699 369.061,42.194 382.156,41.26C382.962,41.203 383.569,40.503 383.511,39.697ZM389.882,53.917C390.688,53.859 391.387,54.466 391.445,55.271C391.502,56.077 390.896,56.777 390.09,56.834C380.909,57.49 372.858,63.452 369.654,72.253C368.705,74.862 368.528,77.093 368.868,78.223L368.909,78.349L368.974,78.256C369.138,78.008 369.321,77.652 369.502,77.191L369.579,76.986C372.963,67.69 381.166,61.179 390.789,59.836C391.589,59.725 392.328,60.283 392.44,61.083C392.551,61.883 391.993,62.622 391.193,62.733C382.776,63.908 375.581,69.526 372.482,77.576L372.328,77.987C371.073,81.434 368.359,82.924 366.625,80.284C365.436,78.475 365.52,75.06 366.905,71.253C370.507,61.357 379.56,54.653 389.882,53.917ZM397.591,65.702C397.533,64.896 396.834,64.289 396.028,64.347C389.115,64.84 383.052,69.33 380.64,75.957C379.689,78.57 379.631,80.948 380.511,82.286C381.953,84.482 384.194,83.251 385.128,80.687L385.255,80.35C387.22,75.331 391.723,71.832 396.988,71.098C397.788,70.986 398.346,70.247 398.234,69.447C398.123,68.647 397.383,68.089 396.583,68.2L396.213,68.256C390.545,69.169 385.655,72.766 383.12,77.943L383.031,78.128L383.086,77.918C383.168,77.612 383.268,77.291 383.389,76.958C385.403,71.425 390.464,67.676 396.236,67.265C397.042,67.207 397.648,66.507 397.591,65.702Z" style="fill:rgb(0,22,10);"/>
    <path d="M389.882,53.917C390.688,53.859 391.387,54.466 391.445,55.271C391.502,56.077 390.896,56.777 390.09,56.834C380.909,57.49 372.858,63.452 369.654,72.253C368.705,74.862 368.528,77.093 368.868,78.223L368.909,78.349L368.974,78.256C369.138,78.008 369.321,77.652 369.502,77.191L369.579,76.986C372.963,67.69 381.167,61.179 390.789,59.836C391.589,59.725 392.328,60.283 392.44,61.083C392.551,61.883 391.993,62.622 391.193,62.733C382.776,63.908 375.581,69.526 372.482,77.576L372.328,77.987C371.073,81.434 368.36,82.924 366.625,80.284C365.436,78.475 365.52,75.06 366.905,71.253C370.507,61.357 379.56,54.653 389.882,53.917Z" style="fill:rgb(0,22,10);"/>
    <path d="M298.788,244.355C329.452,230.012 355.091,222.435 371.053,221.044C375.941,220.618 378.159,223.313 376.92,227.697C376.001,230.951 373.202,235.418 368.912,240.708C361.432,249.928 351.57,257.819 341.749,265.158C357.461,250.656 361.468,244.59 366.314,238.616L367.075,237.666C370.668,233.123 372.99,229.328 373.705,226.795L373.807,226.411C374.253,224.583 373.737,224.15 371.344,224.359C355.743,225.718 330.202,233.31 299.65,247.634C269.048,261.981 268.173,258.675 298.788,244.355Z" style="fill:white;fill-rule:nonzero;"/>
    <path d="M158.541,197.955L158.765,198.488C160.319,202.172 161.933,205.82 163.765,209.798L164.478,211.342C164.244,211.499 163.937,211.665 163.599,211.813C163.115,212.024 162.622,212.173 162.252,212.223L162.134,212.235L161.956,212.021C160.571,210.317 158.964,207.42 157.803,204.54C157.185,203.006 156.744,201.599 156.545,200.518C156.465,200.077 156.427,199.707 156.43,199.426L156.439,199.241C156.442,199.197 156.442,199.173 156.431,199.17L156.475,199.14C156.722,198.97 157.354,198.6 158.292,198.09L158.541,197.955Z" style="fill:white;fill-rule:nonzero;"/>
    <path d="M197.306,184.611C198.266,183.436 199.51,183.611 201.086,184.568L201.491,184.823L202.625,185.574C202.942,185.777 203.079,185.848 203.264,185.921C203.693,186.092 203.902,186.578 203.731,187.007C203.56,187.436 203.074,187.645 202.645,187.474L202.493,187.411C202.203,187.287 201.984,187.158 201.397,186.769L200.584,186.227C200.45,186.139 200.334,186.066 200.22,185.997C199.277,185.425 198.849,185.365 198.6,185.669C198.444,185.86 198.482,186.269 198.793,187.106L199.134,187.985C199.812,189.784 199.816,190.589 198.608,191.276C197.569,191.867 197.036,191.591 195.543,190.128L195.18,189.769C194.224,188.814 193.723,188.482 193.4,188.55C193.293,188.573 193.168,188.649 193.015,188.811C192.836,189.002 192.785,189.613 192.895,190.696L193.064,192.111C193.26,193.84 193.181,194.288 192.467,194.766C191.484,195.424 190.176,194.681 187.751,192.503C187.408,192.195 187.379,191.666 187.688,191.323C187.996,190.979 188.524,190.951 188.868,191.259C189.904,192.19 190.687,192.796 191.234,193.107L191.356,193.174L191.459,193.225L191.461,193.12L191.454,192.87C191.444,192.665 191.418,192.417 191.367,191.996L191.261,191.127C191.057,189.367 191.121,188.388 191.796,187.668C192.171,187.268 192.592,187.012 193.054,186.914C194.128,186.687 194.891,187.146 196.157,188.384L196.797,189.013C197.486,189.676 197.742,189.845 197.782,189.822C197.939,189.733 197.915,189.457 197.491,188.369L197.306,187.898C196.715,186.381 196.603,185.472 197.306,184.611Z" style="fill:rgb(0,22,10);"/>
    <path d="M288.554,48.567L287.76,48.638C287.042,48.707 286.516,49.346 286.586,50.063C286.628,50.497 286.877,50.861 287.227,51.066L287.089,51.164C286.5,51.58 286.36,52.395 286.777,52.984C287.193,53.573 288.008,53.713 288.597,53.297L289.939,52.346C289.9,52.654 289.866,52.971 289.838,53.3L289.707,54.941C289.647,55.659 290.181,56.291 290.9,56.35C291.619,56.41 292.25,55.876 292.31,55.157L292.471,53.193C292.513,52.773 292.565,52.379 292.628,52.006C293.087,52.876 293.178,53.546 293.081,54.18L293.043,54.396L293.027,54.529C292.978,55.189 293.437,55.791 294.103,55.909C294.813,56.034 295.49,55.56 295.616,54.849L295.66,54.596C295.799,53.715 295.735,52.828 295.378,51.843C295.565,51.977 295.726,52.126 295.869,52.289L296.01,52.457L296.101,52.555C296.575,53.017 297.332,53.053 297.85,52.618C298.402,52.155 298.474,51.331 298.011,50.778L297.845,50.582C297.787,50.514 297.727,50.449 297.665,50.384C298.347,50.424 298.952,49.927 299.036,49.24C299.124,48.524 298.615,47.872 297.899,47.784C296.668,47.633 295.591,47.599 294.601,47.688C294.956,47.269 295.368,46.845 295.847,46.398C296.375,45.906 296.404,45.08 295.912,44.552C295.42,44.024 294.594,43.995 294.066,44.487C293.181,45.312 292.476,46.096 291.915,46.891C291.698,46.661 291.47,46.426 291.231,46.184L290.666,45.621C290.151,45.115 289.325,45.123 288.819,45.638C288.314,46.153 288.322,46.979 288.836,47.485C289.194,47.836 289.523,48.167 289.827,48.482C289.422,48.503 288.998,48.531 288.554,48.567Z" style="fill:rgb(0,22,10);"/>
    <path d="M238.223,57.616C237.91,57.294 237.402,57.303 237.09,57.636C236.777,57.968 236.777,58.498 237.091,58.82C237.388,59.125 237.654,59.407 237.891,59.67C237.389,59.883 236.885,60.159 236.345,60.499L235.526,61.025C235.167,61.254 235.088,61.712 235.351,62.048C235.614,62.384 236.118,62.471 236.478,62.242L237.46,61.616C237.973,61.301 238.435,61.064 238.9,60.897C239.606,61.879 239.753,62.508 239.663,63.091L239.639,63.23L239.628,63.315C239.595,63.738 239.874,64.123 240.282,64.195C240.717,64.271 241.135,63.964 241.216,63.508L241.244,63.345C241.378,62.499 241.235,61.647 240.628,60.594C241.04,60.587 241.488,60.618 241.997,60.683C242.439,60.739 242.837,60.459 242.884,60.056C242.932,59.653 242.611,59.28 242.168,59.224C241.197,59.1 240.383,59.085 239.638,59.186C239.332,58.809 238.977,58.407 238.567,57.974L238.223,57.616Z" style="fill:rgb(231,234,238);"/>
    <path d="M69.923,275.336L70.822,277.336L72.874,277.925C72.985,277.957 73.049,278.072 73.017,278.183C73.007,278.218 72.989,278.249 72.964,278.274L71.405,279.826L71.492,282.059C71.497,282.174 71.407,282.271 71.292,282.276C71.253,282.277 71.214,282.268 71.18,282.248L69.416,281.243C69.36,281.212 69.294,281.207 69.235,281.231L67.348,281.98C67.241,282.023 67.119,281.971 67.076,281.863C67.062,281.827 67.058,281.787 67.065,281.749L67.462,279.55L66.135,277.796C66.065,277.704 66.083,277.573 66.175,277.504C66.204,277.482 66.237,277.468 66.272,277.463L68.386,277.166L69.555,275.311C69.617,275.213 69.746,275.184 69.843,275.245C69.878,275.267 69.906,275.299 69.923,275.336Z" style="fill:rgb(0,22,10);"/>
    <path d="M81.923,164.336L82.822,166.336L84.874,166.925C84.985,166.957 85.049,167.072 85.017,167.183C85.007,167.218 84.989,167.249 84.964,167.274L83.405,168.826L83.492,171.059C83.497,171.174 83.407,171.271 83.292,171.276C83.253,171.277 83.214,171.268 83.18,171.248L81.416,170.243C81.36,170.212 81.294,170.207 81.235,170.231L79.348,170.98C79.241,171.023 79.119,170.971 79.076,170.863C79.062,170.827 79.058,170.787 79.065,170.749L79.462,168.55L78.135,166.796C78.065,166.704 78.083,166.573 78.175,166.504C78.204,166.482 78.237,166.468 78.272,166.463L80.386,166.166L81.555,164.311C81.617,164.213 81.746,164.184 81.843,164.245C81.878,164.267 81.906,164.299 81.923,164.336Z" style="fill:rgb(0,22,10);"/>
    <path d="M109.104,341.061C109.775,340.574 110.713,340.723 111.2,341.393C111.686,342.064 90.465,359.349 82.233,367.27L81.276,368.198C76.574,372.799 73.107,376.783 71.153,379.932C69.082,383.27 68.949,385.082 70.286,385.823C75.358,388.634 82.651,390.004 93.095,388.274L94.168,388.091C98.144,387.394 128.051,380.872 127.577,381.045L127.393,381.1C126.45,381.35 114.273,385.561 110.07,386.631L109.562,386.76C103.137,388.376 98.109,389.484 93.586,390.233C82.533,392.064 74.636,391.664 68.832,388.447C65.482,386.591 65.749,382.951 68.603,378.351C70.849,374.732 74.798,370.261 80.153,365.108C88.495,357.081 100.229,347.506 109.104,341.061Z" style="fill:white;fill-rule:nonzero;"/>
</svg>
