<svg xmlns="http://www.w3.org/2000/svg" version="1.1" xmlns:xlink="http://www.w3.org/1999/xlink" xmlns:svgjs="http://svgjs.com/svgjs" width="512" height="512" x="0" y="0" viewBox="0 0 512 512" style="enable-background:new 0 0 512 512" xml:space="preserve" class=""><g><path d="M447.931 383.28 64.069 443.89V68.11c0-33.474 27.136-60.61 60.61-60.61h323.252v375.78z" style="" fill="#528fd8" data-original="#528fd8" class=""></path><path d="M415.605 7.5h32.325v375.78h-32.325z" style="" fill="#0573ce" data-original="#0573ce" class=""></path><path d="M64.069 68.11v375.78h60.61V7.5c-33.474 0-60.61 27.136-60.61 60.61z" style="" fill="#ffc344" data-original="#ffc344" class=""></path><path d="M447.931 504.5H124.679c-33.474 0-60.61-27.136-60.61-60.61 0-33.474 27.136-60.61 60.61-60.61h323.252V504.5z" style="" fill="#0573ce" data-original="#0573ce" class=""></path><path d="M415.605 383.28h32.325V504.5h-32.325z" style="" fill="#0055a3" data-original="#0055a3" class=""></path><path d="M124.678 474.195c-16.71 0-30.305-13.595-30.305-30.305s13.595-30.305 30.305-30.305H447.93v60.61H124.678z" style="" fill="#dff6fd" data-original="#dff6fd" class=""></path><path d="M415.605 413.585h32.325v60.61h-32.325z" style="" fill="#c8effe" data-original="#c8effe" class=""></path><path d="M263.632 59.204h45.346v58.366h-45.346z" style="" fill="#dff6fd" data-original="#dff6fd" class=""></path><path d="M263.632 117.57v32.326l-42.215 42.215a10.689 10.689 0 0 0-3.13 7.558c0 5.903 4.785 10.688 10.688 10.688h114.661c5.903 0 10.688-4.785 10.688-10.688a10.69 10.69 0 0 0-3.13-7.558l-42.215-42.215V117.57h-45.347z" style="" fill="#bbec6c" data-original="#bbec6c" class=""></path><path d="M348.935 270.967h-125.26a8.081 8.081 0 0 1-8.081-8.081v-14.142a8.081 8.081 0 0 1 8.081-8.081h125.26a8.081 8.081 0 0 1 8.081 8.081v14.142a8.081 8.081 0 0 1-8.081 8.081z" style="" fill="#fe646f" data-original="#fe646f" class=""></path><path d="M348.935 240.662H318.63a8.081 8.081 0 0 1 8.081 8.081v14.142a8.081 8.081 0 0 1-8.081 8.081h30.305a8.081 8.081 0 0 0 8.081-8.081v-14.142a8.081 8.081 0 0 0-8.081-8.081z" style="" fill="#fd4755" data-original="#fd4755" class=""></path><path d="M124.679 383.28V7.5M124.678 474.195c-16.71 0-30.305-13.595-30.305-30.305s13.595-30.305 30.305-30.305H447.93v60.61H124.678zM447.93 383.28V96.11M64.07 443.89V68.11c0-33.47 27.13-60.61 60.61-60.61h323.25v53.61" style="stroke-width:15;stroke-linecap:round;stroke-linejoin:round;stroke-miterlimit:10;" fill="none" stroke="#000000" stroke-width="15" stroke-linecap="round" stroke-linejoin="round" stroke-miterlimit="10" data-original="#000000" class=""></path><path d="M148.76 504.5h-24.08c-33.48 0-60.61-27.14-60.61-60.61 0-16.73 6.78-31.89 17.75-42.86s26.12-17.75 42.86-17.75h80.58M240.26 383.28h207.67V504.5H183.76M407.524 443.89h-34.083M162.742 443.89H134.78M341.116 443.89H195.067M308.977 117.57h-45.345M308.977 149.896V59.204h-45.346v90.692l-42.215 42.215a10.689 10.689 0 0 0-3.13 7.558v0c0 5.903 4.785 10.688 10.688 10.688h114.661c5.903 0 10.688-4.785 10.688-10.688v0a10.69 10.69 0 0 0-3.13-7.558l-42.216-42.215zM248.516 59.204h75.577M348.935 270.967h-125.26a8.081 8.081 0 0 1-8.081-8.081v-14.142a8.081 8.081 0 0 1 8.081-8.081h125.26a8.081 8.081 0 0 1 8.081 8.081v14.142a8.081 8.081 0 0 1-8.081 8.081zM217.613 301.271h137.383M354.996 331.576h-30.235M292.436 331.576h-74.823" style="stroke-width:15;stroke-linecap:round;stroke-linejoin:round;stroke-miterlimit:10;" fill="none" stroke="#000000" stroke-width="15" stroke-linecap="round" stroke-linejoin="round" stroke-miterlimit="10" data-original="#000000" class=""></path></g></svg>