<?xml version="1.0" encoding="UTF-8" standalone="no"?>
<!DOCTYPE svg PUBLIC "-//W3C//DTD SVG 1.1//EN" "http://www.w3.org/Graphics/SVG/1.1/DTD/svg11.dtd">
<svg width="100%" height="100%" viewBox="0 0 512 512" version="1.1" xmlns="http://www.w3.org/2000/svg" xmlns:xlink="http://www.w3.org/1999/xlink" xml:space="preserve" xmlns:serif="http://www.serif.com/" style="fill-rule:evenodd;clip-rule:evenodd;stroke-linejoin:round;stroke-miterlimit:2;">
    <g>
        <path d="M396.266,501.588L116.671,501.588C102.538,501.588 91.081,490.131 91.081,475.998L91.081,89.304C91.081,75.171 102.538,63.714 116.671,63.714L396.266,63.714C410.399,63.714 421.856,75.171 421.856,89.304L421.856,475.998C421.856,490.131 410.399,501.588 396.266,501.588Z" style="fill:white;fill-rule:nonzero;"/>
        <path d="M396.266,63.714L354.618,63.714C366.822,63.714 376.716,73.608 376.716,85.812L376.716,419.735C376.716,431.94 366.822,441.833 354.618,441.833L113.178,441.833C100.974,441.833 91.08,431.94 91.08,419.735L91.08,475.998C91.08,490.131 102.537,501.588 116.67,501.588L396.265,501.588C410.398,501.588 421.855,490.131 421.855,475.998L421.855,89.304C421.856,75.171 410.399,63.714 396.266,63.714Z" style="fill:rgb(255,191,252);fill-rule:nonzero;"/>
        <g>
            <path d="M396.266,53.696L116.671,53.696C97.037,53.696 81.063,69.67 81.063,89.305L81.063,475.998C81.063,495.633 97.037,511.607 116.671,511.607L396.266,511.607C415.9,511.607 431.874,495.633 431.874,475.998L431.874,89.305C431.874,69.67 415.9,53.696 396.266,53.696ZM411.837,475.998C411.837,484.585 404.852,491.57 396.266,491.57L116.671,491.57C108.085,491.57 101.1,484.585 101.1,475.998L101.1,89.305C101.1,80.718 108.085,73.733 116.671,73.733L396.266,73.733C404.852,73.733 411.837,80.718 411.837,89.305L411.837,475.998Z" style="fill:rgb(68,10,41);fill-rule:nonzero;"/>
            <path d="M339.041,128.244C347.084,128.296 355.128,128.267 363.171,128.158C366.437,128.114 369.101,125.415 369.101,122.149C369.101,122.121 369.1,122.094 369.1,122.067C369.073,118.805 366.382,116.137 363.12,116.137C363.083,116.137 363.046,116.137 363.009,116.138C355.02,116.246 346.982,116.272 339.122,116.221L339.061,116.221C335.763,116.221 333.049,118.935 333.049,122.233C333.049,125.523 335.751,128.233 339.041,128.244ZM219.171,128.282C226.482,128.289 233.446,128.293 240.123,128.293C259.915,128.293 277.167,128.261 293.325,128.195C296.577,128.13 299.216,125.437 299.216,122.184C299.216,118.923 296.563,116.226 293.302,116.173L293.277,116.173C271.69,116.261 248.149,116.287 219.184,116.26L219.175,116.26C215.877,116.26 213.163,118.973 213.163,122.271C213.163,125.567 215.875,128.28 219.171,128.282ZM149.37,128.16C163.972,128.203 178.575,128.233 193.176,128.252L193.188,128.252C196.486,128.252 199.199,125.539 199.199,122.241C199.199,118.945 196.488,116.232 193.192,116.23C178.596,116.211 164.001,116.181 149.405,116.138L149.379,116.138C146.081,116.138 143.367,118.851 143.367,122.149C143.367,125.443 146.076,128.155 149.37,128.16ZM363.09,212.323L200.884,212.323C197.586,212.323 194.873,215.036 194.873,218.334C194.873,221.632 197.586,224.345 200.884,224.345L363.09,224.345C366.388,224.345 369.101,221.632 369.101,218.334C369.101,215.036 366.388,212.323 363.09,212.323ZM363.09,167.357L141.885,167.357C138.587,167.357 135.874,170.07 135.874,173.368C135.874,176.666 138.587,179.379 141.885,179.379L363.09,179.379C366.346,179.32 368.992,176.625 368.992,173.368C368.992,170.111 366.346,167.416 363.09,167.357ZM149.53,237.77L161.091,237.77C168.62,237.77 174.747,231.644 174.747,224.114L174.747,212.553C174.747,205.024 168.621,198.897 161.091,198.897L149.53,198.897C142,198.897 135.873,205.023 135.873,212.553L135.873,224.114C135.874,231.644 142,237.77 149.53,237.77ZM147.896,212.553C147.896,211.652 148.63,210.919 149.531,210.919L161.092,210.919C161.993,210.919 162.726,211.652 162.726,212.553L162.726,224.114C162.726,225.015 161.993,225.748 161.092,225.748L149.53,225.748C148.634,225.747 147.897,225.01 147.895,224.114L147.895,212.553L147.896,212.553ZM363.09,254.447L200.884,254.447C197.586,254.447 194.873,257.16 194.873,260.458C194.873,263.756 197.586,266.469 200.884,266.469L363.09,266.469C366.388,266.469 369.101,263.756 369.101,260.458C369.101,257.16 366.388,254.447 363.09,254.447ZM149.53,279.894L161.091,279.894C168.62,279.894 174.747,273.768 174.747,266.238L174.747,254.677C174.747,247.148 168.621,241.021 161.091,241.021L149.53,241.021C142,241.021 135.873,247.147 135.873,254.677L135.873,266.238C135.874,273.767 142,279.894 149.53,279.894ZM147.896,254.677C147.896,253.776 148.63,253.043 149.531,253.043L161.092,253.043C161.993,253.043 162.726,253.776 162.726,254.677L162.726,266.238C162.726,267.139 161.993,267.872 161.092,267.872L149.53,267.872C148.634,267.871 147.897,267.134 147.895,266.238L147.895,254.677L147.896,254.677ZM363.09,351.067L200.884,351.067C197.586,351.067 194.873,353.78 194.873,357.078C194.873,360.376 197.586,363.089 200.884,363.089L363.09,363.089C366.388,363.089 369.101,360.376 369.101,357.078C369.101,353.78 366.388,351.067 363.09,351.067ZM363.09,306.102L141.885,306.102C138.587,306.102 135.874,308.815 135.874,312.113C135.874,315.411 138.587,318.124 141.885,318.124L363.09,318.124C366.388,318.124 369.101,315.411 369.101,312.113C369.101,308.815 366.388,306.102 363.09,306.102ZM161.092,337.642L149.53,337.642C142,337.642 135.873,343.768 135.873,351.298L135.873,362.859C135.873,370.388 141.999,376.515 149.53,376.515L161.091,376.515C168.62,376.515 174.747,370.389 174.747,362.859L174.747,351.298C174.747,343.768 168.621,337.642 161.092,337.642ZM162.725,362.859C162.725,363.76 161.992,364.493 161.091,364.493L149.53,364.493C148.634,364.492 147.897,363.755 147.895,362.859L147.895,351.298C147.895,350.397 148.629,349.664 149.53,349.664L161.091,349.664C161.992,349.664 162.725,350.397 162.725,351.298L162.725,362.859ZM363.09,393.19L200.884,393.19C197.586,393.19 194.873,395.903 194.873,399.201C194.873,402.499 197.586,405.212 200.884,405.212L363.09,405.212C366.388,405.212 369.101,402.499 369.101,399.201C369.101,395.903 366.388,393.19 363.09,393.19ZM161.092,379.765L149.53,379.765C142,379.765 135.873,385.891 135.873,393.421L135.873,404.982C135.873,412.511 141.999,418.638 149.53,418.638L161.091,418.638C168.62,418.638 174.747,412.512 174.747,404.982L174.747,393.421C174.747,385.892 168.621,379.765 161.092,379.765ZM162.725,404.982C162.725,405.883 161.992,406.616 161.091,406.616L149.53,406.616C148.634,406.615 147.897,405.878 147.895,404.982L147.895,393.421C147.895,392.52 148.629,391.787 149.53,391.787L161.091,391.787C161.992,391.787 162.725,392.52 162.725,393.421L162.725,404.982ZM363.09,435.315L200.884,435.315C197.586,435.315 194.873,438.028 194.873,441.326C194.873,444.624 197.586,447.337 200.884,447.337L363.09,447.337C366.388,447.337 369.101,444.624 369.101,441.326C369.101,438.028 366.388,435.315 363.09,435.315ZM161.092,421.889L149.53,421.889C142,421.889 135.873,428.015 135.873,435.545L135.873,447.106C135.873,454.635 141.999,460.762 149.53,460.762L161.091,460.762C168.62,460.762 174.747,454.636 174.747,447.106L174.747,435.545C174.747,428.016 168.621,421.889 161.092,421.889ZM162.725,447.106C162.725,448.007 161.992,448.74 161.091,448.74L149.53,448.74C148.634,448.739 147.897,448.002 147.895,447.106L147.895,435.545C147.895,434.644 148.629,433.911 149.53,433.911L161.091,433.911C161.992,433.911 162.725,434.644 162.725,435.545L162.725,447.106Z" style="fill:rgb(68,10,41);fill-rule:nonzero;"/>
        </g>
        <g transform="matrix(0.924013,-0.382361,0.382361,0.924013,3.77501,35.4256)">
            <circle cx="91.081" cy="8.262" r="7.869" style="fill:rgb(161,131,226);"/>
        </g>
        <g>
            <path d="M30.17,39.245L36.482,56.994C36.752,57.754 37.287,58.356 37.962,58.66L53.731,65.765C55.959,66.769 55.959,70.318 53.731,71.322L37.962,78.426C37.287,78.73 36.752,79.332 36.482,80.092L30.17,97.841C29.278,100.348 26.125,100.348 25.233,97.841L18.92,80.092C18.65,79.332 18.115,78.73 17.44,78.426L1.671,71.321C-0.557,70.317 -0.557,66.768 1.671,65.764L17.44,58.66C18.115,58.356 18.65,57.754 18.92,56.994L25.232,39.245C26.124,36.737 29.278,36.737 30.17,39.245ZM477.328,2.928L486.001,26.855C486.372,27.879 487.108,28.691 488.035,29.101L509.703,38.679C512.764,40.032 512.764,44.817 509.703,46.17L488.035,55.748C487.107,56.158 486.372,56.97 486.001,57.994L477.328,81.921C476.103,85.302 471.769,85.302 470.544,81.921L461.871,57.994C461.5,56.97 460.764,56.158 459.837,55.748L438.169,46.17C435.108,44.817 435.108,40.032 438.169,38.679L459.837,29.101C460.765,28.691 461.5,27.879 461.871,26.855L470.544,2.928C471.769,-0.452 476.103,-0.452 477.328,2.928Z" style="fill:rgb(202,180,239);fill-rule:nonzero;"/>
        </g>
    </g>
</svg>
