<svg xmlns="http://www.w3.org/2000/svg" version="1.1" xmlns:xlink="http://www.w3.org/1999/xlink" xmlns:svgjs="http://svgjs.com/svgjs" width="512" height="512" x="0" y="0" viewBox="0 0 512 512" style="enable-background:new 0 0 512 512" xml:space="preserve" class=""><g><path fill="#ffeac6" d="M388.129 0H57.807C48.685 0 41.29 7.394 41.29 16.516v445.935l12.262 7.736h343.167V16.516z" data-original="#ffeac6" class=""></path><path fill="#fcdbb2" d="M57.807 478.968h346.839V16.516C404.645 7.394 397.251 0 388.129 0v.779c0 12.074-8.703 22.389-20.604 24.421L96.686 71.444c-22.524 3.323-38.879 20.613-38.879 41.113v333.379c0 9.121-7.395 16.516-16.516 16.516-.001 9.121 7.394 16.516 16.516 16.516z" data-original="#fcdbb2" class=""></path><path fill="#eceaec" d="m418.382 41.455-289.343 49.4s-8.428-6.731-29.942-3.071c-12.686 2.158-24.774 11.092-24.774 24.774v382.925l16.516 8.161h322.378c9.121 0 16.516-7.395 16.516-16.516V50.568z" data-original="#eceaec" class=""></path><path fill="#615260" d="M379.871 214.71H247.742c-4.565 0-8.258-3.698-8.258-8.258s3.694-8.258 8.258-8.258h132.129c4.565 0 8.258 3.698 8.258 8.258s-3.693 8.258-8.258 8.258z" data-original="#615260"></path><path fill="#736572" d="M379.871 247.742H247.742c-4.565 0-8.258-3.698-8.258-8.258s3.694-8.258 8.258-8.258h132.129c4.565 0 8.258 3.698 8.258 8.258s-3.693 8.258-8.258 8.258z" data-original="#736572"></path><path fill="#615260" d="M379.871 305.548H247.742c-4.565 0-8.258-3.698-8.258-8.258s3.694-8.258 8.258-8.258h132.129c4.565 0 8.258 3.698 8.258 8.258s-3.693 8.258-8.258 8.258z" data-original="#615260"></path><path fill="#736572" d="M379.871 338.581H247.742c-4.565 0-8.258-3.698-8.258-8.258s3.694-8.258 8.258-8.258h132.129c4.565 0 8.258 3.698 8.258 8.258s-3.693 8.258-8.258 8.258z" data-original="#736572"></path><path fill="#dbd8db" d="M418.382 33.272 99.097 87.784a32.094 32.094 0 0 1 26.116 13.44l24.076 33.706a16.515 16.515 0 0 0 19.728 5.672L339.289 70.49a280.764 280.764 0 0 1 59.651-17.143l.031-.005c11.599-1.98 22.19 6.955 22.19 18.723v373.871c0 27.365-22.184 49.548-49.548 49.548H74.323c0 9.121 7.395 16.516 16.516 16.516h330.323c9.122 0 16.516-7.395 16.516-16.516V49.553c-.001-10.233-9.21-18.003-19.296-16.281z" data-original="#dbd8db" class=""></path><path fill="#fcdbb2" d="m276.122 301.102-18.118-4.399-4.098 4.098a66.054 66.054 0 0 0-12.375 17.17l-2.047 4.093 4.344 12.172L256 338.581l4.093-2.046a66.077 66.077 0 0 0 17.17-12.375l4.098-4.098z" data-original="#fcdbb2" class=""></path><g fill="#615260"><path d="M156.903 247.742a8.231 8.231 0 0 1-5.839-2.419l-24.774-24.774a8.254 8.254 0 0 1 0-11.677 8.254 8.254 0 0 1 11.677 0l18.935 18.935 35.452-35.452a8.254 8.254 0 0 1 11.677 0 8.254 8.254 0 0 1 0 11.677l-41.29 41.29a8.228 8.228 0 0 1-5.838 2.42zM156.903 338.581a8.231 8.231 0 0 1-5.839-2.419l-24.774-24.774a8.254 8.254 0 0 1 0-11.677 8.254 8.254 0 0 1 11.677 0l18.935 18.935 35.452-35.452a8.254 8.254 0 0 1 11.677 0 8.254 8.254 0 0 1 0 11.677l-41.29 41.29a8.228 8.228 0 0 1-5.838 2.42zM156.903 429.419a8.231 8.231 0 0 1-5.839-2.419l-24.774-24.774a8.254 8.254 0 0 1 0-11.677 8.254 8.254 0 0 1 11.677 0l18.935 18.935 35.452-35.452a8.254 8.254 0 0 1 11.677 0 8.254 8.254 0 0 1 0 11.677L162.742 427a8.231 8.231 0 0 1-5.839 2.419zM379.871 396.387H247.742c-4.565 0-8.258-3.698-8.258-8.258s3.694-8.258 8.258-8.258h132.129c4.565 0 8.258 3.698 8.258 8.258s-3.693 8.258-8.258 8.258z" fill="#615260" data-original="#615260"></path></g><path fill="#736572" d="M379.871 429.419H247.742c-4.565 0-8.258-3.698-8.258-8.258s3.694-8.258 8.258-8.258h132.129c4.565 0 8.258 3.698 8.258 8.258s-3.693 8.258-8.258 8.258z" data-original="#736572"></path><path fill="#615260" d="m239.484 322.065-11.799 23.599c-1.511 3.022 1.695 6.228 4.716 4.717l23.599-11.8z" data-original="#615260"></path><path fill="#ffc263" d="m438.855 150.26 23.599-34.646-5.841-5.841a8.258 8.258 0 0 0-11.679 0l-17.518 17.518z" data-original="#ffc263"></path><path fill="#ffaa5a" d="m468.291 121.452-5.837-5.838-23.357 23.357-11.68-11.68-169.413 169.412 23.357 23.357 13.161-13.161 4.242-14.594L439.18 151.889l11.593-1.241 17.519-17.519a8.257 8.257 0 0 0-.001-11.677z" data-original="#ffaa5a"></path><path fill="#ff8b57" d="m294.522 306.899 156.25-156.25-11.676-11.676-144.574 144.573c-6.448 6.449-6.448 16.904 0 23.353z" data-original="#ff8b57"></path></g></svg>