<?xml version="1.0" encoding="UTF-8" standalone="no"?>
<!DOCTYPE svg PUBLIC "-//W3C//DTD SVG 1.1//EN" "http://www.w3.org/Graphics/SVG/1.1/DTD/svg11.dtd">
<svg width="100%" height="100%" viewBox="0 0 512 512" version="1.1" xmlns="http://www.w3.org/2000/svg" xmlns:xlink="http://www.w3.org/1999/xlink" xml:space="preserve" xmlns:serif="http://www.serif.com/" style="fill-rule:evenodd;clip-rule:evenodd;stroke-linejoin:round;stroke-miterlimit:2;">
    <g>
        <path d="M351.996,161L351.996,58C351.996,31.488 373.488,10 399.996,10C426.508,10 447.996,31.488 447.996,58L447.996,141C447.996,152.047 439.043,161 427.996,161L351.996,161Z" style="fill:rgb(254,218,155);fill-rule:nonzero;"/>
        <path d="M399.996,10L58,10C31.488,10 10,31.488 10,58L10,427.996C10,439.043 18.953,447.996 30,447.996L351.996,447.996L351.996,58C351.996,31.488 373.488,10 399.996,10" style="fill:white;fill-rule:nonzero;"/>
        <path d="M266,501.996L251.285,466.688C246.145,454.349 243.499,441.113 243.5,427.746L243.5,350.211C243.5,338.496 252.996,329 264.71,329C273.84,329 281.945,334.84 284.832,343.504L299.906,388.719C303.535,399.607 313.79,406.997 325.266,406.996C340.031,406.996 351.996,395.031 351.996,380.266L351.996,184.703L382.426,215.074C407.964,240.568 422.331,275.208 422.332,311.293L422.332,417.593C422.331,446.787 415.841,475.618 403.332,501.996" style="fill:rgb(255,208,187);fill-rule:nonzero;"/>
        <g>
            <path d="M117.668,128L73.668,128C68.145,128 63.668,123.523 63.668,118L63.668,74C63.668,68.477 68.145,64 73.668,64L117.668,64C123.188,64 127.668,68.477 127.668,74L127.668,118C127.668,123.523 123.188,128 117.668,128ZM117.668,248L73.668,248C68.145,248 63.668,243.523 63.668,238L63.668,194C63.668,188.477 68.145,184 73.668,184L117.668,184C123.188,184 127.668,188.477 127.668,194L127.668,238C127.668,243.523 123.188,248 117.668,248ZM117.668,367.996L73.668,367.996C68.145,367.996 63.668,363.52 63.668,357.996L63.668,314C63.668,308.477 68.145,304 73.668,304L117.668,304C123.188,304 127.668,308.477 127.668,314L127.668,357.996C127.668,363.52 123.188,367.996 117.668,367.996Z" style="fill:rgb(167,199,255);fill-rule:nonzero;"/>
        </g>
        <path d="M399.996,0L58,0C26.02,0 0,26.02 0,58L0,427.996C0,444.539 13.457,457.996 30,457.996L161.332,457.996C166.855,457.996 171.332,453.52 171.332,447.996C171.332,442.473 166.855,437.996 161.332,437.996L30,437.996C24.484,437.996 20,433.512 20,427.996L20,58C20,37.047 37.047,20 58,20L356.234,20C347.379,30.188 341.996,43.473 341.996,58L341.996,380.266C341.996,389.492 334.492,396.996 325.266,396.996C318.082,397.001 311.661,392.375 309.391,385.559L294.321,340.339C290.094,327.62 278.114,318.986 264.71,319C247.499,319 233.499,333 233.499,350.207L233.499,357.997L181.667,357.997C176.144,357.997 171.667,362.477 171.667,367.997C171.667,373.52 176.144,377.997 181.667,377.997L233.5,377.997L233.5,427.747C233.485,442.436 236.394,456.982 242.059,470.535L256.769,505.844C258.319,509.565 261.973,512 266.004,512C267.322,512 268.628,511.738 269.844,511.23C274.945,509.105 277.355,503.25 275.23,498.152L260.52,462.844C255.875,451.728 253.488,439.798 253.5,427.75L253.5,350.21C253.5,344.027 258.527,339 264.71,339C269.543,339 273.82,342.078 275.348,346.664L290.418,391.883C295.394,406.851 309.492,417.011 325.266,416.996C345.52,416.996 361.996,400.52 361.996,380.266L361.996,208.816L375.359,222.152C399.203,245.949 412.332,277.609 412.332,311.293L412.332,417.593C412.332,445.129 406.094,472.832 394.297,497.711C391.93,502.699 394.059,508.664 399.047,511.031C404.035,513.398 410,511.273 412.367,506.281C425.426,478.742 432.332,448.074 432.332,417.594L432.332,311.293C432.332,272.258 417.117,235.574 389.488,207.996L361.996,180.555L361.996,171L427.996,171C444.539,171 457.996,157.543 457.996,141L457.996,58C457.996,26.02 431.98,0 399.996,0ZM437.996,141C437.996,146.512 433.512,151 427.996,151L361.996,151L361.996,58C361.996,37.047 379.043,20 399.996,20C420.949,20 437.996,37.047 437.996,58L437.996,141Z" style="fill-rule:nonzero;"/>
        <path d="M205,437.996C202.367,437.996 199.79,439.066 197.93,440.926C196.063,442.806 195.01,445.347 195,447.996C195,450.629 196.07,453.207 197.93,455.066C199.809,456.934 202.351,457.987 205,457.996C207.629,457.996 210.207,456.926 212.07,455.066C213.938,453.187 214.991,450.645 215,447.996C215,445.367 213.93,442.789 212.07,440.926C210.19,439.059 207.649,438.006 205,437.996ZM137.668,74C137.668,62.973 128.695,54 117.668,54L73.668,54C62.637,54 53.668,62.973 53.668,74L53.668,118C53.668,129.027 62.637,138 73.668,138L117.668,138C128.695,138 137.668,129.027 137.668,118L137.668,74ZM117.68,118L73.668,118L73.668,74L117.668,74L117.68,118ZM137.668,194C137.668,182.973 128.695,174 117.668,174L73.668,174C62.637,174 53.668,182.973 53.668,194L53.668,238C53.668,249.027 62.637,258 73.668,258L117.668,258C128.695,258 137.668,249.027 137.668,238L137.668,194ZM117.68,238L73.668,238L73.668,194L117.668,194L117.68,238ZM117.668,294L73.668,294C62.637,294 53.668,302.969 53.668,314L53.668,357.996C53.668,369.027 62.637,377.996 73.668,377.996L117.668,377.996C128.695,377.996 137.668,369.027 137.668,357.996L137.668,314C137.668,302.969 128.695,294 117.668,294ZM117.68,357.996L73.668,357.996L73.668,314L117.668,314L117.68,357.996ZM296.332,138C301.855,138 306.332,133.523 306.332,128C306.332,122.477 301.855,118 296.332,118L227.395,118C221.871,118 217.395,122.477 217.395,128C217.395,133.523 221.871,138 227.395,138L296.332,138ZM181.668,138C184.301,138 186.878,136.93 188.738,135.07C190.598,133.21 191.668,130.629 191.668,128C191.668,125.371 190.598,122.79 188.738,120.93C186.859,119.062 184.317,118.009 181.668,118C179.028,118 176.457,119.07 174.598,120.93C172.73,122.79 171.668,125.371 171.668,128C171.668,130.629 172.73,133.21 174.598,135.07C176.457,136.93 179.028,138 181.668,138ZM181.664,258L296.332,258C301.855,258 306.332,253.523 306.332,248C306.332,242.477 301.855,238 296.332,238L181.664,238C176.144,238 171.664,242.477 171.664,248C171.664,253.523 176.144,258 181.664,258Z" style="fill-rule:nonzero;"/>
    </g>
</svg>
