<?xml version="1.0" encoding="UTF-8"?><svg id="b" xmlns="http://www.w3.org/2000/svg" viewBox="0 0 320 512"><g id="c"><g><path d="M30,140H120c11,0,20-9,20-20V30c0-11-9-20-20-20H30c-11,0-20,9-20,20V120c0,11,9,20,20,20Zm90,51H30c-11,0-20,9-20,20v90c0,11,9,20,20,20H120c11,0,20-9,20-20v-90c0-11-9-20-20-20Zm0,181H30c-11,0-20,9-20,20v90c0,11,9,20,20,20H120c11,0,20-9,20-20v-90c0-11-9-20-20-20Z" style="fill:#315da8; fill-rule:evenodd;"/><path d="M30,150H120c16.54,0,30-13.46,30-30V30c0-16.54-13.46-30-30-30H30C13.46,0,0,13.46,0,30V120C0,136.54,13.46,150,30,150ZM20,30c0-5.51,4.49-10,10-10H120c5.51,0,10,4.49,10,10V120c0,5.51-4.49,10-10,10H30c-5.51,0-10-4.49-10-10V30Zm10,301H120c16.54,0,30-13.46,30-30v-90c0-16.54-13.46-30-30-30-5.52,0-10,4.48-10,10s4.48,10,10,10,10,4.49,10,10v90c0,5.51-4.49,10-10,10H30c-5.51,0-10-4.49-10-10v-90c0-5.51,4.49-10,10-10,5.52,0,10-4.48,10-10,0-5.52-4.48-10-10-10C13.46,181.01,0,194.46,0,211v90C0,317.54,13.46,331,30,331Z"/><path d="M290,65h-85.86l12.93-12.93c3.9-3.9,3.9-10.24,0-14.14-3.9-3.9-10.24-3.9-14.14,0l-30,30c-3.9,3.9-3.9,10.24,0,14.14l30,30c3.91,3.9,10.24,3.9,14.14,0,3.9-3.9,3.9-10.24,0-14.14l-12.93-12.93h85.86c5.51,0,10,4.49,10,10V417c0,5.51-4.49,10-10,10H150v-35c0-16.54-13.46-30-30-30H30c-16.54,0-30,13.46-30,30v90c0,16.54,13.46,30,30,30H120c16.54,0,30-13.46,30-30v-35h140c16.54,0,30-13.46,30-30V95c0-16.54-13.46-30-30-30h0ZM130,482c0,5.51-4.49,10-10,10H30c-5.51,0-10-4.49-10-10v-90c0-5.51,4.49-10,10-10H120c5.51,0,10,4.49,10,10v90ZM50,85h50c13.25-.49,13.24-19.51,0-20H50c-13.25,.49-13.24,19.51,0,20Z"/><path d="M40,256c0,5.52,4.48,10,10,10h50c13.25-.49,13.24-19.51,0-20H50c-5.52,0-10,4.48-10,10Zm60,171H50c-13.25,.49-13.24,19.51,0,20h50c13.25-.49,13.24-19.51,0-20Zm-15-236c0-5.52-4.48-10-10-10h0c-5.52,0-10,4.48-10,10,.49,13.25,19.51,13.25,20,0Z"/></g></g></svg>