<svg xmlns="http://www.w3.org/2000/svg" version="1.1" xmlns:xlink="http://www.w3.org/1999/xlink" width="512" height="512" x="0" y="0" viewBox="0 0 512.002 512.002" style="enable-background:new 0 0 512 512" xml:space="preserve" class=""><g><g fill="#ffea60" fill-rule="evenodd" clip-rule="evenodd"><path d="M126.001 140h90c11 0 20-9 20-20V30c0-11-9-20-20-20h-90c-11 0-20 9-20 20v90c0 11 9 20 20 20zM216.001 191.001h-90c-11 0-20 9-20 20v90c0 11 9 20 20 20h90c11 0 20-9 20-20v-90c0-11-9-20-20-20zM216.001 372.002h-90c-11 0-20 9-20 20v90c0 11 9 20 20 20h90c11 0 20-9 20-20v-90c0-11-9-20-20-20z" fill="#adc6ff" opacity="1" data-original="#ffea60" class=""></path></g><path d="M126.001 150h90c16.542 0 30-13.458 30-30V30c0-16.542-13.458-30-30-30h-90c-16.542 0-30 13.458-30 30v90c0 16.542 13.458 30 30 30zm-10-120c0-5.514 4.486-10 10-10h90c5.514 0 10 4.486 10 10v90c0 5.514-4.486 10-10 10h-90c-5.514 0-10-4.486-10-10zM126.001 331.001h90c16.542 0 30-13.458 30-30v-90c0-16.542-13.458-29.999-30-29.999-5.523 0-10 4.478-10 10s4.477 10 10 10c5.514 0 10 4.485 10 9.999v90c0 5.514-4.486 10-10 10h-90c-5.514 0-10-4.486-10-10v-90c0-5.513 4.485-9.998 9.998-9.999 5.522-.001 9.999-4.479 9.998-10.002-.001-5.522-4.479-9.999-10.002-9.998-16.539.003-29.994 13.46-29.994 29.999v90c0 16.542 13.458 30 30 30z" fill="#000000" opacity="1" data-original="#000000" class=""></path><path d="M386.001 65h-85.856l12.929-12.929c3.905-3.905 3.905-10.237 0-14.143-3.905-3.904-10.237-3.904-14.143 0l-30 30c-3.905 3.905-3.905 10.237 0 14.143l30 30c3.906 3.905 10.237 3.905 14.143 0 3.905-3.905 3.905-10.237 0-14.143L300.145 85h85.856c5.514 0 10 4.486 10 10v322.002c0 5.514-4.486 10-10 10h-140v-35c0-16.542-13.458-30-30-30h-90c-16.542 0-30 13.458-30 30v90c0 16.542 13.458 30 30 30h90c16.542 0 30-13.458 30-30v-35h140c16.542 0 30-13.458 30-30V95c-.001-16.542-13.458-30-30-30zm-160 417.002c0 5.514-4.486 10-10 10h-90c-5.514 0-10-4.486-10-10v-90c0-5.514 4.486-10 10-10h90c5.514 0 10 4.486 10 10zM146.001 85h50c13.254-.492 13.244-19.513 0-20h-50c-13.254.492-13.244 19.513 0 20z" fill="#000000" opacity="1" data-original="#000000" class=""></path><path d="M136.001 256.001c0 5.522 4.477 10 10 10h50c13.254-.492 13.244-19.513 0-20h-50c-5.523 0-10 4.478-10 10zM196.001 427.002h-50c-13.254.492-13.244 19.513 0 20h50c13.254-.492 13.244-19.513 0-20zM181.001 191.002c0-5.522-4.477-10-10-10h-.007c-5.523 0-9.996 4.478-9.996 10 .491 13.249 19.515 13.248 20.003 0z" fill="#000000" opacity="1" data-original="#000000" class=""></path></g></svg>