<svg xmlns="http://www.w3.org/2000/svg" version="1.1" xmlns:xlink="http://www.w3.org/1999/xlink" xmlns:svgjs="http://svgjs.com/svgjs" width="512" height="512" x="0" y="0" viewBox="0 0 512 512" style="enable-background:new 0 0 512 512" xml:space="preserve" class=""><g><path fill="#efc257" d="M462.415 344.72v139.085h-93.707V354.236z" data-original="#efc257"></path><path fill="#f1f4f6" d="M434.894 463.102a53.486 53.486 0 0 1 0-57.319L286.16 378.098H87.553v105.707h264.665z" data-original="#f1f4f6" class=""></path><path fill="#f5dd81" d="M462.412 28.2v356.88l-342.77 8.54-20.19.58-49.87 40.24V77.56c0-38.63 31.43-70.06 70.06-70.06h322.08c11.43 0 20.69 9.27 20.69 20.7z" data-original="#f5dd81" class=""></path><path fill="#f1cd6b" d="M119.642 7.5v386.12l-20.19.58-49.87 40.24V77.56c0-38.63 31.43-70.06 70.06-70.06z" data-original="#f1cd6b" class=""></path><path fill="#f1cd6b" d="M441.72 504.5H119.642c-38.63 0-70.057-31.428-70.057-70.057s31.428-70.057 70.057-70.057H441.72c11.43 0 20.695 9.266 20.695 20.695 0 11.43-9.266 20.695-20.695 20.695H204.408l-35.865 14.334-35.865-14.334h-13.036c-15.807 0-28.667 12.86-28.667 28.667s12.86 28.667 28.667 28.667H441.72c11.43 0 20.695 9.266 20.695 20.695S453.15 504.5 441.72 504.5z" data-original="#f1cd6b" class=""></path><path fill="#adc6ff" d="M159.642 287.362V84.524c0-20.448 16.576-37.024 37.024-37.024h188.725c20.448 0 37.024 16.576 37.024 37.024v202.838c0 20.448-16.576 37.024-37.024 37.024H196.666c-20.448-.001-37.024-16.577-37.024-37.024z" data-original="#adc9fc" class=""></path><path fill="#94afe5" d="M219.472 324.392h-22.8c-20.45 0-37.03-16.58-37.03-37.03V84.522c0-20.44 16.58-37.02 37.03-37.02h22.8c-20.45 0-37.02 16.58-37.02 37.02v202.84c0 20.45 16.57 37.03 37.02 37.03z" data-original="#94afe5" class=""></path><path fill="#f1f4f6" d="M344.963 99.471 237.859 73.779v166.52l53.17 26.942 53.934-26.942z" data-original="#f1f4f6" class=""></path><path fill="#d4e1e6" d="m273.558 99.471-35.699-25.692v166.52l17.722 26.942 17.977-26.942z" data-original="#d4e1e6" class=""></path><path fill="#f1f4f6" d="M350.706 240.299H231.351c-14.88 0-26.943 12.063-26.943 26.943s12.063 26.943 26.943 26.943h119.355c14.88 0 26.943-12.063 26.943-26.943 0-14.881-12.063-26.943-26.943-26.943z" data-original="#f1f4f6" class=""></path><path fill="#d4e1e6" d="M247.248 286.301a26.868 26.868 0 0 0 19.05 7.89h-34.95c-7.44 0-14.17-3.02-19.05-7.89a26.867 26.867 0 0 1-7.89-19.06c0-14.88 12.06-26.94 26.94-26.94h34.95c-14.88 0-26.94 12.06-26.94 26.94 0 7.44 3.02 14.18 7.89 19.06z" data-original="#d4e1e6" class=""></path><path fill="#a3b8bf" d="M273.558 82.339v106.47c0 4.93-2 9.39-5.23 12.62s-7.69 5.23-12.62 5.23c-9.86 0-17.85-7.99-17.85-17.85V73.779" data-original="#a3b8bf" class=""></path><path fill="#dd636e" d="M204.408 405.78v67.78c0 8.58-9.89 13.4-16.65 8.1l-12.86-10.09a10.288 10.288 0 0 0-12.71 0l-12.86 10.09c-6.75 5.3-16.65.48-16.65-8.1v-67.78z" data-original="#dd636e" class=""></path><path fill="#da4a54" d="M132.678 405.78h71.73v28.66h-71.73z" data-original="#da4a54" class=""></path><path d="M469.92 28.2c0-15.55-12.65-28.2-28.2-28.2H189.64a7.5 7.5 0 0 0 0 15h252.08c7.278 0 13.2 5.921 13.2 13.2l-.001 331.979a28.03 28.03 0 0 0-13.2-3.289H127.142V15h32.498a7.5 7.5 0 0 0 0-15h-40C76.874 0 42.08 34.793 42.08 77.56v356.88c0 .112.012.22.017.331C42.276 477.385 76.988 512 119.638 512h322.08c15.55 0 28.2-12.65 28.2-28.2zM196.908 473.557c0 1.522-.985 2.229-1.573 2.514-.588.286-1.753.624-2.949-.314l-12.858-10.086a17.76 17.76 0 0 0-10.984-3.805c-3.875 0-7.75 1.269-10.983 3.805l-12.858 10.086c-1.196.939-2.36.601-2.949.314-.587-.286-1.573-.992-1.573-2.515l-.001-60.277h56.729zM125.18 455.61h-5.542c-11.667 0-21.16-9.497-21.16-21.17 0-11.668 9.492-21.16 21.16-21.16h5.541zm86.727-42.33h210.968a61.447 61.447 0 0 0 .002 42.33H211.908zm227.346 42.33c-6.843-13.223-6.844-29.107-.002-42.33h2.468c4.767 0 9.259-1.193 13.2-3.29v48.909a28.03 28.03 0 0 0-13.2-3.289zM112.142 81.668c-21.851 2.107-41.067 13.323-53.824 29.789 5.275-26.19 26.959-46.495 53.824-49.721zm-55.057 77.188c0-31.955 24.088-58.373 55.057-62.092v192.74c-22.567 2.176-42.33 14.064-55.062 31.422v-162.07zm0 207.836c0-31.955 24.088-58.373 55.057-62.092v52.658c-22.568 2.175-42.33 14.063-55.062 31.422v-21.989h.005zm55.057-351.227v31.174c-22.567 2.176-42.33 14.064-55.062 31.422v-.501c0-31.957 24.091-58.376 55.062-62.095zM441.718 497h-322.08c-34.49 0-62.55-28.064-62.55-62.56 0-34.49 28.06-62.55 62.55-62.55h322.08c7.279 0 13.2 5.917 13.2 13.19 0 7.279-5.921 13.2-13.2 13.2h-322.08c-19.938 0-36.16 16.221-36.16 36.16 0 19.944 16.221 36.17 36.16 36.17h5.542v2.947c0 6.867 3.836 12.999 10.01 16.003a17.822 17.822 0 0 0 7.813 1.814c3.891 0 7.741-1.293 10.956-3.815l12.859-10.087a2.79 2.79 0 0 1 3.451 0l12.858 10.086c5.402 4.238 12.594 5.005 18.77 2 6.174-3.004 10.01-9.136 10.01-16.003v-2.947h229.81c7.279 0 13.2 5.917 13.2 13.19.001 7.281-5.92 13.202-13.199 13.202z" fill="#000000" data-original="#000000" class=""></path><path d="M152.142 287.362c0 24.551 19.973 44.524 44.524 44.524h188.725c24.551 0 44.524-19.973 44.524-44.524V84.524c0-24.551-19.973-44.524-44.524-44.524H196.666c-24.551 0-44.524 19.973-44.524 44.524zm15-202.838c0-16.28 13.245-29.524 29.524-29.524h188.725c16.279 0 29.524 13.244 29.524 29.524v202.838c0 16.28-13.245 29.524-29.524 29.524H196.666c-16.279 0-29.524-13.244-29.524-29.524z" fill="#000000" data-original="#000000" class=""></path><path d="M231.35 301.68h79.69a7.5 7.5 0 0 0 0-15h-79.69c-5.186 0-10.07-2.024-13.752-5.698-3.667-3.66-5.688-8.541-5.688-13.741 0-10.719 8.721-19.44 19.44-19.44h119.36c5.186 0 10.069 2.024 13.752 5.699 3.668 3.66 5.688 8.54 5.688 13.741 0 10.719-8.721 19.44-19.44 19.44h-9.69a7.5 7.5 0 0 0 0 15h9.69c18.99 0 34.44-15.45 34.44-34.44 0-9.214-3.584-17.865-10.092-24.359-6.098-6.086-14.066-9.611-22.595-10.037V99.471a7.5 7.5 0 0 0-5.75-7.293L239.608 66.486a7.499 7.499 0 0 0-9.249 7.293h-.001v159.047c-18.532.528-33.449 15.757-33.449 34.415 0 9.213 3.584 17.864 10.092 24.359 6.516 6.5 15.163 10.08 24.349 10.08zm14.009-89.739a25.19 25.19 0 0 0 10.35 2.218c6.738 0 13.075-2.615 17.856-7.363 4.584 4.548 10.891 7.363 17.844 7.363 6.738 0 13.075-2.615 17.857-7.363 4.584 4.548 10.891 7.363 17.844 7.363a25.26 25.26 0 0 0 10.354-2.206v20.846H245.36v-20.858zm71.399-111.523 20.7 4.966v83.425c0 2.762-1.077 5.361-3.033 7.317s-4.555 3.033-7.317 3.033c-5.707 0-10.35-4.643-10.35-10.35zm-15 88.391c0 2.762-1.077 5.361-3.033 7.317s-4.555 3.033-7.317 3.033c-5.707 0-10.35-4.643-10.35-10.35V91.854l20.7 4.966zm-35.7-100.553v100.552c0 2.762-1.077 5.361-3.033 7.317s-4.554 3.033-7.316 3.033c-5.704 0-10.344-4.638-10.35-10.34V83.291z" fill="#000000" data-original="#000000" class=""></path></g></svg>